<?xml version="1.0" standalone="no"?>
<!DOCTYPE svg PUBLIC "-//W3C//DTD SVG 1.1//EN" "http://www.w3.org/Graphics/SVG/1.1/DTD/svg11.dtd">
<svg xmlns="http://www.w3.org/2000/svg">
<defs >
<font id="NanumGothic" horiz-adv-x="463" ><font-face
    font-family="NanumGothic"
    units-per-em="1000"
    panose-1="2 13 8 4 0 0 0 0 0 0"
    ascent="920"
    descent="-230"
    alphabetic="0" />
<glyph unicode=" " horiz-adv-x="280" />
<glyph unicode="!" horiz-adv-x="424" d="M266 145Q265 143 265 142T264 140Q262 138 249 138H175Q171 138 171 140Q168 143 168 157L154 685Q153 706 156 710T173 714H262Q276 714 278 710T280 685L266 157V145ZM217 -63Q187 -63 167 -43T147 7Q147 36 167 57T217
78Q247 78 267 57T288 7Q288 -22 268 -42T217 -63Z" />
<glyph unicode="&quot;" horiz-adv-x="430" d="M252 470Q239 470 239 482V693Q239 705 252 705H324Q336 705 336 693V482Q336 470 324 470H252ZM105 470Q93 470 93 482V693Q93 705 105 705H177Q190 705 190 693V482Q190 470 177 470H105Z" />
<glyph unicode="#" horiz-adv-x="606" d="M465 387L450 279H521Q536 279 539 277T543 259V200Q543 185 540 182T521 179H437L409 -27Q407 -39 405 -41T389 -44H322Q309 -44 307 -41T306 -27L331 179H247L220 -25Q218 -39 214 -41T196 -44H142Q122 -44 119 -42T117
-25L144 179H61Q46 179 43 181T40 198V260Q40 274 43 277T61 280H156L170 388H90Q74 388 71 390T68 408V467Q68 482 71 485T90 488H185L212 694Q214 706 216 708T232 711H298Q311 711 313 707T314 691L289 488H374L401 692Q403 706 406 708T425 711H479Q499 711
502 707T503 689L477 488H552Q566 488 569 486T573 469V407Q573 393 570 390T552 387H465ZM261 279H344L359 387H275L261 279Z" />
<glyph unicode="$" horiz-adv-x="606" d="M464 4Q445 -16 418 -32T358 -58V-129Q358 -141 346 -141H276Q264 -141 264 -129V-68Q219 -66 177 -57T118 -40Q104 -33 101 -30T100 -16L107 59Q108 66 111 67T126 64Q135 60 150 56T183 47T223 40T264 37V302Q177 356
137 404T96 515Q96 549 108 580T142 637T195 682T264 711V779Q264 784 267 787T276 791H346Q351 791 354 788T358 779V718Q397 716 424 710T472 697Q483 693 485 689T485 678L472 614Q470 603 466 600T451 599Q431 606 407 611T358 619V368Q407 336 439 310T489
259T515 209T523 154Q523 63 464 4ZM210 512Q210 494 223 473T264 429V604Q234 590 222 567T210 512ZM410 160Q410 174 397 195T358 239V57Q389 74 399 101T410 160Z" />
<glyph unicode="%" horiz-adv-x="1090" d="M936 4Q890 -55 802 -55Q713 -55 666 4Q627 53 627 150Q627 246 666 297Q712 357 802 357Q891 357 936 297Q956 271 966 235T976 150Q976 54 936 4ZM377 -64T370 -66T355 -69H285Q274 -69 270 -65T273 -47L704 725Q711
737 722 737H802Q823 737 813 716L382 -54Q377 -64 370 -66ZM421 370Q375 312 287 312Q199 312 151 370Q112 421 112 517Q112 612 151 663Q174 692 208 708T287 724Q375 724 421 663Q461 613 461 517Q461 422 421 370ZM801 252Q732 252 732 149Q732 133 735 115T746
82T767 56T801 46Q869 46 869 149Q869 252 801 252ZM286 620Q217 620 217 517Q217 500 220 482T231 448T252 423T286 413Q355 413 355 517Q355 620 286 620Z" />
<glyph unicode="&amp;" horiz-adv-x="727" d="M615 -43Q601 -43 596 -42T584 -34L527 27Q436 -59 311 -59Q261 -59 216 -46T135 -5T79 63T58 161Q58 235 97 289T210 380Q180 417 157 456T133 547Q133 590 152 623T201 679T269 713T345 725Q382 725 416 714T477
682T518 628T534 554Q534 496 497 444T378 354L524 189Q544 218 555 262T566 351Q566 365 568 368T584 371H654Q666 371 668 368T671 351Q671 321 666 288T651 223T627 161T597 111L718 -22Q725 -29 725 -36T708 -43H615ZM341 624Q304 624 276 604T247 543Q247
525 264 494T310 426Q329 435 348 445T382 469T408 501T418 544Q418 576 399 600T341 624ZM257 294T238 281T205 250T182 212T173 167Q173 137 184 114T215 75T260 51T313 43Q350 43 388 60T456 105L278 304Q257 294 238 281Z" />
<glyph unicode="&apos;" horiz-adv-x="303" d="M113 470Q108 470 105 473T101 482V694Q101 699 104 702T113 706H204Q209 706 212 703T216 694V482Q216 477 213 474T204 470H113Z" />
<glyph unicode="(" horiz-adv-x="363" d="M269 -187Q261 -187 255 -178Q161 -62 119 56T76 302Q76 428 118 546T255 782Q261 791 269 791H343Q356 791 349 780Q269 654 231 537T193 302Q193 184 230 67T349 -176Q352 -180 351 -183T343 -187H269Z" />
<glyph unicode=")" horiz-adv-x="363" d="M113 -178Q107 -187 99 -187H25Q18 -187 17 -184T19 -176Q100 -50 137 67T175 302Q175 419 137 536T19 780Q12 791 25 791H99Q107 791 113 782Q207 665 249 547T292 302Q292 175 250 57T113 -178Z" />
<glyph unicode="*" horiz-adv-x="606" d="M379 312L448 233Q462 216 462 210T444 191L407 163Q387 147 381 148T364 168L309 260L248 167Q236 148 231 147T206 158L169 186Q149 199 149 205T162 229L230 312L125 342Q104 348 101 353T106 380L122 424Q126 435
129 441T136 448T146 448T161 442L261 398L254 507Q253 518 253 524T256 534T265 537T283 538H329Q341 538 348 537T358 533T361 524T360 507L352 398L453 439Q463 443 469 444T478 445T484 437T491 421L505 377Q513 354 510 349T486 338L379 312Z" />
<glyph unicode="+" horiz-adv-x="654" d="M382 275V64Q382 52 370 52H288Q276 52 276 64V275H64Q59 275 56 278T52 287V365Q52 370 55 373T64 377H276V587Q276 592 279 595T288 599H370Q375 599 378 596T382 587V377H593Q605 377 605 365V287Q605 275 593 275H382Z" />
<glyph unicode="," horiz-adv-x="303" d="M164 -186T158 -188T145 -191H65Q60 -191 57 -188T56 -178L105 4Q107 9 111 14T126 20H223Q236 20 237 14T236 1L167 -178Q164 -186 158 -188Z" />
<glyph unicode="-" horiz-adv-x="363" d="M66 288Q61 288 57 291T53 300V380Q53 385 57 388T66 392H308Q314 392 317 389T321 380V300Q321 295 318 292T308 288H66Z" />
<glyph unicode="." horiz-adv-x="303" d="M158 -116Q126 -116 104 -94T81 -39Q81 -7 103 15T158 37Q190 37 212 15T234 -39Q234 -71 212 -93T158 -116Z" />
<glyph unicode="/" horiz-adv-x="375" d="M113 -119T108 -121T94 -124H22Q11 -124 6 -120T4 -103L263 714Q267 725 279 725H358Q381 725 375 705L117 -110Q113 -119 108 -121Z" />
<glyph unicode="0" horiz-adv-x="606" d="M307 -59Q179 -59 118 42T56 327Q56 389 65 457T102 582T179 676T307 713Q359 713 398 696T464 650T510 582T538 500T552 413T556 327Q556 236 541 164T495 43T418 -33T307 -59ZM307 604Q275 604 250 590T207 542T180
456T170 327Q170 250 179 197T207 111T250 64T307 49Q338 49 363 63T407 111T434 197T444 327Q444 403 435 456T407 542T364 589T307 604Z" />
<glyph unicode="1" horiz-adv-x="606" d="M286 -54Q272 -54 272 -41V551L198 487Q193 483 187 482T176 485L131 539Q128 543 128 548T134 559L287 700Q289 702 294 704T302 706H355Q372 706 375 703T379 679V-41Q379 -54 366 -54H286Z" />
<glyph unicode="2" horiz-adv-x="606" d="M76 -55Q57 -55 57 -42V15Q57 23 61 31T72 47L224 227Q307 326 347 392T387 500Q387 548 358 579T285 610Q244 610 206 599T122 561Q114 556 106 556T96 566L82 642Q80 647 83 652T96 663Q134 683 183 699T279 715Q327
715 367 702T437 662T484 595T501 503Q501 458 481 412T431 321T367 236T305 162Q283 135 259 106T209 48H502Q516 48 516 32V-38Q516 -55 502 -55H76Z" />
<glyph unicode="3" horiz-adv-x="606" d="M446 -2Q408 -33 355 -47T243 -62Q200 -62 157 -55T76 -34Q66 -31 62 -27T59 -13L68 62Q69 71 74 74T93 72Q119 64 145 57T198 47Q219 45 241 44T284 45T325 54T362 73Q410 106 410 173Q410 196 400 217T367 255T311 281T228
291H178Q170 291 168 293T165 304V378Q165 387 167 389T178 391H226Q248 391 279 397T339 419T388 457T409 513Q409 539 396 558T363 589T318 606T273 612Q259 612 241 609T203 602T163 591T127 579Q115 574 110 576T103 588L94 661Q92 667 95 672T109 681Q153
697 195 706T279 715Q324 715 367 704T444 670T499 610T520 522Q520 495 511 468T484 417T443 374T391 343Q457 314 491 270T525 170Q525 117 505 73T446 -2Z" />
<glyph unicode="4" horiz-adv-x="606" d="M470 116V-36Q470 -47 467 -50T453 -54H381Q370 -54 367 -50T363 -36V116H43Q33 116 30 118T27 128V202Q27 209 31 216T39 228L348 693Q354 701 356 703T369 706H460Q468 706 469 703T470 691V219H563Q572 219 575 217T578
204V131Q578 121 575 119T563 116H470ZM148 219H363V545L148 219Z" />
<glyph unicode="5" horiz-adv-x="606" d="M463 4Q427 -29 375 -45T266 -61Q256 -61 236 -60T192 -55T145 -46T105 -32Q98 -28 98 -25T97 -14V67Q97 85 118 75Q133 67 153 62T194 52T235 46T274 44Q341 44 384 82T428 187Q428 252 393 290T275 329Q242 329 208
322T141 303Q102 287 102 321L107 690Q108 701 111 704T129 707H495Q501 707 504 703T508 694V617Q508 612 505 608T495 603H217L213 417Q252 426 301 426Q351 426 395 411T471 366T522 294T541 200Q541 74 463 4Z" />
<glyph unicode="6" horiz-adv-x="606" d="M308 -62Q190 -62 127 26T63 302Q63 386 80 461T136 593T240 682T397 715Q426 715 461 710T520 697Q529 694 528 684L525 604Q523 590 509 596Q483 606 454 609T389 612Q337 612 301 595T239 546T200 473T178 383Q187
395 202 406T236 426T275 440T314 446Q368 446 412 429T489 379T538 301T556 198Q556 143 539 96T490 13T411 -42T308 -62ZM318 342Q253 342 216 303T179 202Q179 168 189 138T216 86T258 50T310 37Q370 37 408 79T446 193Q446 262 413 302T318 342Z" />
<glyph unicode="7" horiz-adv-x="606" d="M262 -40Q258 -48 254 -51T240 -54H159Q144 -54 140 -51T140 -36L401 603H82Q75 603 70 607T65 620V690Q65 706 82 706H508Q525 706 528 703T532 688V627Q532 619 527 611L262 -40Z" />
<glyph unicode="8" horiz-adv-x="606" d="M307 -62Q262 -62 217 -49T135 -9T76 58T53 153Q53 190 65 218T98 269T146 310T204 343Q144 377 109 422T74 525Q74 567 92 602T142 662T216 701T307 715Q357 715 399 702T472 665T520 607T538 528Q538 477 507 433T410
344Q445 323 473 304T521 262T551 213T562 153Q562 99 541 59T484 -8T402 -48T307 -62ZM307 617Q286 617 265 610T227 591T199 560T188 517Q188 496 202 476T235 439T275 410T308 393Q323 399 343 412T381 444T412 482T425 520Q425 540 416 557T390 588T353 609T307
617ZM308 288Q288 282 263 272T217 245T180 207T165 153Q165 127 178 106T211 70T257 47T307 39Q333 39 358 46T404 69T436 105T449 153Q449 172 437 192T404 231T358 264T308 288Z" />
<glyph unicode="9" horiz-adv-x="606" d="M216 -62Q187 -62 152 -57T93 -44Q84 -41 85 -31L88 49Q90 63 104 57Q130 47 159 44T224 41Q276 41 312 58T374 107T413 180T435 270Q426 258 411 247T377 227T338 213T299 207Q245 207 201 224T124 274T75 352T57 455Q57
510 74 557T123 640T202 695T305 715Q423 715 486 627T550 351Q550 267 533 192T477 60T373 -29T216 -62ZM303 616Q243 616 205 574T167 460Q167 391 200 351T295 311Q360 311 397 350T434 451Q434 485 424 515T397 567T355 603T303 616Z" />
<glyph unicode=":" horiz-adv-x="303" d="M158 477Q126 477 104 499T81 552Q81 583 103 605T158 628Q190 628 212 606T234 552Q234 522 212 500T158 477ZM158 22Q126 22 104 44T81 98Q81 128 103 150T158 173Q190 173 212 151T234 98Q234 67 212 45T158 22Z" />
<glyph unicode=";" horiz-adv-x="303" d="M158 478Q128 478 106 500T83 553Q83 584 105 606T158 629Q190 629 212 607T235 553Q235 523 213 501T158 478ZM156 -71T150 -73T137 -76H61Q56 -76 53 -73T52 -63L100 117Q102 123 106 128T122 134H215Q228 134 229 128T228
115L159 -63Q156 -71 150 -73Z" />
<glyph unicode="&lt;" horiz-adv-x="547" d="M89 242Q79 252 77 257T75 278V324Q75 340 77 345T89 360L484 771Q497 785 500 784T503 763V668Q503 658 503 652T501 642T495 634T485 622L194 318Q186 310 186 304T196 288L485 -20Q492 -28 495 -32T500 -40T502
-50T503 -66V-161Q503 -181 500 -182T484 -169L89 242Z" />
<glyph unicode="=" horiz-adv-x="654" d="M66 378Q61 378 58 381T54 390V469Q54 474 57 477T66 481H594Q599 481 602 478T606 469V390Q606 385 603 382T594 378H66ZM66 170Q61 170 58 173T54 182V261Q54 266 57 269T66 273H594Q599 273 602 270T606 261V182Q606
177 603 174T594 170H66Z" />
<glyph unicode="&gt;" horiz-adv-x="547" d="M72 -169Q59 -183 56 -182T53 -161V-66Q53 -56 53 -50T55 -40T61 -32T71 -20L360 288Q369 298 369 304T362 318L71 622Q64 629 61 633T56 642T54 652T53 668V763Q53 783 56 784T72 771L467 360Q477 350 479 345T481
324V278Q481 262 479 257T467 242L72 -169Z" />
<glyph unicode="?" horiz-adv-x="545" d="M430 400Q403 364 379 330T339 274Q322 249 313 219T304 151Q304 133 287 133H213Q205 133 202 136T198 149Q198 180 204 212T220 268Q231 292 246 317T283 365Q314 400 335 440T357 518Q357 565 326 590T251 615Q213
615 183 609T117 588Q96 578 96 595V678Q96 688 107 692Q124 698 144 703T185 712T226 718T261 720Q305 720 343 706T408 667T451 609T467 535Q467 487 457 455T430 400ZM246 -58Q219 -58 201 -39T182 7Q182 33 200 52T246 72Q273 72 292 53T312 7Q312 -20 293
-39T246 -58Z" />
<glyph unicode="@" horiz-adv-x="872" d="M734 173Q696 134 654 115T567 96Q538 96 516 113T491 155Q465 129 429 112T361 94Q324 94 296 107T248 143T218 196T208 261Q208 315 227 366T280 457T359 521T458 546Q492 546 522 531T567 487L578 530H668Q626 577
564 602T438 628Q376 628 323 605T231 540T170 445T148 329Q148 263 171 207T233 111T326 47T439 24Q523 24 581 46T684 116H803Q753 28 658 -21T438 -71Q354 -71 281 -41T155 44T70 170T39 327Q39 405 65 474T143 600Q196 659 271 691T438 724Q520 724 591 698T716
627T799 520T830 388Q830 324 805 272T734 173ZM458 452Q427 452 402 433T359 386T332 326T323 267Q324 226 339 209T374 192Q405 192 432 211T478 260T508 322T519 384Q519 421 505 436T458 452ZM724 388Q724 425 712 457T680 516Q651 425 629 358T592 247Q590
241 588 234T586 221T587 211T594 206Q616 206 634 213T673 251Q693 280 708 313T724 388Z" />
<glyph unicode="A" horiz-adv-x="727" d="M617 -50Q610 -50 607 -49T601 -40L529 140H203L131 -40Q129 -47 126 -48T116 -50H24Q6 -50 12 -36L304 693Q307 701 308 702T320 704H413Q422 704 424 703T429 693L721 -36Q726 -50 709 -50H617ZM244 245H487L366 553L244 245Z" />
<glyph unicode="B" horiz-adv-x="606" d="M102 -50Q90 -50 90 -40V690Q90 704 102 704H275Q389 704 452 657T516 513Q516 453 492 411T422 344Q451 333 472 315T508 274T530 226T537 175Q537 62 463 6T249 -50H102ZM204 598V395H258Q337 395 370 425T403 504Q403
546 374 572T275 598H204ZM202 287V57H251Q347 57 385 87T424 171Q424 225 382 256T240 287H202Z" />
<glyph unicode="C" horiz-adv-x="672" d="M606 -42Q577 -50 536 -57T441 -64Q356 -64 287 -36T168 43T92 167T65 327Q65 414 91 486T167 609T285 689T441 718Q486 718 529 714T607 698Q618 695 620 691T621 676L619 602Q619 586 614 586T597 590Q522 613 441 613Q379
613 331 592T249 533T198 443T180 327Q180 265 199 213T252 122T334 61T440 39Q492 39 528 43T596 59Q609 64 613 62T617 53L621 -18Q622 -29 620 -34T606 -42Z" />
<glyph unicode="D" horiz-adv-x="727" d="M533 36Q506 14 472 -2T399 -28T318 -44T235 -50H113Q96 -50 93 -46T89 -27V678Q89 697 92 700T115 704H285Q480 704 575 594Q617 546 637 483T658 329Q658 236 626 160T533 36ZM489 519Q425 598 283 598H205V57H250Q308
57 359 71T449 118Q494 152 518 205T543 333Q543 393 530 439T489 519Z" />
<glyph unicode="E" horiz-adv-x="576" d="M125 -51Q105 -51 101 -48T97 -22V677Q97 697 100 700T123 704H478Q489 704 491 701T493 688V614Q493 604 490 601T478 597H207V393H465Q480 393 480 377V302Q480 285 465 285H207V57H490Q504 57 504 40V-35Q504 -51 490
-51H125Z" />
<glyph unicode="F" horiz-adv-x="503" d="M198 598V391H446Q459 391 459 379V298Q459 286 446 286H198V-35Q198 -50 184 -50H102Q87 -50 87 -35V686Q87 697 91 700T103 704H460Q465 704 468 701T472 692V612Q472 598 460 598H198Z" />
<glyph unicode="G" horiz-adv-x="797" d="M678 -27Q660 -36 634 -42T578 -54T516 -61T456 -64Q373 -64 303 -38T181 38T101 161T72 327Q72 412 99 483T176 607T297 688T457 717Q517 717 564 711T653 691Q664 688 666 685T667 677L655 592Q654 585 650 582T635
583Q588 598 546 604T456 611Q396 611 347 591T263 533T209 443T189 327Q189 258 208 205T263 115T348 60T456 41Q501 41 534 45T583 57V258H418Q412 258 409 261T405 270V350Q405 356 409 360T419 364H675Q690 364 694 359T698 339V9Q698 -6 692 -14T678 -27Z"
/>
<glyph unicode="H" horiz-adv-x="727" d="M109 -50Q104 -50 101 -47T97 -38V692Q97 697 100 700T109 704H198Q203 704 206 701T210 692V392H520V692Q520 697 523 700T532 704H621Q626 704 629 701T633 692V-38Q633 -43 630 -46T621 -50H532Q520 -50 520 -38V287H210V-38Q210
-50 198 -50H109Z" />
<glyph unicode="I" horiz-adv-x="242" d="M188 -50T175 -50H84Q71 -50 71 -37V691Q71 704 84 704H175Q188 704 188 691V-37Q188 -50 175 -50Z" />
<glyph unicode="J" horiz-adv-x="363" d="M250 1Q228 -31 189 -45T108 -59Q93 -59 73 -58T41 -54Q21 -49 21 -35V39Q21 43 21 47T23 53Q25 55 28 55T38 53Q52 48 70 47T101 46Q132 46 150 69T169 155V692Q169 697 173 700T182 704H271Q276 704 280 701T284 692V160Q284
113 276 71T250 1Z" />
<glyph unicode="K" horiz-adv-x="641" d="M503 -49Q492 -49 488 -47T477 -36L261 283L195 201V-38Q195 -50 183 -50H94Q82 -50 82 -38V692Q82 704 94 704H183Q195 704 195 692V374L452 690Q459 700 467 700H576Q587 700 588 697T583 686L334 373L612 -36Q621 -49
604 -49H503Z" />
<glyph unicode="L" horiz-adv-x="484" d="M100 -50Q95 -50 92 -47T88 -38V692Q88 697 91 700T100 704H190Q195 704 198 701T202 692V55H461Q473 55 473 42V-38Q473 -43 470 -46T461 -50H100Z" />
<glyph unicode="M" horiz-adv-x="969" d="M767 -50Q759 -50 757 -48T755 -39V504L538 -37Q536 -42 534 -43T521 -44H441Q431 -44 429 -43T424 -37L207 504V-39Q207 -45 205 -47T195 -50H102Q90 -50 90 -39V683Q90 697 93 700T112 704H231Q238 704 239 702T244
692L481 104L718 692Q721 699 722 701T731 704H850Q866 704 869 701T872 683V-39Q872 -50 860 -50H767Z" />
<glyph unicode="N" horiz-adv-x="727" d="M536 -50Q528 -50 524 -47T514 -34L200 506V-34Q200 -44 197 -47T184 -50H101Q93 -50 89 -47T85 -34V687Q85 699 89 702T104 706H196Q204 706 208 704T218 690L532 151V690Q532 700 535 703T548 706H631Q641 706 643 703T646
690V-31Q646 -43 643 -46T628 -50H536Z" />
<glyph unicode="O" horiz-adv-x="787" d="M647 45Q602 -12 539 -39T396 -67Q308 -67 245 -36T141 50T81 175T61 327Q61 405 81 476T142 602T246 688T396 720Q481 720 544 688T648 601T710 476T730 327Q729 239 709 169T647 45ZM396 613Q338 613 297 588T229 522T190
430T177 327Q177 276 189 225T228 132T296 66T396 40Q454 40 495 65T563 132T601 224T614 327Q614 377 602 428T564 520T496 587T396 613Z" />
<glyph unicode="P" horiz-adv-x="577" d="M210 256V-37Q210 -50 197 -50H108Q96 -50 96 -37V692Q96 697 99 700T108 704H310Q421 704 485 650T550 482Q550 427 532 385T480 314T401 271T301 256H210ZM210 599V360H291Q358 360 397 388T436 483Q436 540 405 569T324
599H210Z" />
<glyph unicode="Q" horiz-adv-x="787" d="M589 -190Q575 -190 571 -189T561 -181L447 -65Q435 -67 423 -68T396 -69Q314 -69 252 -41T147 39T83 163T61 325Q61 406 79 475T140 598Q185 657 251 688T396 719Q480 719 542 688T651 598Q690 548 709 484T731 353T720
220T678 100Q668 80 654 61T624 26T591 -4T559 -25L700 -166Q713 -180 709 -185T691 -190H589ZM560 522Q531 566 490 589T396 612Q337 612 296 587T228 520T190 427T177 325Q177 272 189 221T229 130T298 64T398 39Q449 39 489 61T556 121T599 212T614 325Q614
379 601 430T560 522Z" />
<glyph unicode="R" horiz-adv-x="622" d="M501 -50Q490 -50 486 -49T476 -40L323 256H209V-37Q209 -50 196 -50H107Q95 -50 95 -37V692Q95 697 98 700T107 704H309Q420 704 485 650T550 482Q550 409 518 359T430 282L597 -36Q605 -50 585 -50H501ZM209 599V360H291Q357
360 396 388T435 483Q435 540 405 569T323 599H209Z" />
<glyph unicode="S" horiz-adv-x="545" d="M435 4Q409 -24 369 -43T283 -67Q259 -69 230 -67T173 -61T123 -51T90 -40Q75 -33 72 -30T71 -15L78 59Q79 67 83 69T98 66Q110 61 132 55T181 44T235 38T285 42Q314 49 332 60T360 87T375 121T379 160Q379 179 355 212T284
272Q228 305 187 333T120 390T80 448T67 514Q67 555 84 592T132 658T205 702T299 719Q351 719 384 713T442 697Q453 693 455 689T456 677L443 613Q441 602 437 598T421 598Q406 603 388 607T351 615T315 619T283 618Q227 609 205 582T182 512Q182 487 208 457T284
396Q347 358 387 328T451 271T484 215T494 154Q494 66 435 4Z" />
<glyph unicode="T" horiz-adv-x="545" d="M334 599V-38Q334 -50 322 -50H233Q221 -50 221 -38V599H27Q22 599 19 602T15 612V692Q15 697 18 700T27 704H529Q534 704 537 701T541 692V612Q541 599 529 599H334Z" />
<glyph unicode="U" horiz-adv-x="727" d="M547 -9Q510 -38 465 -52T366 -67Q262 -67 186 -9Q136 29 114 86T91 219V690Q91 695 94 700T103 705H192Q197 705 200 701T204 692V219Q204 141 245 91T366 41Q448 41 488 90T529 219V692Q529 697 532 701T541 705H630Q635
705 638 700T642 690V219Q642 145 619 87T547 -9Z" />
<glyph unicode="V" horiz-adv-x="666" d="M393 -47T390 -48T380 -50H293Q286 -50 283 -49T277 -39L4 690Q2 697 4 700T20 704H106Q114 704 117 703T122 694L335 112L550 694Q553 701 556 702T567 704H653Q666 704 668 701T669 690L396 -39Q393 -47 390 -48Z" />
<glyph unicode="W" horiz-adv-x="1029" d="M806 -47T803 -48T792 -50H697Q689 -50 686 -49T681 -39L515 529L349 -39Q347 -47 345 -48T333 -50H238Q230 -50 227 -49T222 -39L11 690Q9 697 11 700T26 704H109Q116 704 119 703T124 694L290 131L452 694Q454 701
457 702T468 704H562Q569 704 572 703T578 694L740 131L906 694Q908 701 911 702T921 704H1004Q1017 704 1019 701T1019 690L808 -39Q806 -47 803 -48Z" />
<glyph unicode="X" horiz-adv-x="666" d="M544 -50Q533 -50 529 -43L338 244L146 -43Q142 -50 131 -50H24Q12 -50 21 -37L273 340L39 692Q36 697 38 700T48 704H149Q160 704 163 698L337 437L512 698Q515 704 526 704H627Q635 704 637 701T636 692L402 340L654
-37Q663 -50 651 -50H544Z" />
<glyph unicode="Y" horiz-adv-x="666" d="M393 -38Q393 -50 381 -50H292Q280 -50 280 -38V264L16 691Q9 704 25 704H126Q136 704 139 698L337 377L536 698Q539 704 549 704H650Q666 704 659 691L393 263V-38Z" />
<glyph unicode="Z" horiz-adv-x="545" d="M38 -50Q33 -50 30 -47T26 -38V32Q26 36 28 41T33 51L367 599H48Q35 599 35 612V692Q35 697 39 700T48 704H493Q498 704 502 701T506 692V620Q506 618 504 612T500 604L165 55H508Q520 55 520 42V-38Q520 -43 517 -46T508
-50H38Z" />
<glyph unicode="[" horiz-adv-x="363" d="M128 -186Q123 -186 120 -182T116 -173V778Q116 783 119 787T128 791H298Q304 791 307 787T311 778V704Q311 692 298 692H223V-87H298Q311 -87 311 -99V-173Q311 -178 308 -182T298 -186H128Z" />
<glyph unicode="\" horiz-adv-x="966" d="M790 308L710 -48Q708 -55 706 -56T695 -58H616Q605 -58 604 -57T600 -48L519 308H445L364 -48Q362 -55 361 -56T348 -58H269Q260 -58 258 -57T254 -48L174 308H56Q51 308 47 311T43 320V389Q43 394 47 397T56 401H154L98
647Q96 654 98 657T113 661H188Q195 661 198 660T203 651L258 401H369L426 651Q428 658 430 659T440 661H524Q531 661 533 660T538 651L595 401H706L761 651Q763 658 766 659T776 661H851Q864 661 866 658T866 647L810 401H907Q920 401 920 389V320Q920 315 916
312T907 308H790ZM467 401H497L482 469L467 401ZM652 153L686 308H617L652 153ZM312 153L347 308H278L312 153Z" />
<glyph unicode="]" horiz-adv-x="363" d="M64 -186Q59 -186 56 -182T52 -173V-99Q52 -87 64 -87H140V692H64Q52 692 52 704V778Q52 783 55 787T64 791H235Q240 791 243 787T247 778V-173Q247 -178 244 -182T235 -186H64Z" />
<glyph unicode="^" horiz-adv-x="654" d="M504 233Q497 233 495 234T488 244L328 567L167 244Q163 236 161 235T151 233H66Q43 233 51 248L278 693Q280 698 282 700T293 702H363Q370 702 372 701T378 693L604 248Q612 233 589 233H504Z" />
<glyph unicode="_" horiz-adv-x="545" d="M12 -178Q7 -178 4 -175T0 -166V-86Q0 -81 3 -78T12 -74H534Q539 -74 542 -77T546 -86V-166Q546 -171 543 -174T534 -178H12Z" />
<glyph unicode="`" horiz-adv-x="242" d="M147 562Q139 562 134 563T123 572L1 702Q-4 708 -2 713T7 719H124Q132 719 134 718T142 708L232 573Q239 562 229 562H147Z" />
<glyph unicode="a" horiz-adv-x="545" d="M385 -49Q378 -49 376 -48T374 -40V5Q349 -30 311 -47T233 -65Q192 -65 158 -54T99 -21T60 33T46 109Q46 160 64 198T120 262T219 300T364 313Q364 332 360 351T347 385T320 409T277 419Q232 419 196 407T127 375Q111
365 106 366T100 377V453Q100 457 100 461T101 469Q104 473 116 480Q150 497 185 508T275 519Q376 519 424 470T473 316V79Q473 51 473 21T477 -33Q479 -49 466 -49H385ZM256 218T208 191T160 110Q160 72 182 53T241 34Q298 34 332 76T367 207V218Q256 218 208
191Z" />
<glyph unicode="b" horiz-adv-x="606" d="M327 -64Q287 -64 248 -45T189 2V-36Q189 -52 174 -52H98Q82 -52 82 -36V751Q82 764 95 764H177Q184 764 186 762T189 751V466Q216 495 251 511T327 527Q380 527 422 506T494 447T540 355T556 233Q556 164 541 109T496
16T424 -43T327 -64ZM316 425Q256 425 223 378T189 233Q189 186 199 150T226 88T267 50T316 37Q376 37 410 86T444 233Q444 324 411 374T316 425Z" />
<glyph unicode="c" horiz-adv-x="484" d="M448 -48Q437 -52 421 -55T387 -60T348 -62T308 -62Q245 -58 197 -35T115 27T66 116T49 228Q49 291 69 344T125 435T213 495T327 516Q358 516 389 513T451 499Q455 498 457 495T458 483L449 414Q448 407 445 404T432 403Q410
411 381 414T325 417Q244 417 202 365T160 228Q160 146 199 96T314 37Q383 29 437 46Q447 50 449 47T453 38L458 -31Q459 -39 458 -42T448 -48Z" />
<glyph unicode="d" horiz-adv-x="606" d="M439 -52Q424 -52 424 -36V2Q404 -26 365 -45T286 -64Q232 -64 190 -44T118 15T73 109T57 233Q57 300 73 354T118 447T190 506T286 527Q326 527 361 511T424 466V751Q424 759 426 761T436 764H518Q531 764 531 751V-36Q531
-44 526 -48T515 -52H439ZM297 425Q235 425 202 375T169 233Q169 135 203 86T297 37Q323 37 346 50T386 88T414 149T424 233Q424 330 391 377T297 425Z" />
<glyph unicode="e" horiz-adv-x="545" d="M505 202Q505 194 501 190T491 186H162Q167 119 204 77T305 34Q338 34 380 42T457 72Q464 76 466 71T468 58V-11Q468 -20 465 -25T453 -35Q423 -51 383 -58T300 -65Q176 -65 113 9T49 228Q49 282 63 334T105 427T178 493T282
518Q343 518 385 495T455 433T494 342T506 231Q506 224 506 215T505 202ZM286 422Q259 422 238 410T202 379T178 335T164 285H393Q393 305 387 329T367 373T334 408T286 422Z" />
<glyph unicode="f" horiz-adv-x="363" d="M346 669T337 671Q325 674 312 676T287 679Q262 679 251 667T235 635Q233 625 231 608T229 570V503H325Q337 503 337 491V414Q337 409 334 406T325 402H229V-39Q229 -51 217 -51H135Q123 -51 123 -39V402H39Q34 402 31
405T27 414V491Q27 496 30 499T39 503H122V563Q122 611 128 650T153 719Q169 744 198 760T273 777Q293 777 312 775T343 768Q350 764 350 754L346 686Q346 669 337 671Z" />
<glyph unicode="g" horiz-adv-x="606" d="M273 -205Q233 -205 194 -200T117 -180Q108 -175 105 -172T101 -162L106 -81Q108 -62 126 -71Q160 -88 199 -96T274 -105Q339 -105 377 -71T419 22Q393 -6 358 -20T289 -34Q239 -34 196 -15T122 39T74 122T56 227Q56 375
115 446T286 517Q306 517 326 512T366 499T401 481T429 458L428 493Q427 501 429 504T441 507H520Q532 507 532 492V79Q532 -56 466 -130T273 -205ZM298 419Q235 419 202 373T168 227Q168 189 178 159T205 109T245 77T293 66Q321 66 345 77T387 109T415 160T426
229Q426 320 392 369T298 419Z" />
<glyph unicode="h" horiz-adv-x="606" d="M431 -51Q418 -51 418 -39V282Q418 357 397 391T328 426Q223 426 195 346V-39Q195 -51 183 -51H101Q96 -51 93 -48T89 -39V749Q89 754 92 757T101 761H183Q188 761 191 758T195 749V480Q220 501 253 514T327 528Q525 528
525 283V-39Q525 -44 522 -47T513 -51H431Z" />
<glyph unicode="i" horiz-adv-x="242" d="M127 609Q98 609 79 628T59 676Q59 705 78 725T127 745Q156 745 176 725T196 676Q196 648 176 629T127 609ZM84 -51Q79 -51 76 -48T72 -39V488Q72 493 75 496T84 500H168Q173 500 176 497T180 488V-39Q180 -44 177 -47T168
-51H84Z" />
<glyph unicode="j" horiz-adv-x="269" d="M150 611Q121 611 102 630T82 678Q82 707 101 726T150 746Q178 746 198 727T219 678Q219 649 199 630T150 611ZM177 -148Q162 -177 135 -192T72 -207Q52 -207 40 -207T16 -202Q7 -198 7 -188V-124Q7 -115 19 -115Q49 -120
68 -113T91 -87Q93 -78 94 -52T95 6V489Q95 502 107 502H191Q202 502 202 489V3Q202 -45 197 -84T177 -148Z" />
<glyph unicode="k" horiz-adv-x="520" d="M407 -51Q396 -51 392 -49T382 -38L222 191L175 137V-39Q175 -51 162 -51H81Q76 -51 73 -48T69 -39V749Q69 754 72 757T81 761H162Q168 761 171 758T175 749V290L365 494Q373 503 381 503H480Q499 503 486 489L291 272L508
-38Q518 -51 501 -51H407Z" />
<glyph unicode="l" horiz-adv-x="242" d="M85 -51Q74 -51 74 -39V749Q74 754 77 757T86 761H170Q175 761 178 758T182 749V-39Q182 -44 179 -47T170 -51H85Z" />
<glyph unicode="m" horiz-adv-x="908" d="M734 -49Q729 -49 725 -45T721 -35V311Q721 358 699 387T635 417Q605 417 582 405T542 371T518 319T509 254V-36Q509 -49 497 -49H414Q409 -49 405 -45T401 -35V311Q401 417 313 417Q257 417 226 383T194 289V-36Q194
-49 182 -49H99Q94 -49 91 -45T87 -35V363Q87 401 86 436T83 491Q81 504 97 504H182Q191 504 191 496L190 461Q210 484 245 500T319 516Q371 516 414 492T476 421Q499 469 544 492T640 516Q725 516 777 466T829 324V-36Q829 -41 826 -45T817 -49H734Z" />
<glyph unicode="n" horiz-adv-x="606" d="M430 -49Q425 -49 422 -45T418 -35V283Q418 355 396 387T325 419Q259 419 228 383T196 277V-36Q196 -49 184 -49H101Q96 -49 93 -45T89 -35V363Q89 401 89 436T86 491Q84 504 100 504H179Q190 504 188 496L187 460Q212
484 247 501T328 518Q424 518 474 462T525 298V-36Q525 -49 513 -49H430Z" />
<glyph unicode="o" horiz-adv-x="606" d="M506 27Q470 -18 420 -41T307 -65Q243 -65 194 -42T112 21T63 114T46 227Q46 287 62 340T112 432T193 495T307 518Q371 518 420 495T502 433T551 340T568 227Q568 168 552 117T506 27ZM307 420Q268 420 240 403T193 359T166
297T157 227Q157 192 166 158T193 95T239 50T307 33Q346 33 374 50T421 95T448 157T457 227Q457 261 448 295T421 357T375 402T307 420Z" />
<glyph unicode="p" horiz-adv-x="606" d="M322 -74Q282 -74 245 -57T183 -11V-189Q183 -197 181 -199T172 -202H89Q83 -202 80 -200T77 -189V489Q77 505 92 505H169Q183 505 183 489V453Q211 482 246 498T322 514Q376 514 418 494T490 435T535 342T551 218Q551
151 535 97T490 5T418 -53T322 -74ZM311 412Q285 412 262 400T222 363T194 302T183 219Q183 121 218 74T311 27Q373 27 406 77T439 219Q439 316 405 364T311 412Z" />
<glyph unicode="q" horiz-adv-x="606" d="M437 -202Q430 -202 428 -200T425 -189V-11Q400 -40 364 -57T287 -74Q234 -74 192 -54T120 5T74 97T58 218Q58 287 73 342T118 435T190 493T287 514Q328 514 362 498T425 453V489Q425 505 440 505H516Q522 505 527 502T532
489V-189Q532 -197 529 -199T519 -202H437ZM297 412Q237 412 204 364T170 219Q170 127 203 77T297 27Q356 27 390 74T425 219Q425 266 415 302T388 362T347 399T297 412Z" />
<glyph unicode="r" horiz-adv-x="363" d="M350 403Q330 408 315 409T289 409Q259 403 241 384T213 338T200 282T197 225V-35Q197 -49 185 -49H102Q91 -49 91 -34V369Q91 401 90 433T89 489Q89 498 92 500T102 503H185Q192 503 193 501T194 494V450Q201 462 212
474T237 495T265 510T291 516Q310 516 325 516T358 505Q363 503 364 499T365 490V415Q365 411 362 406T350 403Z" />
<glyph unicode="s" horiz-adv-x="424" d="M328 -29Q274 -65 200 -65Q180 -65 158 -63T116 -58T79 -51T54 -43Q50 -41 46 -38T42 -26L48 39Q49 49 51 51T64 50Q97 40 132 36T196 31Q240 31 261 53T283 104Q283 120 272 136T235 170Q208 186 179 202T122 235Q90
254 69 285T47 355Q47 397 62 427T102 478T159 508T228 518Q247 518 267 516T307 511T342 503T366 493Q371 490 371 488T371 480L365 416Q364 405 360 404T345 404Q326 411 302 417Q288 419 273 421T234 423Q193 423 176 404T159 358Q159 342 178 324T226 291Q257
276 283 260T323 234Q359 208 377 178T395 104Q395 20 328 -29Z" />
<glyph unicode="t" horiz-adv-x="363" d="M356 -41Q342 -50 312 -57T246 -65Q204 -65 179 -48T142 -7Q128 19 125 54T122 149V400H39Q34 400 31 403T27 412V491Q27 496 30 499T39 503H122V643Q122 648 126 651T135 655H216Q222 655 225 652T229 643V503H325Q330
503 333 500T337 491V412Q337 407 334 404T325 400H229V142Q229 74 232 56Q236 38 251 34T285 32Q298 34 314 37T342 46Q347 48 349 47T353 37L361 -29Q362 -36 356 -41Z" />
<glyph unicode="u" horiz-adv-x="606" d="M435 -49Q430 -49 427 -47T424 -39V1Q398 -31 361 -48T282 -65Q185 -65 137 -8T89 155V490Q89 495 92 499T101 504H183Q188 504 192 499T196 489V171Q196 96 220 65T293 34Q347 34 382 75T418 197V490Q418 495 421 499T430
504H513Q518 504 521 499T525 488V80Q525 49 526 19T527 -36Q527 -49 516 -49H435Z" />
<glyph unicode="v" horiz-adv-x="484" d="M298 -45T296 -46T288 -48H202Q196 -48 194 -47T189 -39L7 492Q5 497 7 500T20 503H107Q112 503 115 502T120 495L245 118L369 495Q371 500 374 501T383 503H471Q482 503 484 500T484 492L300 -39Q298 -45 296 -46Z" />
<glyph unicode="w" horiz-adv-x="848" d="M665 -45T663 -46T655 -48H562Q557 -48 555 -47T549 -39L425 337L300 -39Q297 -45 294 -46T286 -48H194Q190 -48 187 -47T182 -39L4 492Q2 497 3 500T16 503H103Q109 503 111 502T116 495L240 104L366 495Q368 503 378
503H471Q481 503 483 495L609 104L733 495Q735 503 745 503H834Q844 503 846 500T846 492L667 -39Q665 -45 663 -46Z" />
<glyph unicode="x" horiz-adv-x="510" d="M393 -47Q382 -47 378 -41L255 149L132 -41Q127 -47 117 -47H14Q2 -47 11 -35L193 241L29 491Q25 496 27 499T37 503H137Q145 503 149 497L255 333L361 497Q365 503 373 503H473Q481 503 483 500T481 491L317 241L499
-35Q508 -47 496 -47H393Z" />
<glyph unicode="y" horiz-adv-x="464" d="M235 -144T200 -174T110 -204Q90 -204 72 -202T42 -194Q37 -192 34 -189T32 -179L38 -113Q38 -100 49 -104Q64 -108 77 -109T101 -111Q118 -111 128 -106T144 -93Q147 -87 152 -76T164 -52T175 -23T185 8L14 493Q9 505
22 505H115Q125 505 127 500L238 169L351 500Q353 505 363 505H456Q469 505 464 493L261 -71Q235 -144 200 -174Z" />
<glyph unicode="z" horiz-adv-x="484" d="M49 -47Q44 -47 41 -44T37 -35V39Q37 46 42 53L315 402H62Q57 402 54 406T50 415V492Q50 497 53 500T62 504H443Q448 504 451 501T455 492V418Q455 412 448 402L170 55H445Q457 55 457 42V-35Q457 -40 454 -43T445 -47H49Z" />
<glyph unicode="{" horiz-adv-x="303" d="M239 705Q228 705 218 683T208 619V449Q208 398 192 363T142 303Q175 277 191 243T208 157V-14Q208 -55 218 -77T239 -99H285Q295 -99 295 -111V-172Q295 -184 285 -184H232Q213 -184 200 -180Q175 -174 158 -159T129
-124T113 -81T108 -34V140Q108 167 105 186T96 219T85 240T74 253Q68 259 61 262T45 271Q42 273 40 275T37 282V324Q37 329 39 331T45 335Q53 339 60 342T74 352Q79 357 85 365T96 387T104 419T108 466V639Q108 662 113 685T129 729T157 764T200 785Q213 789 232
789H285Q295 789 295 778V717Q295 705 285 705H239Z" />
<glyph unicode="|" horiz-adv-x="242" d="M186 -160T173 -160H84Q71 -160 71 -147V747Q71 760 84 760H173Q186 760 186 747V-147Q186 -160 173 -160Z" />
<glyph unicode="}" horiz-adv-x="303" d="M257 271Q249 266 242 263T228 253Q223 248 217 240T206 219T198 187T194 140V-34Q194 -57 189 -80T173 -124T145 -159T102 -180Q89 -184 70 -184H17Q7 -184 7 -172V-111Q7 -99 17 -99H63Q74 -99 84 -77T94 -14V157Q94
208 110 242T159 303Q127 328 110 363T93 449V619Q93 660 84 682T63 705H17Q7 705 7 717V778Q7 789 17 789H69Q89 789 101 785Q126 779 143 765T172 730T188 686T193 639V466Q193 439 196 420T205 387T217 366T228 352Q233 347 241 343T257 335Q260 333 262 331T265
324V282Q265 275 257 271Z" />
<glyph unicode="~" horiz-adv-x="654" d="M435 240Q414 240 382 249T318 273Q279 290 257 296T223 302Q212 302 200 296T177 281T155 262T137 241Q127 225 119 239L84 295Q76 309 78 313Q80 318 85 325T99 342Q125 373 154 387T224 402Q245 402 267 396T313 382Q335
374 356 366T398 349Q426 339 436 339Q457 339 482 359T527 406Q531 412 534 411T540 406L584 342Q586 338 587 336T584 327Q559 282 520 261T435 240Z" />
<glyph unicode="&#xa0;" horiz-adv-x="280" />
<glyph unicode="&#xa1;" horiz-adv-x="302" d="M104 502Q104 516 106 519T122 522H185Q197 522 199 520T202 502L216 -25Q217 -46 214 -50T197 -55H109Q95 -55 92 -51T89 -25L104 502ZM223 651Q223 621 203 601T153 580Q123 580 103 600T82 651Q82 681 102 701T153
722Q183 722 203 702T223 651Z" />
<glyph unicode="&#xa2;" horiz-adv-x="940" d="M561 543Q528 560 481 560Q441 560 408 544T351 497T314 422T301 321Q301 186 367 123L561 543ZM736 243Q730 178 709 131T654 53T576 6T480 -9Q432 -9 393 4L343 -105L277 -71L327 36Q267 78 235 151T203 321Q203
392 223 452T279 557T367 625T481 650Q546 650 599 626L644 723L710 695L659 585Q686 559 703 524T727 442H631Q625 470 615 488L432 88Q454 82 480 82Q552 82 591 120T639 243H736Z" />
<glyph unicode="&#xa3;" horiz-adv-x="940" d="M367 87Q355 96 343 101T314 106Q300 106 289 96T278 69Q278 53 288 42T315 30Q335 30 347 46T367 87ZM753 116Q743 74 731 44T702 -7T659 -37T598 -47Q566 -47 529 -28T444 29Q427 -6 396 -28T314 -50Q258 -50 222
-19T186 68Q186 94 196 116T223 153T264 177T314 186Q343 186 370 175Q368 200 364 222T352 267H215V341H330Q318 373 309 405T299 473Q299 566 351 617T503 669Q547 669 583 655T646 615T686 553T700 473H594Q594 533 570 558T503 584Q455 584 428 557T400 479Q400
447 408 415T431 341H706V267H452Q461 228 465 193T466 126Q483 112 501 98T537 73T570 55T598 48Q611 48 620 52T637 66T649 96T661 146L753 116Z" />
<glyph unicode="&#xa4;" horiz-adv-x="838" d="M654 300Q654 351 635 395T584 471T507 523T412 542Q361 542 317 523T241 472T189 395T170 300Q170 249 189 205T240 129T317 77T412 58Q463 58 507 77T583 128T635 205T654 300ZM818 588L687 472Q710 434 723 391T736
300Q736 249 721 203T679 118L817 -8L762 -72L623 55Q581 18 527 -3T412 -24Q355 -24 303 -6T209 47L76 -74L21 -10L150 108Q121 148 105 197T88 300Q88 349 101 394T139 478L20 586L81 646L197 542Q240 581 294 602T412 624Q477 624 533 601T633 536L758 648L818
588Z" />
<glyph unicode="&#xa5;" horiz-adv-x="940" d="M483 360H457L470 336L483 360ZM774 666L640 434H741V360H597L551 279H741V205H522V-42H418V205H199V279H389L342 360H199V434H299L166 666H286L415 434H524L654 666H774Z" />
<glyph unicode="&#xa7;" horiz-adv-x="346" d="M213 304Q184 346 167 363T128 381Q113 381 109 372T107 350T117 321T134 292Q160 252 176 235T209 218Q227 218 233 227T238 249T229 277T213 304ZM321 254Q321 173 260 154Q280 125 289 99T298 39Q298 -34 264
-70T166 -107Q106 -107 72 -78T37 15H125Q125 -18 136 -28T165 -39Q187 -39 196 -27T206 18Q206 82 152 133Q97 184 61 234T25 341Q25 389 43 415T93 448Q72 477 60 507T47 574Q47 711 174 711Q237 711 266 680T296 594H211Q211 629 199 639T170 649Q148 649 139
637T129 597Q129 559 148 531T203 468Q254 417 287 365T321 254Z" />
<glyph unicode="&#xa8;" horiz-adv-x="540" d="M64 658Q64 688 85 709T135 730Q165 730 186 709T207 658Q207 629 186 608T135 587Q106 587 85 608T64 658ZM332 658Q332 688 353 709T403 730Q433 730 454 709T475 658Q475 629 454 608T403 587Q374 587 353 608T332 658Z" />
<glyph unicode="&#xa9;" horiz-adv-x="855" d="M649 235Q641 178 622 138T575 73T510 37T430 26Q372 26 329 47T256 106T213 192T198 296Q198 353 213 402T257 488T329 546T430 567Q471 567 507 557T572 523T619 463T644 374H543Q535 424 505 448T430 472Q396
472 372 458T332 419T309 362T301 296Q301 260 308 228T331 172T371 134T430 120Q480 120 510 146T545 235H649ZM757 298Q757 369 733 429T665 532T562 600T431 625Q359 625 299 601T196 533T128 429T103 298Q103 227 127 167T195 64T299 -4T431 -29Q502 -29 561
-5T664 63T732 167T757 298ZM831 298Q831 211 801 138T718 12T591 -70T431 -100Q344 -100 271 -71T145 12T61 138T31 298Q31 385 61 458T144 584T271 666T431 696Q518 696 591 667T717 584T801 458T831 298Z" />
<glyph unicode="&#xaa;" horiz-adv-x="541" d="M309 551Q304 546 298 544T288 540Q258 534 240 528T211 516T197 502T193 485Q193 449 233 449Q274 449 291 466T309 510V551ZM441 261H100V339H441V261ZM411 402Q396 398 388 398T371 397Q353 397 342 403T322 424Q311
407 288 397T229 387Q181 387 152 410T123 485Q123 509 131 526T158 557T205 579T274 597Q287 599 298 606T309 629Q309 667 260 667Q234 667 219 656T204 619H135Q135 675 171 701T263 728Q288 728 309 723T345 706T369 674T378 624V469Q378 460 387 458Q392 457
397 458T411 462V402Z" />
<glyph unicode="&#xab;" horiz-adv-x="940" d="M614 2L571 -55L108 274V326L571 655L614 598L196 300L614 2ZM831 6L789 -50L325 274V326L789 650L831 594L414 300L831 6Z" />
<glyph unicode="&#xac;" horiz-adv-x="940" d="M901 -160H826V66H39V139H901V-160Z" />
<glyph unicode="&#xad;" horiz-adv-x="410" d="M353 264H57V360H353V264Z" />
<glyph unicode="&#xae;" horiz-adv-x="940" d="M470 -76Q303 -76 185 41T67 326Q67 493 185 611T470 729Q636 729 754 611T872 326Q872 159 754 42T470 -76ZM470 682Q323 682 219 578T114 326Q114 179 218 76T470 -28Q617 -28 721 75T825 326Q825 473 721 577T470
682ZM665 74H578L523 197Q480 290 431 290H384V74H313V586H457Q546 586 594 549T643 447Q643 394 609 357T514 307V305Q556 296 598 210L665 74ZM384 525V350H461Q567 350 567 438Q567 485 538 505T448 525H384Z" />
<glyph unicode="&#xb0;" horiz-adv-x="446" d="M281 614Q281 638 264 655T223 673Q199 673 182 656T165 614Q165 590 182 573T223 555Q247 555 264 572T281 614ZM349 614Q349 588 339 565T312 525T272 498T223 488Q197 488 174 498T134 525T107 565T97 614Q97
640 107 663T134 703T174 730T223 740Q249 740 272 730T312 703T339 663T349 614Z" />
<glyph unicode="&#xb1;" horiz-adv-x="567" d="M535 442T535 429V363Q535 350 522 350H330V155Q330 142 317 142H249Q236 142 236 155V350H46Q33 350 33 363V429Q33 442 46 442H236V636Q236 649 249 649H317Q330 649 330 636V442H522Q535 442 535 429ZM529 91T529
78V12Q529 -1 515 -1H52Q38 -1 38 12V78Q38 91 52 91H515Q529 91 529 78Z" />
<glyph unicode="&#xb2;" horiz-adv-x="410" d="M287 494H122Q124 541 145 566T198 611Q216 622 227 634T238 663Q238 688 210 688Q177 688 177 639H128Q128 686 150 710T208 734Q240 734 262 716T285 663Q285 645 279 632T263 609T240 589T212 570Q201 563 195
556T186 542H287V494Z" />
<glyph unicode="&#xb3;" horiz-adv-x="428" d="M296 567Q296 529 271 510T212 491Q194 491 179 495T153 508T136 534T130 575H178Q178 551 186 543T213 535Q247 535 247 566Q247 595 215 595H195V636H215Q226 636 233 644T240 664Q240 676 232 682T212 688Q182
688 182 652H134Q134 694 155 713T212 733Q242 733 265 718T288 666Q288 653 283 641T267 621Q280 616 288 602T296 567Z" />
<glyph unicode="&#xb4;" horiz-adv-x="324" d="M278 729L107 514H46L143 729H278Z" />
<glyph unicode="&#xb6;" horiz-adv-x="605" d="M533 -111H444V638H372V-111H283V297Q183 305 128 362T72 506Q72 551 87 589T130 656T201 700T300 716H533V-111Z" />
<glyph unicode="&#xb7;" horiz-adv-x="290" d="M220 333Q220 299 198 278T142 256Q109 256 87 277T65 333Q65 366 86 388T141 410Q174 410 197 388T220 333Z" />
<glyph unicode="&#xb8;" horiz-adv-x="317" d="M265 -101Q265 -140 235 -169T150 -199Q127 -199 101 -189T52 -161L80 -115Q100 -129 114 -135T145 -141Q162 -141 176 -132T190 -107Q190 -91 181 -82T155 -72Q133 -72 117 -92L86 -74L134 33H200L180 -19H190Q225
-19 245 -42T265 -101Z" />
<glyph unicode="&#xb9;" horiz-adv-x="405" d="M241 496H192V641H151V684Q164 685 172 687T185 694T193 707T198 730H241V496Z" />
<glyph unicode="&#xba;" horiz-adv-x="541" d="M346 556Q346 610 326 636T269 663Q233 663 213 637T192 556Q192 502 212 476T269 449Q305 449 325 475T346 556ZM441 261H100V339H441V261ZM417 556Q417 514 406 482T376 429T329 397T269 386Q204 386 163 429T121
556Q121 640 162 683T269 726Q301 726 328 715T375 683T406 630T417 556Z" />
<glyph unicode="&#xbb;" horiz-adv-x="940" d="M614 274L150 -50L108 6L525 300L108 594L150 650L614 326V274ZM831 274L368 -55L325 2L743 300L325 598L368 655L831 326V274Z" />
<glyph unicode="&#xbc;" horiz-adv-x="737" d="M533 51V137L470 51H533ZM659 -21H605V-103H533V-21H385V38L545 258H605V51H659V-21ZM661 563L125 -2L76 43L614 603L661 563ZM240 347H165V570H102V636Q122 637 134 640T154 650T166 671T173 707H240V347Z" />
<glyph unicode="&#xbd;" horiz-adv-x="705" d="M646 -107H391Q392 -71 402 -45T427 2T464 37T508 68Q537 85 554 101T571 144Q571 183 527 183Q476 183 476 107H400Q400 179 434 216T524 254Q574 254 608 227T643 144Q643 117 634 98T609 62T573 33T530 5Q513
-6 504 -15T490 -34H646V-107ZM645 564L109 -1L59 44L597 604L645 564ZM228 347H153V570H89V636Q109 637 121 640T141 650T153 671T160 707H228V347Z" />
<glyph unicode="&#xbe;" horiz-adv-x="746" d="M534 49L535 135L471 49H534ZM661 -23H607V-105H535V-23H386V36L546 256H606V49H661V-23ZM676 563L140 -2L90 43L628 603L676 563ZM325 458Q325 429 315 407T287 371T246 350T197 343Q169 343 146 349T106 370T80
410T70 473H143Q143 436 156 423T197 410Q222 410 236 421T250 456Q250 503 201 503H170V566H200Q217 566 228 575T239 603Q239 621 227 630T196 640Q150 640 150 581H76Q76 644 109 676T195 709Q218 709 239 703T277 685T303 653T313 606Q313 586 306 569T280
540Q300 532 312 511T325 458Z" />
<glyph unicode="&#xbf;" horiz-adv-x="540" d="M119 266Q146 302 170 336T209 391Q226 416 235 446T244 514Q244 532 262 532H342Q350 532 354 529T358 516Q358 485 352 452T335 396Q324 373 309 348T273 300Q242 265 221 225T200 148Q200 100 229 76T300 51Q338
51 368 57T434 79Q443 83 449 82T456 70V-12Q456 -22 445 -27Q410 -39 367 -47T291 -55Q247 -55 209 -41T142 -2T98 57T82 131Q82 179 92 210T119 266ZM371 657Q371 630 352 611T306 591Q278 591 259 610T239 657Q239 685 258 704T306 723Q333 723 352 704T371
657Z" />
<glyph unicode="&#xc0;" horiz-adv-x="672" d="M547 -49Q540 -49 537 -48T531 -39L459 141H213L141 -39Q139 -46 136 -47T126 -49H34Q16 -49 22 -35L274 603Q277 611 278 612T290 614H383Q392 614 394 613T399 603L651 -35Q656 -49 639 -49H547ZM417 246L336 463L254
246H417ZM389 671Q389 664 380 664H296Q288 664 284 667T273 679L190 776Q189 777 188 779T186 784Q186 791 197 791H293Q302 791 306 788T318 776L385 681Q389 676 389 671Z" />
<glyph unicode="&#xc1;" horiz-adv-x="672" d="M547 -49Q540 -49 537 -48T531 -39L459 141H213L141 -39Q139 -46 136 -47T126 -49H34Q16 -49 22 -35L274 603Q277 611 278 612T290 614H383Q392 614 394 613T399 603L651 -35Q656 -49 639 -49H547ZM417 246L336 463L254
246H417ZM285 671Q285 676 289 681L356 776Q363 784 367 787T381 791H477Q488 791 488 784Q488 780 484 776L401 679Q394 671 390 668T378 664H294Q285 664 285 671Z" />
<glyph unicode="&#xc2;" horiz-adv-x="672" d="M547 -49Q540 -49 537 -48T531 -39L459 141H213L141 -39Q139 -46 136 -47T126 -49H34Q16 -49 22 -35L274 603Q277 611 278 612T290 614H383Q392 614 394 613T399 603L651 -35Q656 -49 639 -49H547ZM417 246L336 463L254
246H417ZM492 671Q492 664 483 664H411Q403 664 399 667T388 679L336 736L283 679Q276 671 272 668T260 664H188Q179 664 179 671Q179 677 183 681L249 775Q256 783 260 786T273 790H398Q407 790 411 787T423 775L488 681Q492 677 492 671Z" />
<glyph unicode="&#xc6;" horiz-adv-x="865" d="M427 -51Q408 -51 405 -47T402 -23V128H218L169 -34Q167 -40 162 -44T151 -49H67Q50 -49 50 -33Q50 -27 51 -26L216 539Q223 562 234 576T260 599T289 611T318 614H789Q800 614 802 611T804 598V524Q804 514 801
511T789 507H518V343H776Q791 343 791 327V252Q791 235 776 235H518V57H801Q815 57 815 40V-35Q815 -51 801 -51H427ZM328 507Q314 507 308 490L244 233H402V507H328Z" />
<glyph unicode="&#xc7;" horiz-adv-x="569" d="M280 -19Q257 -15 233 -7Q142 19 91 91T40 279Q40 355 63 418T130 527T234 597T370 622Q409 622 446 619T515 604Q526 602 527 598T528 585L526 500Q526 486 522 486T507 490Q438 510 370 510Q261 510 211 451T161
279Q161 171 215 125T370 78Q415 78 447 82T507 96Q518 101 521 99T525 91L526 14Q527 4 525 0T513 -7Q500 -11 485 -14T452 -20Q419 -26 375 -26L364 -52Q372 -49 384 -48T407 -52T427 -71T435 -111Q435 -148 399 -173Q365 -198 318 -198Q290 -197 268 -189T232
-168L246 -131Q333 -151 338 -119Q341 -76 266 -110L253 -102L280 -19Z" />
<glyph unicode="&#xc8;" horiz-adv-x="527" d="M88 -51Q68 -51 64 -48T60 -22V587Q60 607 63 610T86 614H441Q452 614 454 611T456 598V524Q456 514 453 511T441 507H170V343H428Q443 343 443 327V252Q443 235 428 235H170V57H453Q467 57 467 40V-35Q467 -51 453
-51H88ZM337 671Q337 664 328 664H244Q236 664 232 667T221 679L138 776Q134 780 134 784Q134 791 145 791H241Q250 791 254 788T266 776L333 681Q337 677 337 671Z" />
<glyph unicode="&#xc9;" horiz-adv-x="527" d="M88 -51H453Q467 -51 467 -35V40Q467 57 453 57H170V235H428Q443 235 443 252V327Q443 343 428 343H170V507H441Q450 507 453 510T456 524V598Q456 607 454 610T441 614H86Q67 614 64 611T60 587V-22Q60 -44 64 -47T88
-51ZM189 671Q189 676 193 681L260 776Q267 784 271 787T285 791H381Q392 791 392 784Q392 780 388 776L305 679Q298 671 294 668T282 664H198Q189 664 189 671Z" />
<glyph unicode="&#xca;" horiz-adv-x="527" d="M88 -51Q68 -51 64 -48T60 -22V587Q60 607 63 610T86 614H441Q452 614 454 611T456 598V524Q456 514 453 511T441 507H170V343H428Q443 343 443 327V252Q443 235 428 235H170V57H453Q467 57 467 40V-35Q467 -51 453
-51H88ZM419 671Q419 664 410 664H338Q330 664 326 667T315 679L263 736L210 679Q203 671 199 668T187 664H115Q106 664 106 671Q106 677 110 681L176 775Q183 783 187 786T200 790H325Q334 790 338 787T350 775L415 681Q419 677 419 671Z" />
<glyph unicode="&#xcb;" horiz-adv-x="527" d="M88 -51Q68 -51 64 -48T60 -22V587Q60 607 63 610T86 614H441Q452 614 454 611T456 598V524Q456 514 453 511T441 507H170V343H428Q443 343 443 327V252Q443 235 428 235H170V57H453Q467 57 467 40V-35Q467 -51 453
-51H88ZM107 727Q107 753 124 771T167 789Q193 789 211 771T229 727Q229 701 211 684T167 667Q141 667 124 684T107 727ZM297 727Q297 753 314 771T357 789Q383 789 401 771T419 727Q419 701 401 684T357 667Q331 667 314 684T297 727Z" />
<glyph unicode="&#xcd;" horiz-adv-x="412" d="M156 -50Q143 -50 143 -37V601Q143 614 156 614H247Q260 614 260 601V-37Q260 -50 247 -50H156ZM149 671Q149 676 153 681L220 776Q227 784 231 787T245 791H341Q352 791 352 784Q352 780 348 776L265 679Q258 671
254 668T242 664H158Q149 664 149 671Z" />
<glyph unicode="&#xce;" horiz-adv-x="413" d="M161 -50Q148 -50 148 -37V601Q148 614 161 614H252Q265 614 265 601V-37Q265 -50 252 -50H161ZM363 671Q363 664 354 664H282Q274 664 270 667T259 679L207 736L154 679Q147 671 143 668T131 664H59Q50 664 50 671Q50
677 54 681L120 775Q127 783 131 786T144 790H269Q278 790 282 787T294 775L359 681Q363 677 363 671Z" />
<glyph unicode="&#xcf;" horiz-adv-x="412" d="M50 727Q50 753 67 771T110 789Q136 789 154 771T172 727Q172 701 154 684T110 667Q84 667 67 684T50 727ZM240 727Q240 753 257 771T300 789Q326 789 344 771T362 727Q362 701 344 684T300 667Q274 667 257 684T240
727ZM156 -50Q143 -50 143 -37V601Q143 614 156 614H247Q260 614 260 601V-37Q260 -50 247 -50H156Z" />
<glyph unicode="&#xd0;" horiz-adv-x="794" d="M619 317Q619 384 609 432T574 510T507 554T401 568H292V389H381V311H292V66H401Q465 66 507 80T574 124T609 201T619 317ZM735 317Q735 129 656 44T414 -42H175V311H59V389H175V676H414Q577 676 656 590T735 317Z" />
<glyph unicode="&#xd1;" horiz-adv-x="727" d="M536 -50Q528 -50 524 -47T514 -34L200 427V-34Q200 -44 197 -47T184 -50H101Q93 -50 89 -47T85 -34V608Q85 620 89 623T104 627H196Q204 627 208 625T218 611L532 151V611Q532 621 535 624T548 627H631Q641 627
643 624T646 611V-31Q646 -43 643 -46T628 -50H536ZM229 711Q227 715 227 717T229 723Q249 763 271 775T313 788Q330 790 349 786T387 765Q401 753 410 747T433 741Q446 743 455 751T472 785Q476 792 482 787L529 743Q535 736 532 728Q517 683 494 666T447 647Q426
645 409 651T374 672Q363 681 351 689T324 696Q313 694 303 688T281 658Q279 650 272 657L229 711Z" />
<glyph unicode="&#xd3;" horiz-adv-x="700" d="M350 -57Q264 -57 207 -29T115 47T65 157T50 286Q50 353 65 415T116 524T208 600T350 629Q434 629 491 601T584 525T634 415T650 286Q650 219 635 157T586 48T493 -28T350 -57ZM350 47Q406 47 442 69T500 125T529
202T537 286Q537 327 529 369T500 446T443 503T350 525Q294 525 258 503T200 447T171 370T163 286Q163 245 171 203T200 126T257 69T350 47ZM273 671Q273 676 277 681L344 776Q351 784 355 787T369 791H465Q476 791 476 784Q476 780 472 776L389 679Q382 671 378
668T366 664H282Q273 664 273 671Z" />
<glyph unicode="&#xd4;" horiz-adv-x="700" d="M505 671Q505 664 496 664H424Q416 664 412 667T401 679L349 736L296 679Q289 671 285 668T273 664H201Q192 664 192 671Q192 677 196 681L262 775Q269 783 273 786T286 790H411Q420 790 424 787T436 775L501 681Q505
677 505 671ZM350 -57Q264 -57 207 -29T115 47T65 157T50 286Q50 353 65 415T116 524T208 600T350 629Q434 629 491 601T584 525T634 415T650 286Q650 219 635 157T586 48T493 -28T350 -57ZM350 47Q406 47 442 69T500 125T529 202T537 286Q537 327 529 369T500
446T443 503T350 525Q294 525 258 503T200 447T171 370T163 286Q163 245 171 203T200 126T257 69T350 47Z" />
<glyph unicode="&#xd7;" horiz-adv-x="592" d="M553 119T553 113T548 102L506 58Q501 53 495 53T483 58L296 245L107 57Q93 45 85 57L43 100Q38 105 38 112T43 124L231 312L50 491Q45 496 45 502T50 513L93 557Q105 569 116 557L297 379L480 560Q485 565 491 565T503
560L543 517Q548 512 548 505T543 493L362 311L548 124Q553 119 553 113Z" />
<glyph unicode="&#xd8;" horiz-adv-x="780" d="M493 555Q448 583 390 583Q342 583 305 565T241 512T200 428T186 317Q186 254 200 205T242 120L493 555ZM594 317Q594 433 547 501L299 72Q338 51 390 51Q438 51 475 69T539 122T580 206T594 317ZM712 317Q712 227
687 158T619 40T516 -32T390 -57Q312 -57 244 -23L163 -164L99 -127L183 18Q130 66 99 140T68 317Q68 407 93 476T161 594T263 666T390 691Q478 691 548 650L615 765L679 729L607 605Q656 557 684 486T712 317Z" />
<glyph unicode="&#xd9;" horiz-adv-x="651" d="M506 -9Q433 -67 325 -67Q221 -67 145 -9Q94 29 72 86T50 219V599Q50 604 53 609T62 614H151Q163 614 163 601V219Q163 141 204 91T325 41Q407 41 447 89T488 219V601Q488 614 500 614H589Q594 614 597 609T601 599V219Q601
67 506 -9ZM392 671Q392 664 383 664H299Q291 664 287 667T276 679L193 776Q189 780 189 784Q189 791 200 791H296Q305 791 309 788T321 776L388 681Q392 676 392 671Z" />
<glyph unicode="&#xda;" horiz-adv-x="651" d="M506 -9Q433 -67 325 -67Q221 -67 145 -9Q94 29 72 86T50 219V599Q50 604 53 609T62 614H151Q163 614 163 601V219Q163 141 204 91T325 41Q407 41 447 89T488 219V601Q488 614 500 614H589Q594 614 597 609T601 599V219Q601
67 506 -9ZM249 671Q249 676 253 681L320 776Q327 784 331 787T345 791H441Q452 791 452 784Q452 780 448 776L365 679Q358 671 354 668T342 664H258Q249 664 249 671Z" />
<glyph unicode="&#xdb;" horiz-adv-x="651" d="M506 -9Q433 -67 325 -67Q221 -67 145 -9Q94 29 72 86T50 219V599Q50 604 53 609T62 614H151Q163 614 163 601V219Q163 141 204 91T325 41Q407 41 447 89T488 219V601Q488 614 500 614H589Q594 614 597 609T601 599V219Q601
67 506 -9ZM482 671Q482 664 473 664H401Q393 664 389 667T378 679L326 736L273 679Q266 671 262 668T250 664H178Q169 664 169 671Q169 677 173 681L239 775Q246 783 250 786T263 790H388Q397 790 401 787T413 775L478 681Q482 677 482 671Z" />
<glyph unicode="&#xdc;" horiz-adv-x="651" d="M506 -9Q433 -67 325 -67Q221 -67 145 -9Q94 29 72 86T50 219V599Q50 604 53 609T62 614H151Q163 614 163 601V219Q163 141 204 91T325 41Q407 41 447 89T488 219V601Q488 614 500 614H589Q594 614 597 609T601 599V219Q601
67 506 -9ZM169 727Q169 753 186 771T229 789Q255 789 273 771T291 727Q291 701 273 684T229 667Q203 667 186 684T169 727ZM359 727Q359 753 376 771T419 789Q445 789 463 771T481 727Q481 701 463 684T419 667Q393 667 376 684T359 727Z" />
<glyph unicode="&#xde;" horiz-adv-x="530" d="M359 319Q359 361 342 390T297 438T238 466T177 476V162Q206 163 238 172T296 199T340 247T358 319H359ZM470 319Q470 253 444 205T375 126T281 80T178 64V-42H60V676H177V574Q228 573 280 558T374 512T443 433T470 319Z" />
<glyph unicode="&#xdf;" horiz-adv-x="657" d="M347 94Q350 59 367 48T413 36Q478 36 478 143Q478 188 464 216T425 260T364 282T288 288H285Q271 288 271 302V380Q271 394 285 394H288Q367 394 400 425T433 504Q433 546 408 572T318 598H262Q238 598 220 585T202
539V-40Q202 -50 190 -50H102Q90 -50 90 -40V544Q90 584 102 614T135 664T184 694T246 704H337Q379 704 416 693T482 657T528 597T545 513Q545 453 521 411T452 344Q514 325 552 277T590 150Q590 44 549 -13T411 -71Q326 -71 282 -32T234 93Q234 109 249 109H330Q347
109 347 94Z" />
<glyph unicode="&#xe0;" horiz-adv-x="532" d="M389 -49Q382 -49 380 -48T378 -40V5Q353 -30 315 -47T237 -65Q196 -65 162 -54T103 -21T64 33T50 109Q50 160 68 198T124 262T223 300T368 313Q368 332 364 351T351 385T324 409T281 419Q236 419 200 407T131 375Q115
365 110 366T104 377V453Q104 457 104 461T105 469Q107 473 120 480Q154 497 189 508T279 519Q382 519 429 471T477 316V79Q477 51 477 21T481 -33Q482 -49 470 -49H389ZM164 110Q164 72 186 53T245 34Q302 34 336 75T371 207V218Q260 218 212 191T164 110ZM354
571Q354 564 345 564H261Q253 564 249 567T238 579L155 676Q151 680 151 684Q151 691 162 691H258Q267 691 271 688T283 676L350 581Q354 576 354 571Z" />
<glyph unicode="&#xe1;" horiz-adv-x="532" d="M389 -49Q382 -49 380 -48T378 -40V5Q353 -30 315 -47T237 -65Q196 -65 162 -54T103 -21T64 33T50 109Q50 160 68 198T124 262T223 300T368 313Q368 332 364 351T351 385T324 409T281 419Q236 419 200 407T131 375Q115
365 110 366T104 377V453Q104 457 104 461T105 469Q107 473 120 480Q154 497 189 508T279 519Q382 519 429 471T477 316V79Q477 51 477 21T481 -33Q482 -49 470 -49H389ZM164 110Q164 72 186 53T245 34Q302 34 336 75T371 207V218Q260 218 212 191T164 110ZM203
571Q203 576 207 581L274 676Q281 684 285 687T299 691H395Q406 691 406 684Q406 680 402 676L319 579Q312 571 308 568T296 564H212Q203 564 203 571Z" />
<glyph unicode="&#xe2;" horiz-adv-x="532" d="M389 -49Q382 -49 380 -48T378 -40V5Q353 -30 315 -47T237 -65Q196 -65 162 -54T103 -21T64 33T50 109Q50 160 68 198T124 262T223 300T368 313Q368 332 364 351T351 385T324 409T281 419Q236 419 200 407T131 375Q115
365 110 366T104 377V453Q104 457 104 461T105 469Q107 473 120 480Q154 497 189 508T279 519Q382 519 429 471T477 316V79Q477 51 477 21T481 -33Q482 -49 470 -49H389ZM164 110Q164 72 186 53T245 34Q302 34 336 75T371 207V218Q260 218 212 191T164 110ZM432
571Q432 564 423 564H351Q343 564 339 567T328 579L276 636L223 579Q216 571 212 568T200 564H128Q119 564 119 571Q119 577 123 581L189 675Q196 683 200 686T213 690H338Q347 690 351 687T363 675L428 581Q432 577 432 571Z" />
<glyph unicode="&#xe4;" horiz-adv-x="532" d="M389 -49Q382 -49 380 -48T378 -40V5Q353 -30 315 -47T237 -65Q196 -65 162 -54T103 -21T64 33T50 109Q50 160 68 198T124 262T223 300T368 313Q368 332 364 351T351 385T324 409T281 419Q236 419 200 407T131 375Q115
365 110 366T104 377V453Q104 457 104 461T105 469Q107 473 120 480Q154 497 189 508T279 519Q382 519 429 471T477 316V79Q477 51 477 21T481 -33Q482 -49 470 -49H389ZM164 110Q164 72 186 53T245 34Q302 34 336 75T371 207V218Q260 218 212 191T164 110ZM120
617Q120 643 137 661T180 679Q206 679 224 661T242 617Q242 591 224 574T180 557Q154 557 137 574T120 617ZM310 617Q310 643 327 661T370 679Q396 679 414 661T432 617Q432 591 414 574T370 557Q344 557 327 574T310 617Z" />
<glyph unicode="&#xe6;" horiz-adv-x="898" d="M837 202Q837 194 833 190T823 186H494Q499 119 536 77T637 34Q670 34 712 42T789 72Q796 76 798 71T800 58V-11Q800 -20 797 -25T785 -35Q755 -51 715 -58T632 -65Q502 -65 438 17Q405 -20 356 -42T247 -65Q206
-65 172 -54T113 -21T74 33T60 109Q60 160 78 198T134 262T233 300T378 313Q378 332 374 351T361 385T334 409T291 419Q246 419 210 407T141 375Q125 365 120 366T114 377V453Q114 457 114 461T115 469Q117 473 130 480Q164 497 199 508T289 519Q409 519 455 449Q483
481 522 499T614 518Q675 518 717 495T787 433T826 342T838 231Q838 224 838 215T837 202ZM174 110Q174 72 196 53T255 34Q312 34 346 75T381 207V218Q270 218 222 191T174 110ZM618 422Q591 422 570 410T534 379T510 335T496 285H725Q725 305 719 329T699 373T666
408T618 422Z" />
<glyph unicode="&#xe7;" horiz-adv-x="510" d="M249 -14Q166 2 116 52Q50 116 50 238Q50 301 70 352T126 440T214 496T328 516Q359 516 390 513T452 499Q456 498 458 495T459 483L450 414Q449 407 446 404T433 403Q411 411 382 414T326 417Q245 417 203 370T161
238Q161 157 200 121T315 77Q384 69 438 86Q448 90 450 87T454 78L459 9Q460 1 459 -2T449 -8Q426 -16 388 -20Q377 -21 366 -21T344 -23L331 -52Q339 -49 351 -48T374 -52T394 -71T402 -111Q402 -148 366 -173Q332 -198 285 -198Q257 -197 235 -189T199 -168L213
-131Q300 -151 305 -119Q308 -76 233 -110L220 -102L249 -14Z" />
<glyph unicode="&#xe8;" horiz-adv-x="557" d="M506 202Q506 194 502 190T492 186H163Q168 119 205 77T306 34Q339 34 381 42T458 72Q465 76 467 71T469 58V-11Q469 -20 466 -25T454 -35Q424 -51 384 -58T301 -65Q175 -65 113 8T50 228Q50 282 64 334T106 427T179
493T283 518Q344 518 386 495T456 433T495 342T507 231Q507 224 507 215T506 202ZM287 422Q260 422 239 410T203 379T179 335T165 285H394Q394 305 388 329T368 373T335 408T287 422ZM364 571Q364 564 355 564H271Q263 564 259 567T248 579L165 676Q161 680 161
684Q161 691 172 691H268Q277 691 281 688T293 676L360 581Q364 576 364 571Z" />
<glyph unicode="&#xe9;" horiz-adv-x="557" d="M506 202Q506 206 506 215T507 231Q507 289 495 341T456 433T387 495T283 518Q223 518 179 493T107 427T64 334T50 228Q50 82 112 9T301 -65Q343 -65 383 -58T454 -35Q463 -30 466 -25T469 -11V58Q469 66 467 71T458
72Q423 51 381 43T306 34Q242 34 205 76T163 186H492Q497 186 501 190T506 202ZM287 422Q315 422 335 408T368 374T387 329T394 285H165Q169 310 178 335T203 379T239 410T287 422ZM224 571Q224 576 228 581L295 676Q302 684 306 687T320 691H416Q427 691 427 684Q427
680 423 676L340 579Q333 571 329 568T317 564H233Q224 564 224 571Z" />
<glyph unicode="&#xea;" horiz-adv-x="557" d="M506 202Q506 194 502 190T492 186H163Q168 119 205 77T306 34Q339 34 381 42T458 72Q465 76 467 71T469 58V-11Q469 -20 466 -25T454 -35Q424 -51 384 -58T301 -65Q175 -65 113 8T50 228Q50 282 64 334T106 427T179
493T283 518Q344 518 386 495T456 433T495 342T507 231Q507 224 507 215T506 202ZM287 422Q260 422 239 410T203 379T179 335T165 285H394Q394 305 388 329T368 373T335 408T287 422ZM439 571Q439 564 430 564H358Q350 564 346 567T335 579L283 636L230 579Q223
571 219 568T207 564H135Q126 564 126 571Q126 577 130 581L196 675Q203 683 207 686T220 690H345Q354 690 358 687T370 675L435 581Q439 577 439 571Z" />
<glyph unicode="&#xeb;" horiz-adv-x="557" d="M506 202Q506 194 502 190T492 186H163Q168 119 205 77T306 34Q339 34 381 42T458 72Q465 76 467 71T469 58V-11Q469 -20 466 -25T454 -35Q424 -51 384 -58T301 -65Q175 -65 113 8T50 228Q50 282 64 334T106 427T179
493T283 518Q344 518 386 495T456 433T495 342T507 231Q507 224 507 215T506 202ZM287 422Q260 422 239 410T203 379T179 335T165 285H394Q394 305 388 329T368 373T335 408T287 422ZM127 617Q127 643 144 661T187 679Q213 679 231 661T249 617Q249 591 231 574T187
557Q161 557 144 574T127 617ZM317 617Q317 643 334 661T377 679Q403 679 421 661T439 617Q439 591 421 574T377 557Q351 557 334 574T317 617Z" />
<glyph unicode="&#xed;" horiz-adv-x="418" d="M162 -51Q150 -51 150 -39V488Q150 500 162 500H246Q258 500 258 488V-39Q258 -51 246 -51H162ZM155 571Q155 576 159 581L226 676Q233 684 237 687T251 691H347Q358 691 358 684Q358 680 354 676L271 579Q264 571
260 568T248 564H164Q155 564 155 571Z" />
<glyph unicode="&#xee;" horiz-adv-x="413" d="M165 -51Q153 -51 153 -39V488Q153 500 165 500H249Q261 500 261 488V-39Q261 -51 249 -51H165ZM363 571Q363 564 354 564H282Q274 564 270 567T259 579L207 636L154 579Q147 571 143 568T131 564H59Q50 564 50 571Q50
577 54 581L120 675Q127 683 131 686T144 690H269Q278 690 282 687T294 675L359 581Q363 577 363 571Z" />
<glyph unicode="&#xef;" horiz-adv-x="412" d="M160 -51Q148 -51 148 -39V488Q148 500 160 500H244Q256 500 256 488V-39Q256 -51 244 -51H160ZM50 617Q50 643 67 661T110 679Q136 679 154 661T172 617Q172 591 154 574T110 557Q84 557 67 574T50 617ZM240 617Q240
643 257 661T300 679Q326 679 344 661T362 617Q362 591 344 574T300 557Q274 557 257 574T240 617Z" />
<glyph unicode="&#xf0;" horiz-adv-x="592" d="M421 213Q421 300 388 340T296 380Q238 380 205 340T171 213Q171 126 205 86T296 46Q354 46 387 86T421 213ZM534 214Q534 149 515 99T464 14T388 -39T296 -57Q247 -57 204 -40T129 10T77 94T58 213Q58 280 77 331T128
415T204 466T296 483Q339 483 377 470Q372 493 362 515T338 557L290 511L246 555L271 580Q276 585 280 589T289 597L297 605Q263 638 229 661L256 705Q307 682 346 654L374 680Q386 691 401 707L446 663L396 614Q436 577 462 533T505 439T527 332T534 214Z" />
<glyph unicode="&#xf1;" horiz-adv-x="606" d="M430 -49Q425 -49 422 -45T418 -35V283Q418 355 396 387T325 419Q259 419 228 383T196 277V-36Q196 -49 184 -49H101Q96 -49 93 -45T89 -35V363Q89 401 89 436T86 491Q85 504 100 504H179Q190 504 188 496L187 460Q212
484 247 501T328 518Q425 518 475 462T525 298V-36Q525 -49 513 -49H430ZM154 611Q152 615 152 617T154 623Q174 663 196 675T238 688Q255 690 274 686T312 665Q326 653 335 647T358 641Q371 643 380 651T397 685Q401 692 407 687L454 643Q460 636 457 628Q442
583 419 566T372 547Q351 545 334 551T299 572Q288 581 276 589T249 596Q238 594 228 588T206 558Q204 550 197 557L154 611Z" />
<glyph unicode="&#xf3;" horiz-adv-x="622" d="M510 27Q474 -18 424 -41T311 -65Q246 -65 198 -42T116 21T67 114T50 227Q50 287 66 340T116 432T197 495T311 518Q375 518 424 495T506 433T555 340T572 227Q572 167 556 116T510 27ZM311 420Q272 420 244 403T197
359T170 297T161 227Q161 192 170 158T197 95T243 50T311 33Q350 33 378 50T425 95T452 157T461 227Q461 261 452 295T425 357T379 402T311 420ZM258 571Q258 576 262 581L329 676Q336 684 340 687T354 691H450Q461 691 461 684Q461 680 457 676L374 579Q367 571
363 568T351 564H267Q258 564 258 571Z" />
<glyph unicode="&#xf4;" horiz-adv-x="622" d="M510 27Q474 -18 424 -41T311 -65Q246 -65 198 -42T116 21T67 114T50 227Q50 287 66 340T116 432T197 495T311 518Q375 518 424 495T506 433T555 340T572 227Q572 167 556 116T510 27ZM311 420Q272 420 244 403T197
359T170 297T161 227Q161 192 170 158T197 95T243 50T311 33Q350 33 378 50T425 95T452 157T461 227Q461 261 452 295T425 357T379 402T311 420ZM467 571Q467 564 458 564H386Q378 564 374 567T363 579L311 636L258 579Q251 571 247 568T235 564H163Q154 564 154
571Q154 577 158 581L224 675Q231 683 235 686T248 690H373Q382 690 386 687T398 675L463 581Q467 577 467 571Z" />
<glyph unicode="&#xf6;" horiz-adv-x="622" d="M510 27Q474 -18 424 -41T311 -65Q246 -65 198 -42T116 21T67 114T50 227Q50 287 66 340T116 432T197 495T311 518Q375 518 424 495T506 433T555 340T572 227Q572 167 556 116T510 27ZM311 420Q272 420 244 403T197
359T170 297T161 227Q161 192 170 158T197 95T243 50T311 33Q350 33 378 50T425 95T452 157T461 227Q461 261 452 295T425 357T379 402T311 420ZM154 617Q154 643 171 661T214 679Q240 679 258 661T276 617Q276 591 258 574T214 557Q188 557 171 574T154 617ZM344
617Q344 643 361 661T404 679Q430 679 448 661T466 617Q466 591 448 574T404 557Q378 557 361 574T344 617Z" />
<glyph unicode="&#xf7;" horiz-adv-x="650" d="M612 357T612 344V280Q612 267 598 267H52Q38 267 38 280V344Q38 357 52 357H598Q612 357 612 344ZM323 590Q355 590 376 570T397 518Q397 486 376 466T324 445Q292 445 272 465T251 518Q251 549 271 569T323 590ZM323
179Q355 179 376 159T397 107Q397 75 376 55T324 34Q292 34 272 54T251 107Q251 138 271 158T323 179Z" />
<glyph unicode="&#xf8;" horiz-adv-x="612" d="M347 384Q329 390 306 390Q248 390 215 348T181 218Q181 136 212 93L347 384ZM431 218Q431 299 401 343L265 52Q283 46 306 46Q365 46 398 88T431 218ZM544 218Q544 150 526 99T477 13T402 -39T306 -57Q261 -57 221
-43L173 -145L114 -117L163 -12Q118 21 93 79T68 218Q68 285 86 336T135 423T210 475T306 493Q351 493 391 479L434 571L494 544L449 448Q494 414 519 357T544 218Z" />
<glyph unicode="&#xf9;" horiz-adv-x="558" d="M406 -49Q394 -49 395 -39V1Q369 -31 332 -48T253 -65Q156 -65 108 -8T60 155V490Q60 495 63 499T72 504H154Q159 504 163 499T167 489V171Q167 96 191 65T264 34Q318 34 353 75T389 197V490Q389 495 392 499T401
504H484Q489 504 492 499T496 488V80Q496 49 497 19T498 -36Q498 -49 487 -49H406ZM354 571Q354 564 345 564H261Q253 564 249 567T238 579L155 676Q151 680 151 684Q151 691 162 691H258Q267 691 271 688T283 676L350 581Q354 576 354 571Z" />
<glyph unicode="&#xfa;" horiz-adv-x="558" d="M406 -49Q394 -49 395 -39V1Q369 -31 332 -48T253 -65Q156 -65 108 -8T60 155V490Q60 495 63 499T72 504H154Q159 504 163 499T167 489V171Q167 96 191 65T264 34Q318 34 353 75T389 197V490Q389 495 392 499T401
504H484Q489 504 492 499T496 488V80Q496 49 497 19T498 -36Q498 -49 487 -49H406ZM205 571Q205 576 209 581L276 676Q283 684 287 687T301 691H397Q408 691 408 684Q408 680 404 676L321 579Q314 571 310 568T298 564H214Q205 564 205 571Z" />
<glyph unicode="&#xfb;" horiz-adv-x="558" d="M406 -49Q394 -49 395 -39V1Q369 -31 332 -48T253 -65Q156 -65 108 -8T60 155V490Q60 495 63 499T72 504H154Q159 504 163 499T167 489V171Q167 96 191 65T264 34Q318 34 353 75T389 197V490Q389 495 392 499T401
504H484Q489 504 492 499T496 488V80Q496 49 497 19T498 -36Q498 -49 487 -49H406ZM435 571Q435 564 426 564H354Q346 564 342 567T331 579L279 636L226 579Q219 571 215 568T203 564H131Q122 564 122 571Q122 577 126 581L192 675Q199 683 203 686T216 690H341Q350
690 354 687T366 675L431 581Q435 577 435 571Z" />
<glyph unicode="&#xfc;" horiz-adv-x="558" d="M406 -49Q394 -49 395 -39V1Q369 -31 332 -48T253 -65Q156 -65 108 -8T60 155V490Q60 495 63 499T72 504H154Q159 504 163 499T167 489V171Q167 96 191 65T264 34Q318 34 353 75T389 197V490Q389 495 392 499T401
504H484Q489 504 492 499T496 488V80Q496 49 497 19T498 -36Q498 -49 487 -49H406ZM127 617Q127 643 144 661T187 679Q213 679 231 661T249 617Q249 591 231 574T187 557Q161 557 144 574T127 617ZM317 617Q317 643 334 661T377 679Q403 679 421 661T439 617Q439
591 421 574T377 557Q351 557 334 574T317 617Z" />
<glyph unicode="&#xfe;" horiz-adv-x="599" d="M402 218Q402 305 369 347T277 390Q227 390 196 359V76Q227 46 277 46Q336 46 369 88T402 218ZM515 218Q515 150 497 99T448 13T373 -39T277 -57Q228 -57 196 -40V-144H84V676H196V476Q228 493 277 493Q329 493 372
476T447 423T497 337T515 218Z" />
<glyph unicode="&#x2013;" horiz-adv-x="410" d="M353 264H57V360H353V264Z" />
<glyph unicode="&#x2014;" horiz-adv-x="864" d="M864 267H0V357H864V267Z" />
<glyph unicode="&#x2018;" horiz-adv-x="185" d="M95 487Q68 487 50 510T30 563Q27 600 34 626T58 678Q73 701 94 718T141 740Q154 746 154 735V696Q154 688 153 686T148 681Q130 673 118 658T104 622Q125 617 143 602T162 559Q162 527 144 507T95 487Z" />
<glyph unicode="&#x2019;" horiz-adv-x="185" d="M94 738Q122 738 140 715T160 662Q163 625 156 599T131 547Q116 524 95 507T48 485Q35 479 35 490V529Q35 537 36 539T42 544Q59 552 71 567T85 603Q64 608 46 623T28 666Q28 698 46 718T94 738Z" />
<glyph unicode="&#x201c;" horiz-adv-x="350" d="M98 487Q71 487 53 510T32 563Q29 600 36 626T61 678Q75 701 96 718T143 740Q157 746 157 735V696Q157 688 156 686T151 681Q112 664 107 622Q127 617 146 602T165 559Q165 527 146 507T98 487ZM252 487Q224 487
206 510T185 563Q182 600 190 626T215 678Q229 701 250 718T297 740Q311 746 311 735V696Q311 688 310 686T304 681Q286 673 274 658T261 622Q281 617 299 602T318 559Q318 527 300 507T252 487Z" />
<glyph unicode="&#x201d;" horiz-adv-x="350" d="M251 738Q278 738 296 715T318 662Q321 625 313 599T288 547Q274 524 253 507T206 485Q192 479 192 490V529Q192 537 193 539T199 544Q217 552 229 567T242 603Q222 608 204 623T185 666Q185 698 203 718T251 738ZM98
738Q125 738 143 715T164 662Q167 625 160 599T135 547Q121 524 100 507T53 485Q39 479 39 490V529Q39 537 40 539T45 544Q64 552 76 567T89 603Q69 608 50 623T31 666Q31 698 50 718T98 738Z" />
<glyph unicode="&#x2022;" horiz-adv-x="940" d="M581 305Q581 282 572 262T548 227T513 204T470 195Q447 195 427 203T392 227T368 262T359 305Q359 328 368 348T392 383T427 407T470 416Q493 416 513 407T548 383T572 348T581 305Z" />
<glyph unicode="&#x2039;" horiz-adv-x="940" d="M823 -133L116 300L823 732V696L185 300L823 -95V-133Z" />
<glyph unicode="&#x203a;" horiz-adv-x="940" d="M823 300L116 -133V-95L754 300L116 696V732L823 300Z" />
</font>
</defs>
</svg>
