<?xml version="1.0" ?><!DOCTYPE svg  PUBLIC '-//W3C//DTD SVG 1.1//EN'  'http://www.w3.org/Graphics/SVG/1.1/DTD/svg11.dtd'><svg enable-background="new 0 0 32 32" height="32px" id="Layer_1" version="1.1" viewBox="0 0 32 32" width="32px" xml:space="preserve" xmlns="http://www.w3.org/2000/svg" xmlns:xlink="http://www.w3.org/1999/xlink"><g><path d="M28.562,25.996l-2.058-5.625c0.641-1.516,0.995-3.184,0.995-4.934C27.5,8.43,21.82,2.75,14.812,2.75   c-7.007,0-12.688,5.68-12.688,12.688c0,7.008,5.68,12.688,12.688,12.688c3.006,0,5.764-1.051,7.938-2.797l4.638,1.816   C28.412,27.547,28.941,27.029,28.562,25.996z M8.5,17.062c-0.897,0-1.625-0.728-1.625-1.625s0.728-1.625,1.625-1.625   s1.625,0.728,1.625,1.625S9.397,17.062,8.5,17.062z M14.5,17.062c-0.897,0-1.625-0.728-1.625-1.625s0.728-1.625,1.625-1.625   s1.625,0.728,1.625,1.625S15.397,17.062,14.5,17.062z M20.5,17.062c-0.897,0-1.625-0.728-1.625-1.625s0.728-1.625,1.625-1.625   s1.625,0.728,1.625,1.625S21.397,17.062,20.5,17.062z" fill="#515151"/></g></svg>