<?xml version="1.0" ?><!DOCTYPE svg  PUBLIC '-//W3C//DTD SVG 1.1//EN'  'http://www.w3.org/Graphics/SVG/1.1/DTD/svg11.dtd'><svg enable-background="new 0 0 32 32" height="32px" id="Layer_1" version="1.1" viewBox="0 0 32 32" width="32px" xml:space="preserve" xmlns="http://www.w3.org/2000/svg" xmlns:xlink="http://www.w3.org/1999/xlink"><g id="pin_1_"><path d="M26.48,13.794c0-5.789-4.692-10.481-10.48-10.481c-5.789,0-10.481,4.692-10.481,10.481   c0,1.036,0.153,2.036,0.433,2.983c1.492,6.035,10.095,12.785,10.095,12.785s9.719-7.621,10.291-13.91l-0.025-0.005   C26.421,15.046,26.48,14.427,26.48,13.794z M16.143,16.128c-2.368,0-4.288-1.92-4.288-4.288c0-2.368,1.92-4.288,4.288-4.288   c2.367,0,4.287,1.92,4.287,4.288C20.43,14.208,18.51,16.128,16.143,16.128z" fill="#515151"/></g></svg>