<?xml version="1.0" ?><!DOCTYPE svg  PUBLIC '-//W3C//DTD SVG 1.1//EN'  'http://www.w3.org/Graphics/SVG/1.1/DTD/svg11.dtd'><svg enable-background="new 0 0 32 32" height="32px" id="Layer_1" version="1.1" viewBox="0 0 32 32" width="32px" xml:space="preserve" xmlns="http://www.w3.org/2000/svg" xmlns:xlink="http://www.w3.org/1999/xlink"><g id="Thumbs_up"><path d="M19.899,24.995c0.36-0.662,2.3-4.416,2.248-7.854c0,0,0.034-1.158-0.834-1.532   c-0.281-0.122-1.925-0.821-2.105-1.002c0,0-0.999-2.155-1.806-3.129c-1.869-2.258-3.36-3.413-3.792-3.731   C13.337,7.545,12.709,7.3,11.427,5.96c-1.008-1.053-1.083-2.167-1.837-2.179C9.515,3.779,9.5,3.787,9.339,3.836   C8.936,3.959,7.121,5.399,8.617,7.807c0,0,0.751,1.183,2.046,2.288c0,0,1.768,1.55-0.181,2.708c0,0-1.263,0.646-2.8,0.561   c-0.625-0.035-1.594-0.2-1.894-0.259c-0.301-0.061-1.305-0.369-2.106,0.12c-1.548,0.945-0.663,9.409,2.9,12.313   c1.343,1.096,5.945,1.467,8.473,0.745c0,0,1.435-0.502,2.167-0.422c1.022,0.115,1.647-0.064,1.647-0.064   S19.538,25.657,19.899,24.995z" fill="#515151"/><path d="M25.603,15.559c-1.226-0.191-2.353-0.381-2.592-0.407c-0.208-0.023-0.227,0.253-0.054,0.334   c0.214,0.123,0.512,0.492,0.598,1.255c0.006,0.554,0.448,4.111-2.502,9.001c-0.682,1.128-1.203,1.09-2.075,1.168   c0.039,0.527,0.843,0.818,0.843,0.818s2.565,0.833,4.123,0.331c0,0,2.297-0.487,3.718-4.757c0.395-1.186,0.677-2.409,0.8-3.449   c0.06-0.499,0.094-0.952,0.105-1.332C28.623,16.6,27.134,15.831,25.603,15.559z" fill="#515151"/></g></svg>