<?xml version="1.0" ?><!DOCTYPE svg  PUBLIC '-//W3C//DTD SVG 1.1//EN'  'http://www.w3.org/Graphics/SVG/1.1/DTD/svg11.dtd'><svg enable-background="new 0 0 32 32" height="32px" id="Layer_1" version="1.1" viewBox="0 0 32 32" width="32px" xml:space="preserve" xmlns="http://www.w3.org/2000/svg" xmlns:xlink="http://www.w3.org/1999/xlink"><path d="M25.032,26.16c2.884-2.883,4.184-6.74,3.928-10.51c-1.511,0.013-3.021,0.021-4.531,0.034  c0.254,2.599-0.603,5.287-2.594,7.277c-3.535,3.533-9.263,3.533-12.796,0c-3.534-3.533-3.534-9.26,0-12.794  c3.015-3.016,7.625-3.446,11.109-1.314c-1.181,1.167-2.57,2.549-2.57,2.549c-1,1.062,0.016,1.766,0.69,1.77h8.828  c0.338,0,0.611-0.274,0.612-0.612V3.804c0.041-0.825-0.865-1.591-1.756-0.7c0,0-1.495,1.48-2.533,2.509  C18.112,1.736,10.634,2.175,5.841,6.967c-5.3,5.3-5.3,13.892,0,19.193C11.141,31.459,19.733,31.459,25.032,26.16z" fill="#515151" id="Refresh"/></svg>