<?xml version="1.0" ?><!DOCTYPE svg  PUBLIC '-//W3C//DTD SVG 1.1//EN'  'http://www.w3.org/Graphics/SVG/1.1/DTD/svg11.dtd'><svg enable-background="new 0 0 32 32" height="32px" id="Layer_1" version="1.1" viewBox="0 0 32 32" width="32px" xml:space="preserve" xmlns="http://www.w3.org/2000/svg" xmlns:xlink="http://www.w3.org/1999/xlink"><g id="smartphone"><path d="M25.023,2.772c0-0.624-0.506-1.128-1.129-1.128H9.019c-0.623,0-1.128,0.504-1.128,1.128v26.458   c0,0.622,0.505,1.127,1.128,1.127h14.875c0.623,0,1.129-0.505,1.129-1.127V2.772z M16.449,29.168c-0.733,0-1.328-0.594-1.328-1.327   c0-0.731,0.595-1.325,1.328-1.325c0.732,0,1.326,0.594,1.326,1.325C17.775,28.574,17.182,29.168,16.449,29.168z M22.284,23.519   H10.629V5.345h11.655V23.519z" fill="#515151"/></g></svg>