<?xml version="1.0" ?><!DOCTYPE svg  PUBLIC '-//W3C//DTD SVG 1.1//EN'  'http://www.w3.org/Graphics/SVG/1.1/DTD/svg11.dtd'><svg enable-background="new 0 0 32 32" height="32px" id="Layer_1" version="1.1" viewBox="0 0 32 32" width="32px" xml:space="preserve" xmlns="http://www.w3.org/2000/svg" xmlns:xlink="http://www.w3.org/1999/xlink"><g><path d="M25.695,9.43c0,0.771-0.631,1.401-1.402,1.401H8.875c-0.771,0-1.402-0.63-1.402-1.401V7.152   c0-0.771,0.631-1.402,1.402-1.402h15.418c0.771,0,1.402,0.631,1.402,1.402V9.43z" fill="#515151"/><path d="M25.695,24.848c0,0.771-0.631,1.402-1.402,1.402H8.875c-0.771,0-1.402-0.631-1.402-1.402V22.57   c0-0.771,0.631-1.401,1.402-1.401h15.418c0.771,0,1.402,0.63,1.402,1.401V24.848z" fill="#515151"/><path d="M25.695,17.139c0,0.771-0.631,1.402-1.402,1.402H8.875c-0.771,0-1.402-0.631-1.402-1.402v-2.277   c0-0.771,0.631-1.402,1.402-1.402h15.418c0.771,0,1.402,0.631,1.402,1.402V17.139z" fill="#515151"/></g></svg>