<?xml version="1.0" ?><!DOCTYPE svg  PUBLIC '-//W3C//DTD SVG 1.1//EN'  'http://www.w3.org/Graphics/SVG/1.1/DTD/svg11.dtd'><svg enable-background="new 0 0 32 32" height="32px" id="Layer_1" version="1.1" viewBox="0 0 32 32" width="32px" xml:space="preserve" xmlns="http://www.w3.org/2000/svg" xmlns:xlink="http://www.w3.org/1999/xlink"><g id="tablet"><path d="M27.113,0.991h-6.199h-9.081H5.634c-0.64,0-1.296,0.765-1.296,1.404v27.177   c0,0.641,0.656,1.436,1.296,1.436h6.199h9.081h6.199c0.64,0,1.367-0.795,1.367-1.436V2.396C28.48,1.756,27.753,0.991,27.113,0.991z    M16.547,29.539c-0.73,0-1.323-0.594-1.323-1.324c0-0.729,0.593-1.322,1.323-1.322c0.729,0,1.322,0.594,1.322,1.322   C17.869,28.945,17.276,29.539,16.547,29.539z M25.15,24.252H7.464L7.535,4.483H25.15V24.252z" fill="#515151"/></g></svg>