<?xml version="1.0" ?><!DOCTYPE svg  PUBLIC '-//W3C//DTD SVG 1.1//EN'  'http://www.w3.org/Graphics/SVG/1.1/DTD/svg11.dtd'><svg enable-background="new 0 0 32 32" height="32px" id="Layer_1" version="1.1" viewBox="0 0 32 32" width="32px" xml:space="preserve" xmlns="http://www.w3.org/2000/svg" xmlns:xlink="http://www.w3.org/1999/xlink"><path d="M28.623,4.095L28.51,3.981c-1.674-1.673-4.395-1.673-6.068,0l-5.953,5.953  c-1.219,1.218-1.539,2.992-0.981,4.514l-1.081,1.081c-1.521-0.558-3.295-0.238-4.514,0.981l-5.953,5.954  c-1.673,1.672-1.673,4.395,0,6.067l0.114,0.115c1.673,1.672,4.395,1.672,6.067,0l5.953-5.954c1.219-1.22,1.539-2.993,0.982-4.515  l1.08-1.08c1.521,0.557,3.295,0.237,4.514-0.981l5.953-5.954C30.297,8.49,30.297,5.768,28.623,4.095z M8.584,26.493  c-0.653,0.652-1.716,0.652-2.37,0l-0.103-0.103c-0.653-0.653-0.653-1.719,0-2.37l4.175-4.175c-0.313,0.689-0.192,1.533,0.374,2.099  c0.566,0.565,1.41,0.687,2.1,0.373L8.584,26.493z M26.472,8.605l-4.134,4.134c0.312-0.69,0.19-1.532-0.375-2.098  s-1.408-0.687-2.099-0.374l4.134-4.135c0.653-0.653,1.717-0.653,2.371,0l0.103,0.103C27.125,6.89,27.125,7.953,26.472,8.605z" fill="#515151"/></svg>