<?xml version="1.0" ?><!DOCTYPE svg  PUBLIC '-//W3C//DTD SVG 1.1//EN'  'http://www.w3.org/Graphics/SVG/1.1/DTD/svg11.dtd'><svg enable-background="new 0 0 32 32" height="32px" id="Layer_1" version="1.1" viewBox="0 0 32 32" width="32px" xml:space="preserve" xmlns="http://www.w3.org/2000/svg" xmlns:xlink="http://www.w3.org/1999/xlink"><path d="M29.881,1.819H1.597c-0.611,0-1.078,0.526-1.078,1.14v22.484c0,0.613,0.467,1.138,1.078,1.138h8.987v0.926  c0,1.052,0.849,1.924,1.901,1.924h6.691c1.051,0,1.918-0.872,1.918-1.924v-0.926h8.787c0.611,0,1.1-0.524,1.1-1.138V2.959  C30.98,2.346,30.492,1.819,29.881,1.819z M14.551,23.572c0-0.745,0.606-1.354,1.354-1.354c0.75,0,1.355,0.608,1.355,1.354  c0,0.75-0.605,1.354-1.355,1.354C15.157,24.927,14.551,24.322,14.551,23.572z M28.275,19.607H3.224V4.25h25.051V19.607z" fill="#515151"/></svg>