<?xml version="1.0" ?><!DOCTYPE svg  PUBLIC '-//W3C//DTD SVG 1.1//EN'  'http://www.w3.org/Graphics/SVG/1.1/DTD/svg11.dtd'><svg enable-background="new 0 0 32 32" height="32px" id="Layer_1" version="1.1" viewBox="0 0 32 32" width="32px" xml:space="preserve" xmlns="http://www.w3.org/2000/svg" xmlns:xlink="http://www.w3.org/1999/xlink"><g id="Thumbs_up"><path d="M19.899,7.005c0.36,0.662,2.3,4.416,2.248,7.854c0,0,0.034,1.158-0.834,1.532   c-0.281,0.122-1.925,0.821-2.105,1.002c0,0-0.999,2.154-1.806,3.129c-1.869,2.258-3.36,3.413-3.792,3.73   c-0.273,0.203-0.902,0.448-2.184,1.787c-1.008,1.053-1.083,2.167-1.837,2.18c-0.075,0.002-0.089-0.006-0.251-0.055   c-0.403-0.123-2.218-1.562-0.722-3.971c0,0,0.751-1.184,2.046-2.288c0,0,1.768-1.55-0.181-2.708c0,0-1.263-0.646-2.8-0.561   c-0.625,0.035-1.594,0.199-1.894,0.26c-0.301,0.061-1.305,0.369-2.106-0.121c-1.548-0.944-0.663-9.408,2.9-12.312   c1.343-1.096,5.945-1.467,8.473-0.745c0,0,1.435,0.502,2.167,0.422c1.022-0.115,1.647,0.064,1.647,0.064S19.538,6.343,19.899,7.005   z" fill="#515151"/><path d="M25.603,16.441c-1.226,0.191-2.353,0.381-2.592,0.407c-0.208,0.023-0.227-0.253-0.054-0.334   c0.214-0.123,0.512-0.492,0.598-1.255c0.006-0.554,0.448-4.111-2.502-9.001c-0.682-1.128-1.203-1.09-2.075-1.168   c0.039-0.527,0.843-0.818,0.843-0.818s2.565-0.833,4.123-0.331c0,0,2.297,0.487,3.718,4.757c0.395,1.186,0.677,2.409,0.8,3.449   c0.06,0.499,0.094,0.952,0.105,1.332C28.623,15.4,27.134,16.169,25.603,16.441z" fill="#515151"/></g></svg>