<?xml version="1.0" ?><!DOCTYPE svg  PUBLIC '-//W3C//DTD SVG 1.1//EN'  'http://www.w3.org/Graphics/SVG/1.1/DTD/svg11.dtd'><svg enable-background="new 0 0 32 32" height="32px" id="Layer_1" version="1.1" viewBox="0 0 32 32" width="32px" xml:space="preserve" xmlns="http://www.w3.org/2000/svg" xmlns:xlink="http://www.w3.org/1999/xlink"><g><path d="M15.42,7.221c0-0.951-0.771-1.721-1.721-1.721H6.729c-0.951,0-1.721,0.771-1.721,1.721v6.103   c0,0.951,0.771,1.721,1.721,1.721h6.971c0.951,0,1.721-0.771,1.721-1.721V7.221z" fill="#515151"/><path d="M27.742,7.221c0-0.951-0.77-1.721-1.721-1.721h-6.971c-0.951,0-1.721,0.771-1.721,1.721v6.103   c0,0.951,0.77,1.721,1.721,1.721h6.971c0.951,0,1.721-0.771,1.721-1.721V7.221z" fill="#515151"/><path d="M15.42,18.676c0-0.951-0.771-1.721-1.721-1.721H6.729c-0.951,0-1.721,0.77-1.721,1.721v6.104   c0,0.95,0.771,1.721,1.721,1.721h6.971c0.951,0,1.721-0.771,1.721-1.721V18.676z" fill="#515151"/><path d="M27.742,18.676c0-0.951-0.77-1.721-1.721-1.721h-6.971c-0.951,0-1.721,0.77-1.721,1.721v6.104   c0,0.95,0.77,1.721,1.721,1.721h6.971c0.951,0,1.721-0.771,1.721-1.721V18.676z" fill="#515151"/></g></svg>