<?xml version="1.0" ?><!DOCTYPE svg  PUBLIC '-//W3C//DTD SVG 1.1//EN'  'http://www.w3.org/Graphics/SVG/1.1/DTD/svg11.dtd'><svg enable-background="new 0 0 32 32" height="32px" id="Layer_1" version="1.1" viewBox="0 0 32 32" width="32px" xml:space="preserve" xmlns="http://www.w3.org/2000/svg" xmlns:xlink="http://www.w3.org/1999/xlink"><g id="grid-2"><path d="M10.246,4.228c0-0.547-0.443-0.991-0.99-0.991H3.914c-0.548,0-0.991,0.443-0.991,0.991V9.57   c0,0.546,0.443,0.99,0.991,0.99h5.342c0.547,0,0.99-0.444,0.99-0.99V4.228z" fill="#515151"/><path d="M19.453,4.228c0-0.547-0.443-0.991-0.991-0.991h-5.343c-0.546,0-0.99,0.443-0.99,0.991V9.57   c0,0.546,0.444,0.99,0.99,0.99h5.343c0.548,0,0.991-0.444,0.991-0.99V4.228z" fill="#515151"/><path d="M28.868,4.228c0-0.547-0.443-0.991-0.99-0.991h-5.342c-0.548,0-0.991,0.443-0.991,0.991V9.57   c0,0.546,0.443,0.99,0.991,0.99h5.342c0.547,0,0.99-0.444,0.99-0.99V4.228z" fill="#515151"/><path d="M10.246,13.224c0-0.547-0.443-0.99-0.99-0.99H3.914c-0.548,0-0.991,0.443-0.991,0.99v5.342   c0,0.549,0.443,0.99,0.991,0.99h5.342c0.547,0,0.99-0.441,0.99-0.99V13.224z" fill="#515151"/><path d="M19.453,13.224c0-0.547-0.443-0.99-0.991-0.99h-5.343c-0.546,0-0.99,0.443-0.99,0.99v5.342   c0,0.549,0.444,0.99,0.99,0.99h5.343c0.548,0,0.991-0.441,0.991-0.99V13.224z" fill="#515151"/><path d="M28.868,13.224c0-0.547-0.443-0.99-0.99-0.99h-5.342c-0.548,0-0.991,0.443-0.991,0.99v5.342   c0,0.549,0.443,0.99,0.991,0.99h5.342c0.547,0,0.99-0.441,0.99-0.99V13.224z" fill="#515151"/><path d="M10.246,22.43c0-0.545-0.443-0.99-0.99-0.99H3.914c-0.548,0-0.991,0.445-0.991,0.99v5.344   c0,0.547,0.443,0.99,0.991,0.99h5.342c0.547,0,0.99-0.443,0.99-0.99V22.43z" fill="#515151"/><path d="M19.453,22.43c0-0.545-0.443-0.99-0.991-0.99h-5.343c-0.546,0-0.99,0.445-0.99,0.99v5.344   c0,0.547,0.444,0.99,0.99,0.99h5.343c0.548,0,0.991-0.443,0.991-0.99V22.43z" fill="#515151"/><path d="M28.868,22.43c0-0.545-0.443-0.99-0.99-0.99h-5.342c-0.548,0-0.991,0.445-0.991,0.99v5.344   c0,0.547,0.443,0.99,0.991,0.99h5.342c0.547,0,0.99-0.443,0.99-0.99V22.43z" fill="#515151"/></g></svg>