<?xml version="1.0" ?><!DOCTYPE svg  PUBLIC '-//W3C//DTD SVG 1.1//EN'  'http://www.w3.org/Graphics/SVG/1.1/DTD/svg11.dtd'><svg enable-background="new 0 0 32 32" height="32px" id="Layer_1" version="1.1" viewBox="0 0 32 32" width="32px" xml:space="preserve" xmlns="http://www.w3.org/2000/svg" xmlns:xlink="http://www.w3.org/1999/xlink"><g><path d="M22.417,14.836c-1.209,2.763-3.846,5.074-6.403,5.074c-3.122,0-5.39-2.284-6.599-5.046   c-7.031,3.642-6.145,12.859-6.145,12.859c0,1.262,0.994,1.445,2.162,1.445h10.581h10.565c1.17,0,2.167-0.184,2.167-1.445   C28.746,27.723,29.447,18.479,22.417,14.836z" fill="#515151"/><path d="M16.013,18.412c3.521,0,6.32-5.04,6.32-9.204c0-4.165-2.854-7.541-6.375-7.541   c-3.521,0-6.376,3.376-6.376,7.541C9.582,13.373,12.491,18.412,16.013,18.412z" fill="#515151"/></g></svg>