<?xml version="1.0" ?><!DOCTYPE svg  PUBLIC '-//W3C//DTD SVG 1.1//EN'  'http://www.w3.org/Graphics/SVG/1.1/DTD/svg11.dtd'><svg enable-background="new 0 0 32 32" height="32px" id="Layer_1" version="1.1" viewBox="0 0 32 32" width="32px" xml:space="preserve" xmlns="http://www.w3.org/2000/svg" xmlns:xlink="http://www.w3.org/1999/xlink"><path d="M27.719,20.296l3.607-10.718c0.181-0.519,0.044-0.792-0.103-0.998c-0.374-0.527-1.142-0.512-1.292-0.512  L9.546,8.074L9.002,5.341C8.855,4.732,8.421,4,7.546,4H1.817C1.224,4,1,4.59,1,5.146v1.49C1,7.172,1.222,7,1.838,7h4.837  l3.702,15.873c-0.588,0.623-0.908,1.609-0.908,2.457c0,1.864,1.484,3.465,3.379,3.465c1.791,0,3.132-1.795,3.35-2.795h7.21  c0.218,1,1.305,2.873,3.349,2.873c1.862,0,3.378-1.535,3.378-3.396c0-1.852-1.125-3.609-3.359-3.609  c-0.928,0-2.031,0.133-2.543,1.133h-8.859c-0.643-1-1.521-1.311-2.409-1.345L12.843,21h13.479  C27.338,21,27.538,20.786,27.719,20.296z M11.537,25.514c0-0.709,0.577-1.286,1.286-1.286c0.707,0,1.283,0.577,1.283,1.286  s-0.576,1.285-1.283,1.285C12.113,26.799,11.537,26.223,11.537,25.514z M26.783,26.783c-0.7,0-1.27-0.57-1.27-1.27  c0-0.7,0.569-1.27,1.27-1.27c0.701,0,1.27,0.569,1.27,1.27C28.053,26.213,27.484,26.783,26.783,26.783z" fill="#515151"/></svg>