<?xml version="1.0" ?><!DOCTYPE svg  PUBLIC '-//W3C//DTD SVG 1.1//EN'  'http://www.w3.org/Graphics/SVG/1.1/DTD/svg11.dtd'><svg enable-background="new 0 0 32 32" height="32px" id="Layer_1" version="1.1" viewBox="0 0 32 32" width="32px" xml:space="preserve" xmlns="http://www.w3.org/2000/svg" xmlns:xlink="http://www.w3.org/1999/xlink"><g><g><path d="M29.08,20.045c-0.644-0.369-0.969-1.646-0.723-2.838c0,0,0,0,0-1.148c0-1.204-0.01-1.252-0.01-1.252    c-0.265-1.219,0.057-2.524,0.713-2.9c0.656-0.375,0.687-1.568,0.068-2.651l-0.67-1.171C27.84,7,26.789,6.423,26.123,6.801    c-0.664,0.376-2.009,0.052-2.987-0.723l-2.11-1.213c-1.153-0.476-2.098-1.483-2.098-2.24S17.906,1.25,16.659,1.25h-1.313    c-1.248,0-2.269,0.609-2.269,1.354c0,0.744-0.949,1.732-2.107,2.194l-2.208,1.21c-0.976,0.778-2.29,1.12-2.92,0.76    C5.21,6.409,4.188,7,3.568,8.084L2.899,9.255c-0.62,1.083-0.623,2.258-0.008,2.609c0.615,0.352,0.897,1.637,0.625,2.854    c0,0-0.023,0.104-0.023,1.339c0,1.18,0,1.184,0,1.184c0.259,1.22-0.022,2.5-0.626,2.846c-0.603,0.344-0.59,1.512,0.029,2.596    l0.669,1.172c0.619,1.084,1.618,1.689,2.218,1.348c0.601-0.344,1.89,0.015,2.864,0.796l2.323,1.313    c1.157,0.467,2.105,1.431,2.105,2.144c0,0.711,1.021,1.294,2.269,1.294h1.313c1.248,0,2.269-0.592,2.269-1.316    c0-0.724,0.942-1.707,2.095-2.188l2.226-1.315c0.977-0.778,2.293-1.119,2.928-0.76c0.633,0.361,1.658-0.23,2.277-1.314    l0.671-1.172C29.744,21.6,29.725,20.412,29.08,20.045z M15.88,23.984c-4.444,0-8.045-3.602-8.045-8.045    c0-4.443,3.602-8.045,8.045-8.045c4.443,0,8.045,3.603,8.045,8.045C23.926,20.383,20.323,23.984,15.88,23.984z" fill="#515151"/></g><g><circle cx="15.962" cy="15.859" fill="#515151" r="3.356"/></g></g></svg>