<svg width="12" height="12" viewBox="0 0 12 12" fill="none" xmlns="http://www.w3.org/2000/svg">
<path fill-rule="evenodd" clip-rule="evenodd" d="M1.90789 10.0921C1.86651 10.0508 1.83368 10.0018 1.81128 9.9478C1.78887 9.89382 1.77734 9.83594 1.77734 9.77749C1.77734 9.71904 1.78887 9.66117 1.81128 9.60718C1.83368 9.55319 1.86651 9.50416 1.90789 9.46288L5.14912 6.22254L1.90789 2.9822C1.82445 2.89876 1.77758 2.78559 1.77758 2.66759C1.77758 2.54958 1.82445 2.43641 1.90789 2.35297C1.99133 2.26953 2.1045 2.22266 2.22251 2.22266C2.34051 2.22266 2.45368 2.26953 2.53712 2.35297L6.09207 5.90793C6.13346 5.9492 6.16629 5.99824 6.18869 6.05223C6.21109 6.10621 6.22262 6.16409 6.22262 6.22254C6.22262 6.28099 6.21109 6.33886 6.18869 6.39285C6.16629 6.44684 6.13346 6.49587 6.09207 6.53715L2.53712 10.0921C2.49584 10.1335 2.44681 10.1663 2.39282 10.1887C2.33883 10.2111 2.28096 10.2227 2.22251 10.2227C2.16406 10.2227 2.10618 10.2111 2.0522 10.1887C1.99821 10.1663 1.94917 10.1335 1.90789 10.0921Z" fill="black" fill-opacity="0.5"/>
<path fill-rule="evenodd" clip-rule="evenodd" d="M5.90789 10.0921C5.86651 10.0508 5.83368 10.0018 5.81128 9.9478C5.78887 9.89382 5.77734 9.83594 5.77734 9.77749C5.77734 9.71904 5.78887 9.66117 5.81128 9.60718C5.83368 9.55319 5.86651 9.50416 5.90789 9.46288L9.14912 6.22254L5.90789 2.9822C5.82445 2.89876 5.77758 2.78559 5.77758 2.66759C5.77758 2.54958 5.82445 2.43641 5.90789 2.35297C5.99133 2.26953 6.1045 2.22266 6.22251 2.22266C6.34051 2.22266 6.45368 2.26953 6.53712 2.35297L10.0921 5.90793C10.1335 5.9492 10.1663 5.99824 10.1887 6.05223C10.2111 6.10621 10.2226 6.16409 10.2226 6.22254C10.2226 6.28099 10.2111 6.33886 10.1887 6.39285C10.1663 6.44684 10.1335 6.49587 10.0921 6.53715L6.53712 10.0921C6.49584 10.1335 6.44681 10.1663 6.39282 10.1887C6.33883 10.2111 6.28096 10.2227 6.22251 10.2227C6.16406 10.2227 6.10618 10.2111 6.0522 10.1887C5.99821 10.1663 5.94917 10.1335 5.90789 10.0921Z" fill="black" fill-opacity="0.5"/>
</svg>
