<svg xmlns="http://www.w3.org/2000/svg" viewBox="0 0 12 12" fill="none">
<path fill-rule="evenodd" clip-rule="evenodd" d="M3.90789 10.0921C3.86651 10.0508 3.83368 10.0018 3.81128 9.9478C3.78887 9.89382 3.77734 9.83594 3.77734 9.77749C3.77734 9.71904 3.78887 9.66117 3.81128 9.60718C3.83368 9.55319 3.86651 9.50416 3.90789 9.46288L7.14912 6.22254L3.90789 2.9822C3.82445 2.89876 3.77758 2.78559 3.77758 2.66759C3.77758 2.54958 3.82445 2.43641 3.90789 2.35297C3.99133 2.26953 4.1045 2.22266 4.22251 2.22266C4.34051 2.22266 4.45368 2.26953 4.53712 2.35297L8.09207 5.90793C8.13346 5.9492 8.16629 5.99824 8.18869 6.05223C8.21109 6.10621 8.22262 6.16409 8.22262 6.22254C8.22262 6.28099 8.21109 6.33886 8.18869 6.39285C8.16629 6.44684 8.13346 6.49587 8.09207 6.53715L4.53712 10.0921C4.49584 10.1335 4.44681 10.1663 4.39282 10.1887C4.33883 10.2111 4.28096 10.2227 4.22251 10.2227C4.16406 10.2227 4.10618 10.2111 4.0522 10.1887C3.99821 10.1663 3.94917 10.1335 3.90789 10.0921Z" fill="black" fill-opacity="0.5"/>
</svg>
