<svg width="12" height="12" viewBox="0 0 12 12" fill="none" xmlns="http://www.w3.org/2000/svg">
<path fill-rule="evenodd" clip-rule="evenodd" d="M10.0921 1.90789C10.1335 1.94917 10.1663 1.99821 10.1887 2.0522C10.2111 2.10618 10.2227 2.16406 10.2227 2.22251C10.2227 2.28096 10.2111 2.33883 10.1887 2.39282C10.1663 2.44681 10.1335 2.49584 10.0921 2.53712L6.85088 5.77746L10.0921 9.0178C10.1755 9.10124 10.2224 9.21441 10.2224 9.33241C10.2224 9.45042 10.1755 9.56359 10.0921 9.64703C10.0087 9.73047 9.8955 9.77734 9.77749 9.77734C9.65949 9.77734 9.54632 9.73047 9.46288 9.64703L5.90793 6.09207C5.86654 6.0508 5.83371 6.00176 5.81131 5.94777C5.78891 5.89379 5.77738 5.83591 5.77738 5.77746C5.77738 5.71901 5.78891 5.66113 5.81131 5.60715C5.83371 5.55316 5.86654 5.50413 5.90793 5.46285L9.46288 1.90789C9.50416 1.86651 9.55319 1.83368 9.60718 1.81128C9.66117 1.78887 9.71904 1.77734 9.77749 1.77734C9.83594 1.77734 9.89382 1.78887 9.9478 1.81128C10.0018 1.83368 10.0508 1.86651 10.0921 1.90789Z" fill="black" fill-opacity="0.5"/>
<path fill-rule="evenodd" clip-rule="evenodd" d="M6.09211 1.90789C6.13349 1.94917 6.16632 1.99821 6.18872 2.0522C6.21113 2.10618 6.22266 2.16406 6.22266 2.22251C6.22266 2.28096 6.21113 2.33883 6.18872 2.39282C6.16632 2.44681 6.13349 2.49584 6.09211 2.53712L2.85088 5.77746L6.09211 9.0178C6.17555 9.10124 6.22242 9.21441 6.22242 9.33241C6.22242 9.45042 6.17555 9.56359 6.09211 9.64703C6.00867 9.73047 5.8955 9.77734 5.77749 9.77734C5.65949 9.77734 5.54632 9.73047 5.46288 9.64703L1.90793 6.09207C1.86654 6.0508 1.83371 6.00176 1.81131 5.94777C1.78891 5.89379 1.77738 5.83591 1.77738 5.77746C1.77738 5.71901 1.78891 5.66113 1.81131 5.60715C1.83371 5.55316 1.86654 5.50413 1.90793 5.46285L5.46288 1.90789C5.50416 1.86651 5.55319 1.83368 5.60718 1.81128C5.66117 1.78887 5.71904 1.77734 5.77749 1.77734C5.83594 1.77734 5.89382 1.78887 5.9478 1.81128C6.00179 1.83368 6.05083 1.86651 6.09211 1.90789Z" fill="black" fill-opacity="0.5"/>
</svg>
