<svg xmlns="http://www.w3.org/2000/svg" viewBox="0 0 12 12" fill="none">
<path fill-rule="evenodd" clip-rule="evenodd" d="M8.09211 10.0921C8.13349 10.0508 8.16632 10.0018 8.18872 9.9478C8.21113 9.89382 8.22266 9.83594 8.22266 9.77749C8.22266 9.71904 8.21113 9.66117 8.18872 9.60718C8.16632 9.55319 8.13349 9.50416 8.09211 9.46288L4.85088 6.22254L8.09211 2.9822C8.17555 2.89876 8.22242 2.78559 8.22242 2.66759C8.22242 2.54958 8.17555 2.43641 8.09211 2.35297C8.00867 2.26953 7.8955 2.22266 7.77749 2.22266C7.65949 2.22266 7.54632 2.26953 7.46288 2.35297L3.90793 5.90793C3.86654 5.9492 3.83371 5.99824 3.81131 6.05223C3.78891 6.10621 3.77738 6.16409 3.77738 6.22254C3.77738 6.28099 3.78891 6.33886 3.81131 6.39285C3.83371 6.44684 3.86654 6.49587 3.90793 6.53715L7.46288 10.0921C7.50416 10.1335 7.55319 10.1663 7.60718 10.1887C7.66117 10.2111 7.71904 10.2227 7.77749 10.2227C7.83594 10.2227 7.89382 10.2111 7.9478 10.1887C8.00179 10.1663 8.05083 10.1335 8.09211 10.0921Z" fill="black" fill-opacity="0.5"/>
</svg>