<svg xmlns="http://www.w3.org/2000/svg" width="16" height="16" viewBox="0 0 16 16" fill="none">
<path d="M3.33333 14.6668C2.96667 14.6668 2.65267 14.5362 2.39133 14.2748C2.13 14.0135 1.99956 13.6997 2 13.3335V4.00017C2 3.6335 2.13067 3.3195 2.392 3.05817C2.65333 2.79683 2.96711 2.66639 3.33333 2.66683H4V2.00017C4 1.81128 4.064 1.65283 4.192 1.52483C4.32 1.39683 4.47822 1.33305 4.66667 1.3335C4.85556 1.3335 5.014 1.3975 5.142 1.5255C5.27 1.6535 5.33378 1.81172 5.33333 2.00017V2.66683H10.6667V2.00017C10.6667 1.81128 10.7307 1.65283 10.8587 1.52483C10.9867 1.39683 11.1449 1.33305 11.3333 1.3335C11.5222 1.3335 11.6807 1.3975 11.8087 1.5255C11.9367 1.6535 12.0004 1.81172 12 2.00017V2.66683H12.6667C13.0333 2.66683 13.3473 2.7975 13.6087 3.05883C13.87 3.32017 14.0004 3.63394 14 4.00017V13.3335C14 13.7002 13.8693 14.0142 13.608 14.2755C13.3467 14.5368 13.0329 14.6673 12.6667 14.6668H3.33333ZM3.33333 13.3335H12.6667V6.66683H3.33333V13.3335ZM3.33333 5.3335H12.6667V4.00017H3.33333V5.3335ZM8 9.3335C7.81111 9.3335 7.65267 9.2695 7.52467 9.1415C7.39667 9.0135 7.33289 8.85528 7.33333 8.66683C7.33333 8.47794 7.39734 8.3195 7.52533 8.1915C7.65333 8.0635 7.81156 7.99972 8 8.00017C8.18889 8.00017 8.34733 8.06417 8.47534 8.19217C8.60333 8.32017 8.66711 8.47839 8.66667 8.66683C8.66667 8.85572 8.60267 9.01417 8.47467 9.14217C8.34667 9.27017 8.18845 9.33394 8 9.3335ZM5.33333 9.3335C5.14445 9.3335 4.986 9.2695 4.858 9.1415C4.73 9.0135 4.66622 8.85528 4.66667 8.66683C4.66667 8.47794 4.73067 8.3195 4.85867 8.1915C4.98667 8.0635 5.14489 7.99972 5.33333 8.00017C5.52222 8.00017 5.68067 8.06417 5.80867 8.19217C5.93667 8.32017 6.00045 8.47839 6 8.66683C6 8.85572 5.936 9.01417 5.808 9.14217C5.68 9.27017 5.52178 9.33394 5.33333 9.3335ZM10.6667 9.3335C10.4778 9.3335 10.3193 9.2695 10.1913 9.1415C10.0633 9.0135 9.99956 8.85528 10 8.66683C10 8.47794 10.064 8.3195 10.192 8.1915C10.32 8.0635 10.4782 7.99972 10.6667 8.00017C10.8556 8.00017 11.014 8.06417 11.142 8.19217C11.27 8.32017 11.3338 8.47839 11.3333 8.66683C11.3333 8.85572 11.2693 9.01417 11.1413 9.14217C11.0133 9.27017 10.8551 9.33394 10.6667 9.3335ZM8 12.0002C7.81111 12.0002 7.65267 11.9362 7.52467 11.8082C7.39667 11.6802 7.33289 11.5219 7.33333 11.3335C7.33333 11.1446 7.39734 10.9862 7.52533 10.8582C7.65333 10.7302 7.81156 10.6664 8 10.6668C8.18889 10.6668 8.34733 10.7308 8.47534 10.8588C8.60333 10.9868 8.66711 11.1451 8.66667 11.3335C8.66667 11.5224 8.60267 11.6808 8.47467 11.8088C8.34667 11.9368 8.18845 12.0006 8 12.0002ZM5.33333 12.0002C5.14445 12.0002 4.986 11.9362 4.858 11.8082C4.73 11.6802 4.66622 11.5219 4.66667 11.3335C4.66667 11.1446 4.73067 10.9862 4.85867 10.8582C4.98667 10.7302 5.14489 10.6664 5.33333 10.6668C5.52222 10.6668 5.68067 10.7308 5.80867 10.8588C5.93667 10.9868 6.00045 11.1451 6 11.3335C6 11.5224 5.936 11.6808 5.808 11.8088C5.68 11.9368 5.52178 12.0006 5.33333 12.0002ZM10.6667 12.0002C10.4778 12.0002 10.3193 11.9362 10.1913 11.8082C10.0633 11.6802 9.99956 11.5219 10 11.3335C10 11.1446 10.064 10.9862 10.192 10.8582C10.32 10.7302 10.4782 10.6664 10.6667 10.6668C10.8556 10.6668 11.014 10.7308 11.142 10.8588C11.27 10.9868 11.3338 11.1451 11.3333 11.3335C11.3333 11.5224 11.2693 11.6808 11.1413 11.8088C11.0133 11.9368 10.8551 12.0006 10.6667 12.0002Z" fill="black" fill-opacity="0.5"/>
</svg>