<svg width="14" height="3" viewBox="0 0 14 3" fill="none" xmlns="http://www.w3.org/2000/svg">
<path d="M1 0.768C1.252 0.768 1.468 0.852 1.636 1.044C1.816 1.212 1.912 1.416 1.912 1.68C1.912 1.92 1.816 2.136 1.636 2.316C1.468 2.496 1.252 2.592 1 2.592C0.736 2.592 0.532 2.496 0.364 2.316C0.172 2.136 0.0880001 1.92 0.0880001 1.68C0.0880001 1.416 0.172 1.212 0.364 1.044C0.532 0.852 0.736 0.768 1 0.768ZM7 0.768C7.252 0.768 7.468 0.852 7.636 1.044C7.816 1.212 7.912 1.416 7.912 1.68C7.912 1.92 7.816 2.136 7.636 2.316C7.468 2.496 7.252 2.592 7 2.592C6.736 2.592 6.532 2.496 6.364 2.316C6.172 2.136 6.088 1.92 6.088 1.68C6.088 1.416 6.172 1.212 6.364 1.044C6.532 0.852 6.736 0.768 7 0.768ZM13 0.768C13.252 0.768 13.468 0.852 13.636 1.044C13.816 1.212 13.912 1.416 13.912 1.68C13.912 1.92 13.816 2.136 13.636 2.316C13.468 2.496 13.252 2.592 13 2.592C12.736 2.592 12.532 2.496 12.364 2.316C12.172 2.136 12.088 1.92 12.088 1.68C12.088 1.416 12.172 1.212 12.364 1.044C12.532 0.852 12.736 0.768 13 0.768Z" fill="black" fill-opacity="0.5"/>
</svg>
