<?xml version="1.0" encoding="utf-8"?>
<!-- Generator: Adobe Illustrator 17.0.2, SVG Export Plug-In . SVG Version: 6.00 Build 0)  -->
<!DOCTYPE svg PUBLIC "-//W3C//DTD SVG 1.1//EN" "http://www.w3.org/Graphics/SVG/1.1/DTD/svg11.dtd">
<svg version="1.1" id="Layer_1" xmlns="http://www.w3.org/2000/svg" xmlns:xlink="http://www.w3.org/1999/xlink" x="0px" y="0px"
	 width="260.308px" height="78.658px" viewBox="0 0 260.308 78.658" enable-background="new 0 0 260.308 78.658"
	 xml:space="preserve">
<rect x="126.154" y="5.329" fill="#FFFFFF" width="20" height="12"/>
<g>
	<path fill="#FFFFFF" d="M38.989,12.764c1.728,0.192,3.39,0.364,4.985,0.515c1.594,0.154,3.127,0.229,4.599,0.229
		c0.419,0,0.82-0.09,1.203-0.272c0.382-0.18,0.716-0.424,1.003-0.73c0.287-0.305,0.516-0.639,0.688-1.003
		c0.172-0.362,0.258-0.735,0.258-1.117c0-0.61-0.186-1.165-0.559-1.662c-0.373-0.496-1.017-0.839-1.934-1.031
		c-3.954-0.706-7.75-1.193-11.389-1.461c-3.64-0.267-7.121-0.402-10.445-0.402c-2.445,0-4.813,0.057-7.105,0.172
		C18,6.116,15.852,6.327,13.845,6.632c-2.005,0.307-3.844,0.73-5.516,1.275C6.658,8.451,5.226,9.145,4.032,9.984
		c-1.194,0.841-2.12,1.858-2.779,3.051c-0.659,1.195-0.989,2.593-0.989,4.198c0.038,0.688,0.229,1.299,0.573,1.833
		c0.287,0.458,0.745,0.88,1.375,1.261C2.843,20.709,3.731,20.9,4.877,20.9s2.029-0.187,2.65-0.559
		c0.621-0.373,1.075-0.783,1.361-1.232c0.286-0.448,0.453-0.864,0.501-1.247c0.047-0.381,0.071-0.592,0.071-0.63
		c0-0.725,0.187-1.355,0.559-1.892c0.373-0.534,0.878-0.993,1.519-1.375c0.64-0.381,1.385-0.696,2.235-0.946
		c0.85-0.248,1.766-0.453,2.75-0.616c0.984-0.162,1.996-0.291,3.038-0.387c1.041-0.095,2.067-0.181,3.08-0.258
		c-1.166,3.63-2.25,6.925-3.252,9.885c-1.003,2.961-1.934,5.669-2.793,8.123c-0.859,2.456-1.644,4.705-2.35,6.748
		c-0.707,2.044-1.337,3.978-1.891,5.802c-0.555,1.824-1.036,3.577-1.447,5.258c-0.411,1.682-0.741,3.391-0.989,5.128
		c-0.114,0.44-0.171,0.842-0.171,1.203c0,1.147,0.353,1.978,1.06,2.494s1.604,0.772,2.694,0.772c0.362,0,0.754-0.109,1.174-0.328
		c0.42-0.22,0.826-0.531,1.218-0.933c0.391-0.401,0.745-0.873,1.06-1.418c0.315-0.545,0.549-1.141,0.702-1.791
		c0.362-1.412,0.826-3.103,1.39-5.07c0.563-1.968,1.17-4.112,1.819-6.433c0.649-2.322,1.323-4.757,2.02-7.307
		c0.697-2.551,1.365-5.11,2.006-7.679c0.64-2.569,1.227-5.086,1.762-7.551c0.534-2.464,0.974-4.765,1.318-6.905
		c1.948,0.097,3.84,0.239,5.673,0.43C35.478,12.382,37.259,12.573,38.989,12.764z"/>
	<path fill="#FFFFFF" d="M256.705,38.809c-0.764,0.479-1.604,0.908-2.521,1.29c-0.916,0.382-1.805,0.572-2.664,0.572
		c-0.306,0-0.598-0.057-0.874-0.172c-0.277-0.114-0.525-0.309-0.745-0.587c-0.22-0.276-0.397-0.645-0.53-1.104
		c-0.134-0.458-0.201-1.031-0.201-1.718c0-0.401,0.049-0.903,0.144-1.505c0.096-0.601,0.201-1.222,0.315-1.861
		c0.115-0.639,0.22-1.251,0.315-1.834c0.096-0.582,0.144-1.036,0.144-1.361c0-0.42-0.077-0.797-0.229-1.133
		c-0.153-0.333-0.358-0.615-0.616-0.845c-0.257-0.229-0.559-0.405-0.902-0.53c-0.344-0.123-0.697-0.186-1.06-0.186
		c-1.052,0-1.978,0.282-2.78,0.845c-0.802,0.564-1.519,1.257-2.148,2.078c-0.631,0.822-1.185,1.633-1.662,2.579
		c-0.478,0.944-0.907,1.493-1.289,2.493h-0.315c-0.039-1-0.11-1.819-0.11-2.822c0-1.002,0-1.856,0-2.564
		c0-0.592,0.014-1.06-0.016-1.404c-0.029-0.344-0.098-0.606-0.23-0.788c-0.136-0.18-0.333-0.295-0.609-0.343
		c-0.277-0.048-0.662-0.072-1.158-0.072c-0.439,0-0.806,0.024-1.102,0.072s-0.542,0.143-0.743,0.286
		c-0.199,0.144-0.378,0.34-0.53,0.588c-0.152,0.249-0.306,0.583-0.457,1.002c-0.25,0.631-0.498,1.433-0.745,2.407
		c-0.249,0.974-0.498,2.044-0.746,3.209s-0.481,2.392-0.701,3.681c-0.215,1.26-0.401,2.496-0.562,3.709
		c-0.637,0.582-1.369,1.188-2.204,1.821c-1.07,0.812-2.206,1.562-3.409,2.249c-1.203,0.688-2.441,1.261-3.711,1.72
		c-1.271,0.458-2.478,0.688-3.624,0.688c-0.363,0-0.702-0.038-1.018-0.114c-0.315-0.077-0.615-0.21-0.902-0.401
		c-0.286-0.19-0.569-0.459-0.846-0.803s-0.558-0.773-0.845-1.29c1.662-0.457,3.204-1.097,4.628-1.92
		c1.422-0.82,2.649-1.756,3.681-2.808c1.032-1.05,1.838-2.167,2.422-3.353c0.583-1.183,0.873-2.367,0.873-3.552
		c0-1.088-0.189-2.071-0.572-2.951c-0.383-0.879-0.913-1.628-1.59-2.25c-0.679-0.621-1.476-1.103-2.394-1.447
		c-0.916-0.344-1.909-0.515-2.979-0.515c-1.317,0-2.517,0.234-3.596,0.702c-1.08,0.469-2.054,1.099-2.923,1.891
		c-0.869,0.793-1.628,1.71-2.277,2.75c-0.65,1.042-1.188,2.135-1.619,3.281c-0.43,1.146-0.749,2.316-0.959,3.511
		c-0.211,1.193-0.315,2.326-0.315,3.395c0,0.029,0.003,0.058,0.003,0.087c-0.691,0.585-1.412,1.145-2.167,1.675
		c-0.773,0.545-1.558,1.047-2.349,1.504c-0.794,0.459-1.548,0.855-2.265,1.189c-0.716,0.336-1.375,0.598-1.977,0.788
		c-0.602,0.191-1.104,0.287-1.504,0.287c-0.65,0-1.238-0.101-1.762-0.301c-0.526-0.201-0.971-0.524-1.333-0.975
		c-0.363-0.448-0.641-1.025-0.831-1.733c-0.191-0.706-0.287-1.576-0.287-2.608c0-0.4,0.004-0.838,0.015-1.317
		c0.009-0.478,0.023-0.974,0.043-1.49c0.019-0.515,0.038-1.035,0.058-1.562c0.019-0.524,0.037-1.035,0.057-1.533
		c0.058-1.146,0.124-2.31,0.201-3.495c0.478-0.592,0.997-1.176,1.562-1.912c0.563-0.734,1.121-2.169,1.677-2.169h11.002
		c0.458,0,0.878-0.289,1.261-0.71c0.382-0.42,0.573-1.005,0.573-1.675c0-0.553-0.086-1.031-0.258-1.396
		c-0.172-0.362-0.449-0.562-0.831-0.581c-0.325-0.019-0.735-0.042-1.232-0.063c-0.496-0.019-1.031-0.041-1.604-0.06
		c-0.573-0.02-1.165-0.044-1.776-0.073c-0.611-0.028-1.18-0.052-1.705-0.071c-0.525-0.019-0.988-0.034-1.39-0.043
		c-0.4-0.01-0.687-0.024-0.859-0.045c0.688-1.088,1.342-2.186,1.963-3.294c0.62-1.107,1.16-2.2,1.619-3.281
		c0.458-1.079,0.82-2.139,1.089-3.18c0.268-1.04,0.4-2.029,0.4-2.966c0-1.107-0.128-2.172-0.386-3.195
		c-0.259-1.021-0.627-1.914-1.104-2.679c-0.478-0.763-1.057-1.375-1.733-1.834c-0.679-0.458-1.429-0.688-2.25-0.688
		c-1.279,0-2.502,0.569-3.668,1.705c-1.165,1.138-2.239,2.646-3.222,4.527c-0.985,1.883-1.873,4.031-2.666,6.447
		c-0.793,2.417-1.447,4.914-1.962,7.492c-0.191,0.039-0.54,0.053-1.046,0.043c-0.506-0.008-1.08-0.022-1.72-0.043
		c-0.64-0.018-1.309-0.022-2.005-0.014c-0.698,0.01-1.338,0.063-1.92,0.158c-0.583,0.096-1.061,0.244-1.433,0.444
		c-0.373,0.2-0.56,0.493-0.56,0.874c0,0.172,0.011,0.378,0.029,0.616c0.02,0.239,0.086,0.468,0.2,0.688
		c0.115,0.221,0.297,0.412,0.545,0.573c0.249,0.163,0.601,0.272,1.06,0.33c1.031,0.114,1.82,0.21,2.364,0.286
		c0.544,0.078,0.993,0.15,1.347,0.215c0.354,0.067,0.688,0.135,1.003,0.201c0.315,0.067,0.759,0.139,1.332,0.215
		c-0.172,1.281-0.306,2.57-0.401,3.868c-0.096,1.299-0.144,2.522-0.144,3.668c0,2.636,0.158,5.018,0.458,7.177
		c-0.455,0.293-0.908,0.56-1.36,0.803c-0.907,0.486-1.79,0.931-2.649,1.332c-0.86,0.401-1.687,0.788-2.479,1.16
		c-0.792,0.373-1.533,0.789-2.22,1.246c0-1.222-0.043-2.281-0.129-3.181c-0.086-0.896-0.201-1.689-0.345-2.377
		c-0.143-0.688-0.29-1.294-0.444-1.82c-0.152-0.523-0.3-1.021-0.443-1.49c-0.143-0.467-0.258-0.945-0.344-1.432
		c-0.086-0.488-0.129-1.026-0.129-1.619c0.057-0.209,0.281-0.53,0.674-0.959c0.391-0.43,0.806-0.903,1.246-1.418
		c0.439-0.516,0.84-1.05,1.203-1.604c0.362-0.553,0.545-1.061,0.545-1.519c0-0.229-0.02-0.501-0.058-0.817
		c-0.039-0.315-0.172-0.616-0.401-0.902s-0.593-0.53-1.089-0.731c-0.497-0.201-1.204-0.3-2.12-0.3c-0.555,0-1.056,0.081-1.504,0.243
		c-0.449,0.164-0.859,0.373-1.232,0.631c-0.373,0.258-0.712,0.55-1.017,0.874c-0.307,0.326-0.584,0.66-0.832,1.003
		c-1.223,1.529-2.216,2.804-2.979,3.825c-0.764,1.023-1.414,1.887-1.948,2.594c-0.535,0.708-0.999,1.318-1.39,1.833
		c-0.392,0.516-0.826,1.027-1.304,1.533c-0.479,0.508-1.051,1.066-1.72,1.677c-0.668,0.612-1.538,1.375-2.606,2.292
		c-0.154,0.135-0.384,0.315-0.688,0.544c-0.305,0.229-0.611,0.498-0.916,0.803c-0.307,0.307-0.574,0.654-0.802,1.046
		c-0.229,0.393-0.345,0.817-0.345,1.274c0,0.117,0.004,0.227,0.011,0.331c-1.172,0.547-2.45,0.994-3.851,1.331
		c-1.586,0.383-3.342,0.573-5.271,0.573l-0.172-0.602c1.719-0.763,3.204-1.627,4.455-2.593c1.25-0.965,2.283-2,3.095-3.109
		c0.812-1.106,1.408-2.268,1.791-3.481c0.381-1.211,0.572-2.468,0.572-3.767c0-1.623-0.22-2.994-0.658-4.112
		c-0.44-1.117-1.042-2.028-1.806-2.736c-0.765-0.707-1.652-1.218-2.664-1.533c-1.013-0.315-2.103-0.472-3.267-0.472
		c-1.566,0-2.904,0.286-4.012,0.859c-1.108,0.573-2.059,1.346-2.851,2.32c-0.793,0.975-1.443,2.121-1.949,3.438
		s-0.927,2.713-1.261,4.183c-0.334,1.472-0.682,2.99-0.9,4.557c-0.033,0.24-0.169,0.475-0.169,0.713v-0.484
		c-1,0.516-1.288,1.138-2.108,1.862c-0.821,0.727-1.626,1.429-2.487,2.106c-0.859,0.679-1.691,1.257-2.532,1.733
		c-0.841,0.479-1.595,0.716-2.283,0.716c-0.593,0-0.98-0.252-1.17-0.759c-0.191-0.506-0.285-1.189-0.285-2.049
		c0-0.879,0.098-1.866,0.288-2.965s0.43-2.226,0.717-3.382c0.287-1.154,0.591-2.311,0.917-3.467c0.324-1.154,0.63-2.234,0.916-3.237
		c0.287-1.003,0.525-1.9,0.717-2.694c0.19-0.792,0.287-1.398,0.287-1.82c0-0.496-0.144-0.892-0.43-1.189
		c-0.287-0.295-0.832-0.443-1.633-0.443c-0.44,0-0.931,0.052-1.476,0.157c-0.545,0.106-1.07,0.269-1.576,0.487
		c-0.507,0.221-0.96,0.507-1.361,0.86s-0.668,0.779-0.803,1.275c-0.343,1.433-0.74,2.999-1.188,4.699
		c-0.449,1.7-0.874,3.405-1.275,5.114c-0.158,0.677-0.299,1.336-0.439,1.995c-0.35,0.342-0.717,0.681-1.108,1.014
		c-0.707,0.602-1.447,1.175-2.221,1.719c-0.773,0.545-1.558,1.047-2.35,1.504c-0.793,0.459-1.547,0.855-2.264,1.189
		c-0.716,0.336-1.375,0.598-1.977,0.788c-0.602,0.191-1.104,0.287-1.504,0.287c-0.65,0-1.237-0.101-1.762-0.301
		c-0.526-0.201-0.97-0.524-1.332-0.975c-0.364-0.448-0.641-1.025-0.831-1.733c-0.191-0.706-0.287-1.576-0.287-2.608
		c0-0.4,0.004-0.838,0.014-1.317c0.009-0.478,0.023-0.974,0.043-1.49c0.019-0.515,0.038-1.035,0.058-1.562
		c0.019-0.524,0.038-1.035,0.057-1.533c0.057-1.146,0.124-2.31,0.2-3.495c0.477-0.592,0.998-1.176,1.562-1.912
		c0.563-0.734,1.122-2.169,1.676-2.169h11.003c0.459,0,0.878-0.289,1.261-0.71c0.382-0.42,0.573-1.005,0.573-1.675
		c0-0.553-0.086-1.031-0.258-1.396c-0.172-0.362-0.45-0.562-0.831-0.581c-0.326-0.019-0.736-0.042-1.233-0.063
		c-0.497-0.019-1.031-0.041-1.604-0.06c-0.573-0.02-1.166-0.044-1.776-0.073c-0.612-0.028-1.18-0.052-1.705-0.071
		s-0.988-0.034-1.39-0.043c-0.4-0.01-0.688-0.024-0.859-0.045c0.688-1.088,1.341-2.186,1.963-3.294c0.62-1.107,1.16-2.2,1.619-3.281
		c0.458-1.079,0.82-2.139,1.088-3.18c0.267-1.04,0.401-2.029,0.401-2.966c0-1.107-0.129-2.172-0.387-3.195
		c-0.258-1.021-0.626-1.914-1.103-2.679c-0.479-0.763-1.057-1.375-1.734-1.834c-0.678-0.458-1.428-0.688-2.249-0.688
		c-1.281,0-2.503,0.569-3.667,1.705c-1.166,1.138-2.24,2.646-3.224,4.527c-0.984,1.883-1.873,4.031-2.665,6.447
		c-0.793,2.417-1.447,4.914-1.962,7.492c-0.191,0.039-0.54,0.053-1.046,0.043c-0.42-0.007-0.896-0.019-1.407-0.035
		c0.1-0.203,0.205-0.405,0.304-0.61c0.917-1.891,1.724-3.776,2.421-5.659c0.697-1.881,1.251-3.753,1.662-5.616
		c0.411-1.862,0.616-3.69,0.616-5.487c0-0.802-0.062-1.59-0.186-2.364c-0.125-0.773-0.339-1.466-0.645-2.078
		c-0.306-0.61-0.727-1.103-1.261-1.476c-0.535-0.372-1.213-0.559-2.034-0.559c-1.204,0-2.389,0.364-3.553,1.089
		c-1.166,0.726-2.283,1.725-3.352,2.994c-1.071,1.271-2.092,2.761-3.066,4.47c-0.974,1.711-1.877,3.549-2.708,5.516
		c-0.831,1.968-1.576,4.021-2.235,6.16c-0.659,2.14-1.228,4.27-1.704,6.389c-0.479,2.121-0.842,4.179-1.089,6.175
		c-0.011,0.085-0.017,0.166-0.028,0.25c-0.952-0.891-1.959-1.701-3.023-2.428c-1.386-0.946-2.871-1.7-4.456-2.264
		c-1.586-0.563-3.286-0.845-5.101-0.845c-2.12,0-4.03,0.386-5.73,1.16c-1.701,0.773-3.138,1.834-4.312,3.181
		c-0.559,0.64-1.05,1.337-1.486,2.086c-0.021-0.021-0.04-0.045-0.061-0.066c-1.194-1.222-2.483-2.306-3.868-3.251
		c-1.386-0.946-2.87-1.7-4.456-2.264c-1.585-0.563-3.285-0.845-5.1-0.845c-2.12,0-4.03,0.386-5.73,1.16
		c-1.701,0.773-3.138,1.834-4.312,3.181c-1.174,1.347-2.077,2.933-2.708,4.756c-0.63,1.825-0.946,3.788-0.946,5.888
		c0,1.529,0.176,3.037,0.53,4.527s0.912,2.828,1.676,4.011c0.764,1.186,1.743,2.146,2.937,2.88c1.193,0.736,2.631,1.104,4.312,1.104
		c1.165,0,2.264-0.2,3.295-0.602c1.032-0.401,1.981-0.945,2.851-1.634c0.869-0.688,1.643-1.498,2.32-2.435s1.251-1.938,1.719-3.009
		c0.468-1.069,0.826-2.178,1.075-3.324c0.248-1.146,0.372-2.282,0.372-3.409s-0.139-2.308-0.415-3.539
		c-0.277-1.232-0.692-2.401-1.247-3.509l0.229-0.315c0.688,0.458,1.509,1.027,2.464,1.705c0.955,0.679,1.924,1.399,2.908,2.163
		c0.217,0.169,0.42,0.341,0.631,0.51c-0.422,1.535-0.646,3.158-0.646,4.877c0,1.529,0.177,3.037,0.53,4.527
		c0.354,1.49,0.913,2.828,1.676,4.011c0.764,1.186,1.743,2.146,2.937,2.88c1.193,0.736,2.631,1.104,4.312,1.104
		c1.165,0,2.264-0.2,3.294-0.602c1.032-0.401,1.981-0.945,2.852-1.634c0.869-0.688,1.643-1.498,2.321-2.435
		c0.677-0.937,1.251-1.938,1.719-3.009c0.468-1.069,0.826-2.178,1.074-3.324s0.373-2.282,0.373-3.409s-0.14-2.308-0.416-3.539
		c-0.277-1.232-0.693-2.401-1.246-3.509l0.229-0.315c0.688,0.458,1.508,1.027,2.463,1.705c0.955,0.679,1.924,1.399,2.908,2.163
		c0.312,0.243,0.61,0.49,0.912,0.736c-0.002,0.165-0.009,0.333-0.009,0.496c0,2.216,0.187,4.333,0.559,6.346
		c0.372,2.017,0.888,3.788,1.547,5.315c0.659,1.529,1.433,2.747,2.321,3.653c0.888,0.908,1.848,1.361,2.879,1.361
		c0.648,0,1.347-0.091,2.091-0.272c0.745-0.181,1.509-0.424,2.292-0.73s1.562-0.653,2.335-1.046
		c0.773-0.391,1.523-0.788,2.249-1.188c1.323-0.76,2.658-1.608,4.005-2.538c0.088,0.221,0.17,0.452,0.265,0.661
		c0.745,1.652,1.671,2.918,2.779,3.796c1.107,0.879,2.388,1.318,3.84,1.318c0.706,0,1.494-0.134,2.364-0.401
		c0.869-0.266,1.862-0.667,2.979-1.203c1.118-0.534,2.393-1.204,3.825-2.006c0.948-0.53,1.992-1.125,3.115-1.773
		c0.023,0.711,0.097,1.381,0.251,1.988c0.182,0.716,0.481,1.324,0.902,1.82c0.42,0.496,0.97,0.883,1.647,1.16
		c0.678,0.277,1.514,0.415,2.507,0.415c1.108,0,2.278-0.2,3.51-0.602s2.44-0.902,3.625-1.505c1.11-0.563,2.143-1.184,3.111-1.849
		c-0.79,1.34-1.534,2.659-2.223,3.955c-0.554,1.05-1.093,2.134-1.619,3.251c-0.524,1.119-0.998,2.218-1.418,3.296
		c-0.42,1.079-0.753,2.11-1.002,3.095c-0.248,0.983-0.373,1.866-0.373,2.65c0,1.356,0.091,2.641,0.272,3.854
		c0.183,1.214,0.488,2.273,0.917,3.181c0.43,0.907,1.008,1.629,1.733,2.163c0.727,0.534,1.633,0.803,2.722,0.803
		c1.356,0,2.666-0.545,3.926-1.634c1.261-1.089,2.378-2.636,3.353-4.642c0.974-2.006,1.815-4.427,2.399-7.264
		c0.58-2.836,0.938-5.992,0.938-9.47v-0.516c2,0.229,2.777,0.426,3.703,0.588c0.928,0.162,1.606,0.292,2.104,0.387
		c0.496,0.096,0.829,0.163,1.029,0.201c0.2,0.037,0.36,0.057,0.493,0.057c1.108,0,2.226-0.157,3.362-0.473s2.221-0.735,3.252-1.261
		c0.83-0.422,1.592-0.916,2.316-1.451c0.066,0.128,0.128,0.257,0.201,0.376c0.459,0.728,1.056,1.313,1.792,1.763
		c0.735,0.45,1.59,0.779,2.564,0.989s2.024,0.313,3.151,0.313c1.566,0,3.224-0.176,4.972-0.529c1.747-0.352,3.476-0.835,5.186-1.446
		c1.709-0.61,3.343-1.318,4.899-2.121c1.508-0.777,2.837-1.608,3.995-2.493c0.154,0.424,0.315,0.833,0.489,1.219
		c0.746,1.652,1.672,2.918,2.779,3.796c1.107,0.879,2.388,1.318,3.84,1.318c0.706,0,1.494-0.134,2.363-0.401
		c0.869-0.266,1.863-0.667,2.98-1.203c1.117-0.534,2.393-1.204,3.825-2.006c1.231-0.69,2.621-1.484,4.15-2.373
		c0.396,0.868,0.876,1.669,1.465,2.388c0.898,1.099,2.021,1.972,3.367,2.621c1.347,0.65,2.917,0.975,4.714,0.975
		c1.146,0,2.277-0.129,3.396-0.387c1.117-0.258,2.195-0.603,3.236-1.032c1.042-0.429,2.035-0.921,2.981-1.476
		c0.944-0.553,1.827-1.117,2.649-1.689c0.213-0.15,0.419-0.312,0.628-0.468c0.021,0.435,0.053,0.865,0.103,1.284
		c0.086,0.717,0.258,1.356,0.516,1.92c0.259,0.563,0.626,1.013,1.104,1.346c0.477,0.335,1.107,0.502,1.891,0.502
		c0.345,0,0.66-0.062,0.945-0.187c0.287-0.123,0.554-0.338,0.803-0.645c0.248-0.306,0.492-0.701,0.73-1.189
		c0.238-0.487,0.491-0.776,0.76-1.521l5.129-13.971h0.458c0.152,1,0.354,2.065,0.602,3.241c0.248,1.173,0.63,2.07,1.146,3.016
		c0.516,0.946,1.212,1.629,2.092,2.211c0.878,0.583,2.033,0.834,3.467,0.834c0.803,0,1.59-0.14,2.364-0.379
		c0.772-0.237,1.519-0.544,2.234-0.898c0.717-0.353,1.39-0.736,2.02-1.138c0.631-0.4,1.194-0.766,1.691-1.091l0.43-6.706
		C258.481,37.626,257.602,38.256,256.705,38.809z M194.199,19.612c0.411-1.642,0.851-3.146,1.318-4.513
		c0.468-1.365,0.955-2.487,1.462-3.367c0.505-0.878,1.007-1.318,1.504-1.318c0.362,0,0.645,0.077,0.846,0.229
		c0.2,0.153,0.348,0.344,0.444,0.573c0.095,0.229,0.157,0.473,0.187,0.73c0.028,0.258,0.043,0.493,0.043,0.702
		c0,0.612-0.163,1.395-0.488,2.35c-0.325,0.955-0.736,1.982-1.231,3.08c-0.498,1.099-1.056,2.216-1.677,3.352
		c-0.621,1.138-1.218,2.192-1.791,3.167c-0.306-0.038-0.602-0.072-0.888-0.1c-0.286-0.029-0.573-0.062-0.859-0.101
		C193.412,22.85,193.789,21.255,194.199,19.612z M106.609,19.612c0.411-1.642,0.849-3.146,1.318-4.513
		c0.468-1.365,0.955-2.487,1.462-3.367c0.505-0.878,1.006-1.318,1.504-1.318c0.362,0,0.645,0.077,0.845,0.229
		c0.201,0.153,0.348,0.344,0.444,0.573s0.158,0.473,0.187,0.73c0.029,0.258,0.043,0.493,0.043,0.702c0,0.612-0.163,1.395-0.487,2.35
		c-0.325,0.955-0.736,1.982-1.232,3.08c-0.497,1.099-1.056,2.216-1.676,3.352c-0.621,1.138-1.218,2.192-1.791,3.167
		c-0.306-0.038-0.602-0.072-0.888-0.1c-0.287-0.029-0.573-0.062-0.86-0.101C105.821,22.85,106.198,21.255,106.609,19.612z
		 M44.575,43.036c-0.277,1.213-0.645,2.32-1.103,3.322c-0.459,1.004-0.994,1.834-1.604,2.493c-0.612,0.659-1.242,0.988-1.892,0.988
		c-0.745,0-1.385-0.157-1.919-0.473c-0.535-0.314-0.965-0.734-1.29-1.261c-0.325-0.524-0.564-1.14-0.716-1.848
		c-0.153-0.706-0.229-1.462-0.229-2.264c0-1.164,0.153-2.378,0.458-3.64c0.305-1.26,0.725-2.41,1.26-3.451s1.156-1.896,1.863-2.565
		c0.706-0.667,1.451-1.002,2.235-1.002c0.592,0,1.098,0.163,1.519,0.487c0.42,0.325,0.763,0.765,1.032,1.318
		c0.267,0.554,0.467,1.209,0.602,1.962c0.133,0.756,0.201,1.572,0.201,2.451C44.991,40.663,44.852,41.823,44.575,43.036z
		 M69.59,43.036c-0.277,1.213-0.645,2.32-1.104,3.322c-0.458,1.004-0.994,1.834-1.604,2.493c-0.612,0.659-1.242,0.988-1.891,0.988
		c-0.746,0-1.386-0.157-1.92-0.473c-0.535-0.314-0.965-0.734-1.289-1.261c-0.326-0.524-0.564-1.14-0.717-1.848
		c-0.153-0.706-0.229-1.462-0.229-2.264c0-1.164,0.152-2.378,0.458-3.64c0.305-1.26,0.726-2.41,1.261-3.451
		c0.534-1.041,1.155-1.896,1.862-2.565c0.706-0.667,1.451-1.002,2.234-1.002c0.592,0,1.099,0.163,1.519,0.487
		c0.42,0.325,0.764,0.765,1.032,1.318c0.267,0.554,0.468,1.209,0.602,1.962c0.133,0.756,0.2,1.572,0.2,2.451
		C70.005,40.663,69.866,41.823,69.59,43.036z M88.085,26.76c0.267-1.938,0.63-3.825,1.089-5.659
		c0.458-1.833,0.979-3.561,1.562-5.186c0.582-1.624,1.193-3.046,1.833-4.27c0.64-1.222,1.279-2.192,1.92-2.908
		c0.64-0.716,1.236-1.075,1.791-1.075c0.152,0,0.244,0.196,0.272,0.587c0.028,0.393,0.043,0.866,0.043,1.418
		c-0.172,1.739-0.573,3.616-1.203,5.63c-0.631,2.016-1.375,4.036-2.235,6.061s-1.773,3.993-2.737,5.902
		c-0.965,1.911-1.876,3.63-2.736,5.158C87.683,30.586,87.817,28.701,88.085,26.76z M95.534,45.6
		c-0.516,0.345-1.051,0.684-1.604,1.017c-0.554,0.336-1.094,0.631-1.619,0.89c-0.526,0.257-1.022,0.464-1.49,0.615
		c-0.468,0.153-0.884,0.229-1.247,0.229c-0.153,0-0.315-0.109-0.487-0.33c-0.172-0.219-0.335-0.515-0.487-0.888
		c-0.153-0.373-0.324-0.793-0.429-1.261c-0.104-0.467-0.198-0.95-0.198-1.447v-0.401c0-0.381,0.174-0.773,0.27-1.174
		c0.096-0.401,0.211-0.778,0.307-1.133c0.096-0.353,0.207-0.682,0.312-0.988c0.105-0.305,0.21-0.553,0.306-0.744
		c0.878-1.719,1.823-3.482,2.826-5.287c1.002-1.805,2.002-3.639,2.996-5.501c0.189-0.355,0.371-0.714,0.558-1.07
		c0.531,0.076,0.972,0.146,1.32,0.21c0.353,0.067,0.688,0.135,1.002,0.201c0.315,0.067,0.76,0.139,1.333,0.215
		c-0.172,1.281-0.306,2.57-0.401,3.868c-0.096,1.299-0.143,2.522-0.143,3.668c0,2.457,0.137,4.694,0.397,6.738
		C97.832,43.991,96.657,44.852,95.534,45.6z M138.227,56.115c-0.02,0.478-0.043,1.074-0.072,1.791
		c-0.028,0.716-0.071,1.59-0.129,2.621c-0.039,0.592-0.062,1.261-0.071,2.006c-0.011,0.745-0.034,1.509-0.072,2.292
		c-0.039,0.784-0.086,1.547-0.144,2.293c-0.057,0.744-0.153,1.414-0.286,2.006c-0.134,0.591-0.306,1.063-0.516,1.418
		c-0.211,0.354-0.478,0.529-0.803,0.529c-0.362,0-0.668-0.133-0.916-0.4c-0.249-0.268-0.45-0.573-0.603-0.917
		c-0.153-0.345-0.262-0.688-0.329-1.031s-0.101-0.592-0.101-0.745c0-0.248,0.053-0.654,0.157-1.218s0.248-1.232,0.431-2.006
		c0.181-0.773,0.396-1.609,0.645-2.507c0.248-0.898,0.524-1.795,0.831-2.693c0.305-0.898,0.631-1.763,0.974-2.594
		c0.344-0.83,0.697-1.561,1.061-2.191C138.264,55.132,138.245,55.581,138.227,56.115z M144.158,47.348
		c0-1.126,0.032-2.258,0.101-3.396c0.066-1.136,0.181-2.229,0.344-3.281c0.162-1.049,0.373-2.034,0.63-2.951
		c0.258-0.917,0.582-1.709,0.975-2.378c0.392-0.667,0.854-1.198,1.39-1.59c0.534-0.392,1.155-0.588,1.861-0.588
		c0.631,0,1.123,0.178,1.477,0.53c0.353,0.354,0.602,0.779,0.745,1.275c0.143,0.497,0.2,1.027,0.172,1.59
		c-0.029,0.564-0.092,1.056-0.187,1.476c-0.229,0.898-0.535,1.776-0.917,2.635c-0.383,0.86-0.874,1.691-1.476,2.494
		c-0.602,0.802-1.317,1.557-2.148,2.263C146.293,46.136,145.303,46.774,144.158,47.348z M171.521,47.963
		c-0.115,0.545-0.315,1.023-0.603,1.433c-0.285,0.412-0.673,0.741-1.16,0.989c-0.486,0.249-1.103,0.373-1.849,0.373
		c-0.611,0-1.155-0.144-1.632-0.431c-0.479-0.286-0.899-0.602-1.262-0.945s-0.683-0.659-0.959-0.945
		c-0.047-0.047-0.09-0.084-0.135-0.124l-0.042-0.886l6.781-6.756c0.095,0.308,0.205,0.674,0.329,1.104s0.238,0.889,0.344,1.376
		c0.104,0.486,0.19,0.998,0.258,1.533c0.066,0.535,0.101,1.06,0.101,1.575C171.693,46.853,171.635,47.419,171.521,47.963z
		 M214.214,40.355c0.037-0.59,0.118-1.203,0.243-1.833c0.124-0.631,0.306-1.255,0.545-1.877c0.238-0.621,0.553-1.174,0.945-1.662
		c0.391-0.487,0.878-0.882,1.461-1.188c0.583-0.305,1.284-0.459,2.106-0.459c0.458,0,0.845,0.277,1.16,0.831
		c0.315,0.555,0.473,1.262,0.473,2.121c0,0.611-0.239,1.242-0.717,1.891c-0.477,0.65-1.064,1.252-1.762,1.806
		c-0.697,0.554-1.452,1.009-2.264,1.36c-0.812,0.354-1.561,0.529-2.249,0.529C214.156,41.455,214.175,40.95,214.214,40.355z"/>
</g>
<g>
	<path fill="#0383D0" d="M149.144,2.829h-22.005c-1.214,0-2.392,0.959-2.627,2.174l-3.179,13.415
		c-0.236,1.216,0.557,2.412,1.773,2.412h2.201l2.833,4.401l5.114-4.401h11.857c1.216,0,2.392-1.209,2.629-2.425l3.179-13.288
		C151.154,3.899,150.359,2.829,149.144,2.829z M133.801,13.135c0,1.714-1.702,2.69-3.504,2.69c-0.988,0-1.852-0.212-2.202-0.476
		l0.588-1.626c0.338,0.15,0.901,0.375,1.614,0.375c0.826,0,1.401-0.351,1.401-0.951c0-0.625-0.525-0.938-1.501-0.938h-0.263
		l0.3-1.564h0.213c0.775,0,1.602-0.25,1.602-0.889c0-0.325-0.275-0.588-0.901-0.588c-0.613,0-1.151,0.15-1.476,0.325l-0.163-1.577
		c0.513-0.275,1.351-0.475,2.14-0.475c1.451,0,2.564,0.688,2.564,1.927c0,0.988-0.75,1.727-1.701,1.989l-0.013,0.025
		C133.263,11.596,133.801,12.234,133.801,13.135z M135.943,15.813c-0.688,0-1.113-0.488-1.113-1.176
		c0-0.738,0.563-1.414,1.326-1.414c0.701,0,1.151,0.488,1.151,1.189C137.307,15.262,136.719,15.813,135.943,15.813z M140.787,15.825
		c-1.727,0-2.34-1.351-2.34-2.865c0-2.64,1.264-5.518,3.729-5.518c1.802,0,2.327,1.426,2.327,2.79
		C144.503,12.747,143.364,15.825,140.787,15.825z"/>
	<path fill="#0383D0" d="M141.951,9.094c-1.039,0-1.502,3.116-1.502,3.966c0,0.513,0.088,1.114,0.588,1.114
		c1.026,0,1.464-3.216,1.464-4.029C142.501,9.644,142.401,9.094,141.951,9.094z"/>
</g>
</svg>
