<?xml version="1.0" encoding="utf-8"?>
<!DOCTYPE svg PUBLIC "-//W3C//DTD SVG 1.1//EN" "http://www.w3.org/Graphics/SVG/1.1/DTD/svg11.dtd">
<svg xmlns="http://www.w3.org/2000/svg" xmlns:xlink="http://www.w3.org/1999/xlink" version="1.1" width="38px" height="38px" viewBox="0 0 38 38">
	<defs>
		<filter id="f1" >
			<feGaussianBlur in="SourceGraphic" stdDeviation="1"/>
		</filter>
	</defs>

	<circle cx="17" cy="20" fill="#000000" opacity="0.3" r="15.5" filter="url(#f1)"/>
	<circle cx="17" cy="19" fill="#FFFFFF" r="15.5"/>

	<rect x="11" y="26" fill="#CCCCCC" width="14" height="1"/>

	<path transform="translate(-1,0)" d="M17.098,20.305c-0.142,0.146,0.101,0.04,0.137,0.004c0.027-0.028,0.204-0.09,0.484-0.09c0.338,0,0.626,0.092,0.787,0.255
		c0.473,0.472,0.424,0.932,0.393,1.078l-2.521,1.055l-1.577-1.577l1.054-2.52c0.039-0.009,0.105-0.018,0.188-0.018
		c0.219,0,0.555,0.069,0.893,0.407c0.378,0.378,0.246,1.188,0.166,1.271C17.062,20.207,17.062,20.269,17.098,20.305z
		 M26.984,14.472c-0.008-0.674-0.61-1.257-1.31-1.933c-0.134-0.129-0.679-0.673-0.809-0.808c-0.679-0.702-1.266-1.31-1.943-1.31
		c-0.37,0-0.734,0.207-1.114,0.587l-6.852,6.847c-0.012,0.016-2.877,7.354-2.877,7.354c-0.012,0.032,0,0.063,0.022,0.091
		c0.021,0.021,0.044,0.029,0.067,0.029c0.01,0,0.018-0.003,0.028-0.007c0,0,7.357-2.864,7.369-2.877l6.854-6.847
		C26.803,15.216,26.988,14.848,26.984,14.472z"/>
</svg>
