<?xml version="1.0" standalone="no"?>
<!DOCTYPE svg PUBLIC "-//W3C//DTD SVG 1.1//EN" "http://www.w3.org/Graphics/SVG/1.1/DTD/svg11.dtd">
<svg xmlns="http://www.w3.org/2000/svg">
<defs >
<font id="NanumGothic" horiz-adv-x="463" ><font-face
    font-family="NanumGothic"
    units-per-em="1000"
    panose-1="2 13 6 4 0 0 0 0 0 0"
    ascent="920"
    descent="-230"
    alphabetic="0" />
<glyph unicode=" " horiz-adv-x="280" />
<glyph unicode="!" horiz-adv-x="424" d="M234 706Q253 706 256 703T259 680L248 163Q248 146 245 144T225 141H209Q193 141 191 143T187 162L175 680Q175 690 175 695T177 702T185 705T200 706H234ZM169 24T183 38T217 53Q237 53 251 39T266 4Q266 -16 252 -30T217
-44Q197 -44 183 -30T169 4Q169 24 183 38Z" />
<glyph unicode="&quot;" horiz-adv-x="430" d="M179 476T178 475T165 473H127Q116 473 115 474T113 487V690Q113 701 114 702T127 704H165Q176 704 177 703T179 690V487Q179 476 178 475ZM321 476T320 475T307 473H270Q259 473 258 474T256 487V690Q256 701 257
702T270 704H307Q318 704 319 703T321 690V487Q321 476 320 475Z" />
<glyph unicode="#" horiz-adv-x="606" d="M393 415H253Q248 373 242 334T231 253H370L393 415ZM565 432Q565 419 563 417T549 415H456Q451 373 445 334T433 253H518Q532 253 534 251T536 237V213Q536 200 534 198T518 196H425L395 -20Q393 -33 391 -35T377 -37H348Q334
-37 332 -35T332 -20L362 196H222L192 -21Q190 -33 188 -35T171 -37H144Q130 -37 128 -35T128 -21L159 196H64Q52 196 50 198T48 212V237Q48 249 50 251T64 253H166Q172 294 177 333T189 415H90Q79 415 77 416T75 429V456Q75 467 77 469T90 471H197L227 689Q229
700 230 702T243 704H279Q290 704 291 703T291 690L260 471H399L430 690Q432 701 433 702T445 704H482Q493 704 494 702T494 689L462 471H549Q561 471 563 469T565 455V432Z" />
<glyph unicode="$" horiz-adv-x="606" d="M442 166Q442 226 338 289V24Q389 39 415 74T442 166ZM284 649Q174 627 174 525Q174 460 284 401V649ZM515 159Q515 76 460 21Q412 -27 338 -43V-112Q338 -126 336 -128T321 -131H302Q288 -131 286 -129T284 -113V-49Q279
-50 274 -50T262 -50Q223 -50 176 -40Q146 -33 124 -25Q109 -19 107 -16T106 2L110 38Q112 52 115 52T130 46Q185 14 261 14Q267 14 273 14T284 15V319Q241 342 211 363T161 402Q102 457 102 523Q102 599 155 649Q181 675 212 690T284 713V769Q284 780 286 781T299
783H321Q334 783 336 782T338 769V717Q411 717 465 699Q474 696 477 693T478 675L474 645Q472 634 468 632T452 635Q429 645 401 649T338 654V372Q379 350 409 330T458 289Q515 233 515 159Z" />
<glyph unicode="%" horiz-adv-x="1090" d="M394 513Q394 655 292 655Q191 655 191 513Q191 454 212 418Q240 372 292 372Q345 372 373 418Q394 454 394 513ZM897 154Q897 295 796 295Q693 295 693 154Q693 96 715 59Q741 12 796 12Q897 12 897 154ZM780 728Q793
728 794 726T789 713L366 -44Q359 -56 356 -58T338 -60H309Q295 -60 294 -58T300 -42L722 715Q727 725 730 726T744 728H780ZM460 513Q460 424 421 373Q399 345 367 330T292 315Q250 315 218 330T164 373Q125 426 125 513Q125 602 164 655Q209 712 292 712Q376
712 421 655Q460 604 460 513ZM963 154Q963 64 924 13Q880 -43 796 -43Q711 -43 667 13Q629 63 629 154Q629 244 667 296Q689 324 721 339T796 354Q881 354 924 296Q963 245 963 154Z" />
<glyph unicode="&amp;" horiz-adv-x="727" d="M445 553Q445 604 416 633Q389 660 339 660Q314 660 293 653T254 633Q216 600 216 552Q216 523 240 483T300 400Q336 417 361 431T398 455Q445 496 445 553ZM278 332Q217 308 181 267Q137 220 137 160Q137 91 190
46Q241 7 310 7Q335 7 361 13T411 31T456 59T494 94L278 332ZM694 -25Q702 -33 701 -34T689 -35H627Q617 -35 615 -35T605 -26L535 49Q446 -50 308 -50Q207 -50 140 0Q66 57 66 157Q66 306 242 373Q216 402 200 421T176 454Q144 506 144 556Q144 629 208 676Q235
695 270 706T343 717Q415 717 464 680Q518 635 518 564Q518 484 461 436V437Q444 422 414 404T338 362Q389 306 436 253T534 144Q566 189 581 240T599 355Q599 366 601 368T614 370H646Q658 370 660 368T662 355Q660 289 640 225T578 101L694 -25Z" />
<glyph unicode="&apos;" horiz-adv-x="303" d="M192 476T191 475T178 473H139Q128 473 127 474T125 487V690Q125 701 126 702T139 704H178Q189 704 190 703T192 690V487Q192 476 191 475Z" />
<glyph unicode="(" horiz-adv-x="363" d="M310 -177Q303 -177 302 -177T296 -171Q205 -57 161 60T117 302Q117 426 161 543T296 775Q300 780 301 780T308 781H336Q342 781 342 780T339 774Q182 528 182 302Q182 187 222 70T340 -170Q345 -177 335 -177H310Z" />
<glyph unicode=")" horiz-adv-x="363" d="M47 -177Q38 -177 43 -170Q121 -47 160 70T200 302Q200 416 161 533T44 774Q41 779 41 780T46 781H74Q79 781 80 781T87 775Q178 660 221 543T265 302Q265 177 222 60T87 -171Q82 -176 81 -176T72 -177H47Z" />
<glyph unicode="*" horiz-adv-x="606" d="M501 382Q505 371 504 369T490 362L348 321Q372 292 395 264T442 207Q448 199 448 196T441 187L409 163Q401 157 399 157T391 165L307 293Q287 263 266 231T225 168Q219 158 217 158T205 164L177 186Q168 193 168 195T175
208L265 321L121 362Q110 365 109 367T112 382L121 414Q124 425 126 426T139 423L283 368Q281 405 280 441T277 514Q276 528 278 529T292 530H321Q334 530 336 528T337 514L330 368Q365 382 400 395T471 422Q482 427 484 426T491 413L501 382Z" />
<glyph unicode="+" horiz-adv-x="654" d="M601 308Q601 294 599 292T582 290H366V74Q366 61 364 59T349 57H310Q297 57 295 59T293 74V290H78Q64 290 62 292T59 308V344Q59 358 61 360T78 362H293V576Q293 590 295 592T312 594H347Q361 594 363 592T366 576V362H582Q596
362 598 360T601 344V308Z" />
<glyph unicode="," horiz-adv-x="303" d="M203 18Q216 18 216 14T214 3L148 -176Q144 -184 141 -186T130 -189H88Q75 -189 78 -175L125 1Q127 7 131 12T146 18H203Z" />
<glyph unicode="-" horiz-adv-x="363" d="M315 378T316 377T318 364V320Q318 309 317 308T304 306H70Q59 306 58 307T56 320V364Q56 375 57 376T70 378H304Q315 378 316 377Z" />
<glyph unicode="." horiz-adv-x="303" d="M108 -40Q108 -19 122 -5T158 10Q179 10 193 -4T208 -40Q208 -61 194 -75T158 -90Q137 -90 123 -76T108 -40Z" />
<glyph unicode="/" horiz-adv-x="375" d="M360 718Q372 718 373 716T371 702L92 -104Q88 -114 86 -115T73 -117H31Q19 -117 18 -115T20 -102L299 703Q303 714 305 716T321 718H360Z" />
<glyph unicode="0" horiz-adv-x="606" d="M479 327Q479 641 307 641Q135 641 135 327Q135 12 307 12Q479 12 479 327ZM551 327Q551 -51 307 -51Q61 -51 61 327Q61 484 109 582Q170 705 307 705Q442 705 504 582Q527 533 539 470T551 327Z" />
<glyph unicode="1" horiz-adv-x="606" d="M369 -33Q369 -47 355 -47H314Q300 -47 300 -33V617Q269 591 242 568T185 519Q174 510 165 521L145 545Q142 550 142 555T147 565L302 695Q306 699 314 699H341Q362 699 365 696T369 671V-33Z" />
<glyph unicode="2" horiz-adv-x="606" d="M90 -47Q79 -47 74 -47T66 -44T63 -36T62 -19L63 3Q63 16 71 24L236 206Q420 405 420 508Q420 568 380 608Q341 647 283 647Q202 647 114 602Q100 595 98 608L92 641Q89 658 102 662Q153 685 194 696T278 707Q374 707
431 659Q495 607 495 511Q495 474 477 430T427 338Q407 310 371 265T287 169Q252 131 218 92T148 15H498Q512 15 512 1V-33Q512 -47 498 -47H90Z" />
<glyph unicode="3" horiz-adv-x="606" d="M77 -30Q62 -26 64 -7L68 32Q70 44 84 38Q126 21 163 14T251 6Q330 5 384 46Q447 88 447 169Q447 311 234 311H182Q169 311 169 322V359Q169 372 182 372H187Q294 372 354 395Q445 430 445 521Q445 550 430 574T388 616Q364
630 334 638T271 646Q237 646 196 637T117 613Q104 608 102 621L98 658Q95 672 111 678Q156 693 195 700T278 707Q379 707 443 664Q516 615 516 521Q516 454 468 405Q428 362 364 342Q396 338 423 325T471 289Q494 264 506 233T518 163Q518 113 498 73T439 3Q402
-24 354 -39T247 -54Q194 -53 156 -48T77 -30Z" />
<glyph unicode="4" horiz-adv-x="606" d="M392 190V636Q318 524 245 413T97 190H392ZM460 -33Q460 -47 446 -47H406Q392 -47 392 -33V129H62Q41 129 38 132T34 157V188Q34 197 35 200T41 211L360 687Q366 696 368 697T382 699H432Q453 699 456 696T460 671V190H559Q573
190 573 176V143Q573 129 559 129H460V-33Z" />
<glyph unicode="5" horiz-adv-x="606" d="M115 -32Q101 -27 101 -14V28Q101 45 115 38Q151 21 185 14T261 7Q349 7 404 50Q464 96 464 182Q464 351 271 351Q233 351 203 347T135 333Q124 330 117 335T110 352L116 671Q116 692 119 695T144 699H486Q500 699 500
685V652Q500 638 486 638H184Q183 575 182 515T179 392Q228 411 298 411Q403 411 468 354Q533 295 533 196Q533 75 458 9Q386 -54 261 -54Q216 -54 183 -49T115 -32Z" />
<glyph unicode="6" horiz-adv-x="606" d="M481 188Q481 269 439 316Q397 364 319 364Q279 364 247 352T193 317T158 264T145 196Q145 120 187 68Q233 7 310 7Q389 7 437 60Q481 110 481 188ZM507 627Q484 635 455 640T396 645Q260 645 195 547Q140 465 138 322Q160
362 202 390Q254 427 319 427Q410 427 472 379Q551 318 551 193Q551 87 486 17Q420 -54 308 -54Q68 -54 68 300Q68 485 142 589Q229 707 404 707Q430 707 458 703T511 692Q526 689 524 674L522 637Q522 630 517 628T507 627Z" />
<glyph unicode="7" horiz-adv-x="606" d="M242 -33Q235 -47 222 -47H172Q166 -47 164 -43T164 -33L455 638H84Q70 638 70 652V685Q70 699 84 699H499Q520 699 523 696T527 671V646Q527 638 524 632L242 -33Z" />
<glyph unicode="8" horiz-adv-x="606" d="M460 525Q460 582 410 615Q366 646 307 646Q243 646 199 614Q151 582 151 525Q151 473 201 431Q215 418 238 403T294 373Q302 369 307 369T322 375Q386 410 423 448T460 525ZM485 150Q485 205 435 246Q419 259 390 275T319
310Q306 317 290 310Q251 295 221 279T173 248Q153 228 141 202T128 145Q128 84 185 45Q237 6 307 6Q379 6 428 40Q485 79 485 150ZM555 145Q555 96 535 57T476 -8Q443 -30 400 -42T307 -54Q258 -54 216 -41T138 -5Q100 22 79 60T58 145Q58 223 110 272Q150 310
233 341Q81 416 81 533Q81 575 102 607T161 666Q193 686 229 696T307 707Q355 707 393 697T462 665Q531 617 531 533Q531 429 375 341Q416 326 448 308T501 272Q555 224 555 145Z" />
<glyph unicode="9" horiz-adv-x="606" d="M468 457Q468 535 426 588Q380 645 304 645Q223 645 177 594Q132 546 132 466Q132 381 173 334H172Q215 288 294 288Q376 288 422 334Q468 382 468 457ZM102 -40Q87 -37 89 -17L92 18Q94 30 108 24Q133 14 158 10T216
6Q286 6 338 33T423 112Q473 196 475 325Q414 227 294 227Q202 227 140 274Q61 335 61 461Q61 572 126 638Q192 707 306 707Q546 707 546 353Q546 -54 209 -54Q163 -54 102 -40Z" />
<glyph unicode=":" horiz-adv-x="303" d="M101 551Q101 574 118 591T158 608Q181 608 198 591T215 551Q215 528 198 511T158 494Q135 494 118 511T101 551ZM101 100Q101 123 118 140T158 157Q181 157 198 140T215 100Q215 77 198 60T158 43Q135 43 118 60T101 100Z" />
<glyph unicode=";" horiz-adv-x="303" d="M101 551Q101 574 118 591T158 608Q181 608 198 591T215 551Q215 528 198 511T158 494Q135 494 118 511T101 551ZM198 138Q211 138 211 134T209 123L143 -56Q139 -64 136 -66T125 -69H83Q70 -69 73 -55L120 121Q122 127
126 132T141 138H198Z" />
<glyph unicode="&lt;" horiz-adv-x="547" d="M499 -131Q499 -150 497 -151T482 -139L96 249Q90 255 87 259T82 266T80 275T79 288V314Q79 322 79 327T81 335T86 343T96 353L478 741Q494 757 496 756T499 732V694Q499 684 499 678T497 668T492 660T481 649L153
316Q142 305 142 302T151 288Q190 249 232 207T317 121T402 34T484 -48Q495 -60 497 -65T499 -88V-131Z" />
<glyph unicode="=" horiz-adv-x="654" d="M598 468T599 467T601 454V409Q601 398 600 397T587 395H73Q62 395 61 396T59 409V454Q59 465 60 466T73 468H587Q598 468 599 467ZM598 254T599 253T601 240V197Q601 186 600 185T587 183H73Q62 183 61 184T59 197V240Q59
251 60 252T73 254H587Q598 254 599 253Z" />
<glyph unicode="&gt;" horiz-adv-x="547" d="M55 -90Q55 -81 55 -76T56 -67T61 -59T71 -49Q110 -10 152 33T238 119T323 206T405 288Q414 298 414 301T403 316L73 650Q66 657 63 661T58 669T56 679T55 695V734Q55 757 57 758T75 743L460 353Q466 347 469 343T474
336T476 327T477 314V288Q477 280 477 275T475 267T470 259T460 249L72 -141Q59 -154 57 -153T55 -133V-90Z" />
<glyph unicode="?" horiz-adv-x="545" d="M463 520Q463 461 435 413Q427 399 411 379T371 334Q348 310 332 290T306 252Q279 205 279 151Q279 140 278 138T266 136H225Q215 136 214 137T212 150Q212 215 240 265Q249 281 264 300T302 343Q325 367 340 387T366
425Q390 467 390 520Q390 580 352 613T254 647Q228 647 195 642T119 622Q103 617 103 631L102 672Q102 686 115 689Q155 699 190 704T258 710Q347 710 401 665Q463 615 463 520ZM199 20T213 34T247 49Q267 49 281 35T296 0Q296 -20 282 -34T247 -48Q227 -48 213
-34T199 0Q199 20 213 34Z" />
<glyph unicode="@" horiz-adv-x="872" d="M546 387Q546 434 519 463V462Q494 482 460 482Q403 482 351 422Q293 353 294 264Q295 216 315 189T371 162Q406 162 439 183T498 241Q521 276 533 313T546 387ZM817 391Q817 266 729 177Q655 99 576 99Q501 99 492 166Q464
134 430 117T357 99Q295 99 254 145Q213 192 213 258Q213 369 282 453Q353 545 460 545Q540 545 578 462Q583 477 589 494T601 527H669L576 239Q566 209 566 189Q566 162 590 162Q652 162 697 230Q746 298 746 391Q746 507 653 580Q563 647 438 647Q303 647 211
557Q122 466 122 329Q122 188 211 97Q303 7 438 7Q622 7 720 125H785Q733 39 643 -8T438 -56Q350 -56 277 -25T150 65Q102 119 77 186T52 327Q52 481 150 591Q257 710 438 710Q513 710 578 690T697 628Q754 584 785 524T817 391Z" />
<glyph unicode="A" horiz-adv-x="727" d="M529 219Q487 323 449 424T368 630Q326 526 286 425T203 219H529ZM703 -29Q708 -43 694 -43H646Q640 -43 636 -41T627 -29L553 155H177Q158 108 140 63T104 -29Q100 -39 96 -41T85 -43H38Q24 -43 29 -29L323 687Q328 699
341 699H402Q415 699 420 687L703 -29Z" />
<glyph unicode="B" horiz-adv-x="606" d="M435 512Q435 635 272 635H170V374H253Q344 374 389 410T435 512ZM458 164Q458 238 404 274T233 310H168V20H245Q458 20 458 164ZM532 168Q532 -43 243 -43H122Q101 -43 98 -40T94 -15V669Q94 690 97 693T122 697H272Q509
697 509 515Q509 376 377 346Q453 324 492 280T532 168Z" />
<glyph unicode="C" horiz-adv-x="672" d="M599 29Q605 31 610 30T615 22L617 -17Q618 -30 603 -35Q570 -46 535 -51T447 -56Q273 -56 170 50Q119 102 95 171T70 327Q70 498 173 604Q278 710 447 710Q471 710 490 709T528 706T565 701T603 693Q618 690 617 674L615
634Q613 620 600 625Q561 638 526 642T447 647Q306 647 222 557Q144 470 144 327Q144 255 163 197T221 96Q302 6 447 7Q489 8 530 13T599 29Z" />
<glyph unicode="D" horiz-adv-x="727" d="M579 333Q579 492 491 568Q413 635 277 635H169V20H230Q579 20 579 333ZM652 329Q652 236 620 163T531 42Q477 1 400 -21T226 -43H123Q102 -43 99 -40T95 -15V669Q95 690 98 693T123 697H280Q470 697 566 594Q652 499 652 329Z" />
<glyph unicode="E" horiz-adv-x="576" d="M129 -44Q108 -44 105 -41T101 -16V673Q101 692 104 695T127 699H474Q488 699 488 685V650Q488 636 474 636H174V372H459Q473 372 473 358V322Q473 308 459 308H174V20H486Q500 20 500 6V-30Q500 -44 486 -44H129Z" />
<glyph unicode="F" horiz-adv-x="503" d="M165 -29Q165 -43 151 -43H105Q91 -43 91 -29V668Q91 690 94 693T120 697H454Q468 697 468 683V649Q468 635 454 635H165V370H440Q454 370 454 356V320Q454 306 440 306H165V-29Z" />
<glyph unicode="G" horiz-adv-x="797" d="M664 357Q685 357 688 354T692 329V12Q692 1 686 -7T671 -19Q623 -37 571 -46T461 -56Q378 -56 308 -31T186 43T107 163T78 327Q78 411 104 481T180 602T301 681T461 710Q517 710 558 705T647 685Q662 681 659 665L654
628Q653 615 639 619Q594 636 553 641T461 647Q390 647 333 624T235 558T173 457T151 327Q151 250 174 190T238 90T336 28T461 7Q572 7 619 34V294H418Q404 294 404 308V343Q404 357 418 357H664Z" />
<glyph unicode="H" horiz-adv-x="727" d="M628 -29Q628 -43 614 -43H569Q555 -43 555 -29V308H176V-29Q176 -43 162 -43H117Q103 -43 103 -29V685Q103 699 117 699H162Q176 699 176 685V371H555V685Q555 699 569 699H614Q628 699 628 685V-29Z" />
<glyph unicode="I" horiz-adv-x="242" d="M167 -43T153 -43H105Q91 -43 91 -29V683Q91 697 105 697H153Q167 697 167 683V-29Q167 -43 153 -43Z" />
<glyph unicode="J" horiz-adv-x="363" d="M38 -50Q30 -48 27 -43T24 -32V4Q24 17 38 14Q49 10 63 9T93 7Q204 7 204 146V683Q204 697 218 697H263Q277 697 277 683V147Q277 57 237 3Q190 -56 101 -56Q84 -56 68 -54T38 -50Z" />
<glyph unicode="K" horiz-adv-x="641" d="M281 325L183 210V-29Q183 -43 169 -43H125Q111 -43 111 -29V683Q111 697 125 697H169Q183 697 183 683V302L492 683Q506 697 526 697H582Q588 697 589 693T586 683L328 380L610 -29Q619 -43 606 -43H552Q542 -43 534
-40T521 -29L281 325Z" />
<glyph unicode="L" horiz-adv-x="484" d="M455 20Q469 20 469 6V-29Q469 -43 455 -43H131Q117 -43 110 -43T99 -39T95 -27T94 -5V683Q94 697 108 697H154Q168 697 168 683V20H455Z" />
<glyph unicode="M" horiz-adv-x="969" d="M863 -29Q863 -43 849 -43H804Q790 -43 790 -29V634Q716 450 657 305Q632 243 608 184T565 78T534 2T522 -28Q517 -38 507 -38H462Q455 -38 452 -36T447 -28L171 634V-29Q171 -43 157 -43H112Q98 -43 98 -29V671Q98 692
101 695T126 699H201Q209 699 212 697T219 687L485 40L743 688Q747 699 759 699H835Q856 699 859 696T863 671V-29Z" />
<glyph unicode="N" horiz-adv-x="727" d="M164 -43T150 -43H105Q91 -43 91 -29V671Q91 692 94 695T119 699H165Q178 699 182 697T192 685L569 38V685Q569 699 583 699H627Q641 699 641 685V-15Q641 -36 638 -39T613 -43H552Q544 -43 541 -41T532 -31L164 605V-29Q164
-43 150 -43Z" />
<glyph unicode="O" horiz-adv-x="787" d="M650 327Q650 390 634 446T589 547Q554 596 506 622T396 649Q334 649 286 623T202 547Q173 502 157 446T141 327Q141 264 157 208T202 106Q238 58 287 31T396 4Q457 4 505 30T589 106Q618 151 634 207T650 327ZM723 327Q721
149 641 49Q554 -59 396 -59Q238 -59 150 49Q68 152 68 327Q68 410 88 477T146 596Q191 651 254 681T396 712Q475 712 537 682T645 595Q684 541 704 475T723 327Z" />
<glyph unicode="P" horiz-adv-x="577" d="M470 488Q470 559 433 597T324 636H174V337H255Q303 337 341 342T407 363T451 408T470 488ZM174 -29Q174 -43 160 -43H115Q101 -43 101 -29V669Q101 691 105 695T131 699H309Q419 699 481 646Q545 591 545 488Q545 436
527 396T475 328T397 286T301 274H174V-29Z" />
<glyph unicode="Q" horiz-adv-x="787" d="M650 327Q650 457 589 546Q520 647 396 647Q271 647 202 546Q141 457 141 327Q141 197 202 108Q271 7 396 7Q520 7 589 108Q650 197 650 327ZM671 -167Q676 -172 675 -176T667 -181H610Q590 -181 576 -167L458 -51Q445
-53 430 -54T396 -56Q237 -56 151 51Q70 151 68 327Q67 487 146 594Q191 649 254 679T396 710Q474 710 537 680T645 594Q724 487 723 327Q722 261 709 204T672 102Q648 56 612 22T528 -31L671 -167Z" />
<glyph unicode="R" horiz-adv-x="622" d="M469 481Q469 523 460 552T428 600T369 627T279 635H176V337H281Q322 337 356 347T416 376T455 421T469 481ZM588 -29Q590 -34 588 -38T580 -43H528Q513 -43 506 -29Q461 65 431 124T384 219Q363 260 352 282Q329 277
310 276T260 274H176V-29Q176 -43 162 -43H117Q103 -43 103 -29V667Q103 678 103 684T107 693T116 696T133 697H322Q379 697 420 682T489 638T530 570T544 481Q544 451 534 424T505 374T464 333T415 302L588 -29Z" />
<glyph unicode="S" horiz-adv-x="545" d="M86 -33Q70 -28 73 -15L77 31Q79 39 83 42T94 41Q129 22 164 14T246 5Q319 5 365 45T412 158Q412 187 390 216T327 271Q292 293 248 317T164 369T97 433T70 516Q70 564 90 600T143 661T220 699T308 712Q347 712 377 708T442
692Q457 687 454 674L446 635Q443 618 429 626Q401 639 375 643T307 648Q274 648 245 640T194 616T159 576T146 519Q146 493 163 470T206 427T261 391T315 360Q348 341 379 321T434 276T473 221T488 152Q488 102 468 63T413 -3T335 -44T242 -59Q198 -59 164 -53T86
-33Z" />
<glyph unicode="T" horiz-adv-x="545" d="M314 635V-29Q314 -43 300 -43H254Q240 -43 240 -29V635H34Q20 635 20 649V683Q20 697 34 697H522Q536 697 536 683V649Q536 635 522 635H314Z" />
<glyph unicode="U" horiz-adv-x="727" d="M170 215Q170 120 219 65Q274 4 366 4Q460 4 515 65Q540 92 551 129T563 215V685Q563 699 577 699H623Q637 699 637 685V215Q637 142 613 87T544 -4Q471 -59 366 -59Q262 -59 189 -4Q96 65 96 215V685Q96 699 110 699H156Q170
699 170 685V215Z" />
<glyph unicode="V" horiz-adv-x="666" d="M579 683Q581 689 586 693T597 697H642Q648 697 651 693T652 683L379 -30Q376 -38 373 -40T361 -43H306Q298 -43 295 -41T288 -30L21 683Q19 688 22 692T31 697H81Q93 697 99 683L334 30Q394 191 455 353T579 683Z" />
<glyph unicode="W" horiz-adv-x="1029" d="M795 -33Q792 -43 782 -43H715Q704 -43 702 -33L515 617Q467 454 420 293T325 -33Q322 -43 312 -43H243Q232 -43 230 -33L25 683Q23 688 26 692T35 697H82Q96 697 100 683L280 33Q327 197 374 355T468 678Q470 688 477
692T493 697H545Q562 697 567 678L750 37Q796 203 841 360T933 683Q935 689 940 693T951 697H993Q999 697 1002 693T1003 683L795 -33Z" />
<glyph unicode="X" horiz-adv-x="666" d="M644 -29Q648 -34 645 -38T636 -43H576Q565 -43 556 -29L338 294L111 -29Q105 -37 101 -40T91 -43H36Q30 -43 27 -39T28 -29L295 347L56 683Q52 688 55 692T64 697H120Q127 697 131 694T140 683L341 399L544 683Q554 697
564 697H616Q622 697 625 693T624 683L384 347L644 -29Z" />
<glyph unicode="Y" horiz-adv-x="666" d="M373 -29Q373 -43 359 -43H313Q299 -43 299 -29V270Q232 375 166 478T32 685Q30 690 32 694T40 699H97Q109 699 117 685L335 334Q395 425 448 509T561 685Q568 699 581 699H631Q637 699 639 695T639 685L373 270V-29Z" />
<glyph unicode="Z" horiz-adv-x="545" d="M58 -43Q48 -43 43 -43T35 -40T32 -32T31 -17V14Q31 21 35 27L421 635H55Q41 635 41 649V683Q41 697 55 697H472Q493 697 496 694T500 669V648Q500 634 493 623L112 20H500Q514 20 514 6V-29Q514 -43 500 -43H58Z" />
<glyph unicode="[" horiz-adv-x="363" d="M160 -176Q146 -176 144 -174T141 -158V762Q141 776 143 778T160 781H296Q311 781 313 779T316 763V750Q316 735 314 733T295 730H223Q212 730 210 728T208 714V-110Q208 -121 209 -123T222 -125H295Q311 -125 313 -127T316
-145V-157Q316 -171 314 -173T295 -176H160Z" />
<glyph unicode="\" horiz-adv-x="966" d="M525 382Q514 429 504 471T483 561Q473 518 462 472T441 382H525ZM723 340H591Q608 267 624 199T657 57L723 340ZM377 340H243Q260 267 276 199T309 58L377 340ZM912 353Q912 343 910 342T897 340H784Q761 246 740 153T695
-34Q692 -48 690 -50T673 -52H641Q627 -52 625 -50T619 -34L534 340H430Q407 246 386 154T343 -33Q340 -47 338 -49T321 -52H291Q277 -52 274 -50T268 -33L182 340H68Q57 340 56 341T54 354V368Q54 379 55 380T68 382H172Q158 442 144 504T116 628Q111 647 113
650T134 653H153Q169 653 172 651T179 632L235 382H383Q397 444 411 507T442 633Q446 648 449 650T467 653H502Q517 653 520 651T526 633L583 382H732Q746 445 761 508T791 635Q794 649 796 651T813 653H837Q852 653 854 651T853 634L792 382H897Q908 382 910 381T912
368V353Z" />
<glyph unicode="]" horiz-adv-x="363" d="M215 781Q229 781 231 779T234 763V-157Q234 -171 232 -173T215 -176H79Q64 -176 62 -174T59 -158V-145Q59 -130 61 -128T80 -125H152Q163 -125 165 -123T167 -109V715Q167 726 166 728T153 730H80Q64 730 62 732T59 750V762Q59
776 61 778T80 781H215Z" />
<glyph unicode="^" horiz-adv-x="654" d="M588 258Q596 243 595 241T576 238H542Q526 238 523 240T512 257L331 625Q285 533 239 440T148 255Q141 242 138 240T119 238H86Q69 238 67 240T73 258L296 697H364L588 258Z" />
<glyph unicode="_" horiz-adv-x="545" d="M541 -124T542 -125T544 -138V-162Q544 -173 543 -174T530 -176H24Q13 -176 12 -175T10 -162V-138Q10 -127 11 -126T24 -124H530Q541 -124 542 -125Z" />
<glyph unicode="`" horiz-adv-x="242" d="M180 583Q189 569 188 567T173 564H163Q155 564 151 564T143 566T135 572T125 583L23 697Q10 712 11 714T35 717H64Q74 717 79 717T89 715T96 709T104 698L180 583Z" />
<glyph unicode="a" horiz-adv-x="545" d="M401 239H382Q326 241 283 235T210 217Q168 202 147 173T126 102Q126 77 134 56T159 22Q189 -2 239 -2Q274 -2 303 12T355 52T389 116T401 205V239ZM116 414Q111 411 107 412T102 419V457Q102 471 116 478Q151 497 190
504T277 512Q377 512 423 465T469 321V70Q469 40 470 17T473 -29Q473 -43 459 -43H423Q409 -43 409 -29V48Q388 -3 339 -31T231 -59Q130 -59 83 0Q67 20 59 46T51 99Q51 160 79 204T167 270Q239 296 388 296H401V326Q401 389 373 422T277 455Q232 455 192 446T116
414Z" />
<glyph unicode="b" horiz-adv-x="606" d="M479 231Q480 273 472 313T444 385T394 436T316 456Q275 456 245 439T194 390T164 318T154 231Q154 186 166 145T200 72T251 23T316 4Q362 4 393 23T444 75T471 148T479 231ZM87 742Q87 756 101 756H140Q154 756 154 742V423Q179
464 225 488T328 513Q551 513 551 231Q552 175 540 124T499 33T429 -29T328 -53Q208 -53 154 49V-29Q154 -43 140 -43H101Q87 -43 87 -29V742Z" />
<glyph unicode="c" horiz-adv-x="484" d="M440 -47Q410 -52 382 -54T315 -56Q253 -56 205 -34T123 26T71 116T53 228Q53 289 72 340T126 429T211 488T323 510Q356 510 383 508T441 498Q455 494 454 479L451 447Q449 435 436 438Q410 446 386 449T333 453Q282 453
244 437T179 390T140 319T127 228Q127 183 140 142T179 70T241 20T325 1Q360 1 383 4T435 15Q450 19 451 8L454 -29Q455 -44 440 -47Z" />
<glyph unicode="d" horiz-adv-x="606" d="M137 228Q137 181 144 143T168 75Q190 39 221 20T297 1Q337 1 367 22T418 75T449 148T459 228Q459 276 449 317T418 388T367 435T297 452Q212 452 168 379Q152 350 145 312T137 228ZM526 -29Q526 -43 512 -43H473Q459
-43 459 -29V46Q405 -56 285 -56Q178 -56 118 26Q63 102 63 228Q63 509 285 509Q345 509 391 485T459 423V738Q459 752 473 752H512Q526 752 526 738V-29Z" />
<glyph unicode="e" horiz-adv-x="545" d="M427 265Q427 306 419 338T394 396Q357 455 287 455Q215 455 170 395Q152 368 140 333T127 265H427ZM127 208Q126 158 138 120T175 55T232 15T307 1Q347 1 382 8T447 33Q460 39 460 26V-19Q460 -28 449 -33Q416 -46 380
-52T302 -59Q179 -59 116 12T53 228Q53 355 116 433Q182 512 283 512Q339 512 380 492T450 432Q501 361 501 242Q501 229 501 222T497 212T487 209T465 208H127Z" />
<glyph unicode="f" horiz-adv-x="363" d="M335 761Q348 757 347 740L345 711Q344 705 340 704T331 704Q320 708 311 709T290 711Q231 711 214 652Q207 628 207 546V498H317Q331 498 331 484V454Q331 440 317 440H207V-29Q207 -43 193 -43H154Q140 -43 140 -29V440H43Q29
440 29 454V484Q29 498 43 498H140V539Q140 648 160 696Q191 768 284 768Q313 768 335 761Z" />
<glyph unicode="g" horiz-adv-x="606" d="M461 230Q461 337 417 395T298 453Q217 453 176 399T135 228Q135 185 147 149T180 88T230 48T293 33Q328 33 359 47T412 88T448 151T461 230ZM117 -174Q105 -171 107 -159L110 -115Q110 -102 123 -109Q161 -126 196 -133T272
-141Q363 -141 408 -86T460 66Q437 21 392 -2T292 -25Q243 -25 201 -7T128 44T79 124T61 228Q61 295 73 347T113 436T183 491T287 510Q340 510 380 493T463 430L461 484Q461 498 475 498H513Q527 498 527 484V84Q527 19 511 -33T462 -122T381 -178T271 -198Q226
-198 192 -193T117 -174Z" />
<glyph unicode="h" horiz-adv-x="606" d="M521 -29Q521 -43 507 -43H467Q453 -43 453 -29V279Q453 327 445 360T420 414T381 444T330 453Q248 453 205 414T161 306V-29Q161 -43 147 -43H107Q93 -43 93 -29V739Q93 753 107 753H147Q161 753 161 739V449Q189 481
230 495T334 510Q431 510 476 453T521 280V-29Z" />
<glyph unicode="i" horiz-adv-x="242" d="M164 -43T150 -43H106Q92 -43 92 -29V484Q92 498 106 498H150Q164 498 164 484V-29Q164 -43 150 -43ZM79 687Q79 707 93 721T127 736Q147 736 161 722T176 687Q176 667 162 653T127 639Q107 639 93 653T79 687Z" />
<glyph unicode="j" horiz-adv-x="269" d="M23 -195Q9 -194 9 -176V-148Q9 -136 23 -139Q27 -140 34 -140T48 -141Q72 -141 88 -133T113 -110Q124 -88 124 -38V484Q124 498 138 498H178Q192 498 192 484V-45Q192 -198 67 -198Q53 -198 44 -198T23 -195ZM109 687Q109
707 123 721T157 736Q177 736 191 722T206 687Q206 667 192 653T157 639Q137 639 123 653T109 687Z" />
<glyph unicode="k" horiz-adv-x="520" d="M271 257L487 -29Q490 -34 489 -38T482 -43H439Q429 -43 421 -40T408 -29L228 209L161 134V-29Q161 -43 147 -43H107Q93 -43 93 -29V739Q93 753 107 753H147Q161 753 161 739V218L389 484Q403 498 422 498H469Q475 498
477 494T474 484L271 257Z" />
<glyph unicode="l" horiz-adv-x="242" d="M165 -43T151 -43H107Q93 -43 93 -29V738Q93 752 107 752H151Q165 752 165 738V-29Q165 -43 151 -43Z" />
<glyph unicode="m" horiz-adv-x="908" d="M94 371Q94 413 93 437T90 484Q90 498 104 498H141Q155 498 155 484V430Q178 467 217 488T313 510Q373 510 418 481T473 394Q494 451 540 480T648 510Q687 510 718 496T772 458T807 400T819 330V-29Q819 -43 805 -43H767Q753
-43 753 -30V316Q753 453 638 453Q603 453 576 438T529 395T500 332T491 256V-29Q491 -43 477 -43H437Q423 -43 423 -29V316Q423 453 307 453Q239 453 200 409T161 293V-29Q161 -43 147 -43H108Q94 -43 94 -29V371Z" />
<glyph unicode="n" horiz-adv-x="606" d="M521 -29Q521 -43 507 -43H467Q453 -43 453 -29V286Q453 378 420 416T327 455Q246 455 204 410T161 284V-29Q161 -43 147 -43H107Q93 -43 93 -29V371Q93 414 93 438T90 484Q89 491 93 494T104 498H140Q154 498 154 484V429Q182
472 221 492T330 512Q425 512 473 457T521 302V-29Z" />
<glyph unicode="o" horiz-adv-x="606" d="M489 227Q489 274 477 315T442 388Q390 452 307 452Q265 452 232 436T172 388Q149 356 137 315T124 227Q124 179 136 138T172 66Q225 1 307 1Q349 1 382 18T442 66Q464 97 476 138T489 227ZM563 227Q563 168 546 118T501
29Q466 -13 418 -36T307 -59Q245 -59 196 -36T112 29Q84 67 68 117T51 227Q51 348 112 425Q182 512 307 512Q370 512 418 491T501 425Q563 346 563 227Z" />
<glyph unicode="p" horiz-adv-x="606" d="M467 235Q467 276 459 314T432 383T383 431T308 450Q267 450 237 433T188 387T158 318T148 235Q148 119 191 60T308 0Q346 0 375 16T425 64T456 138T467 235ZM81 484Q81 498 95 498H133Q147 498 147 484L142 409Q162 453
209 480T320 507Q379 507 420 486T488 429T527 342T540 235Q540 173 526 120T484 28T415 -33T320 -56Q259 -56 215 -33T148 33V-182Q148 -196 134 -196H96Q90 -196 86 -192T81 -182V484Z" />
<glyph unicode="q" horiz-adv-x="606" d="M141 235Q141 181 151 138T182 64T231 17T299 0Q373 0 416 59T460 235Q460 280 450 319T420 387T370 433T299 450Q254 450 224 432T176 384T149 315T141 235ZM527 -182Q527 -188 523 -192T512 -196H474Q460 -196 460 -182V33Q437
-9 393 -33T287 -57Q234 -57 193 -35T124 27T82 119T68 235Q68 293 80 342T119 428T186 486T287 507Q350 507 398 480T466 409L461 484Q461 498 475 498H513Q527 498 527 484V-182Z" />
<glyph unicode="r" horiz-adv-x="363" d="M347 437Q329 443 299 443Q225 443 189 370Q161 313 161 224V-29Q161 -43 147 -43H108Q94 -43 94 -29V377Q94 413 94 435T92 484Q92 498 106 498H143Q157 498 157 484V386Q206 512 301 512Q324 512 347 506Q353 504 357
500T362 487V445Q362 439 357 437T347 437Z" />
<glyph unicode="s" horiz-adv-x="424" d="M66 23Q127 -2 192 -2Q246 -2 281 24T316 96Q316 122 297 146T249 187Q218 204 186 219T123 252Q87 272 70 301T53 363Q53 400 67 428T105 475T161 503T229 512Q267 512 295 508T351 496Q357 494 361 490T365 479L362
449Q361 441 356 439T346 439Q321 448 296 451T236 455Q120 455 120 363Q120 343 135 325T188 289Q220 273 251 259T318 224Q349 207 369 172T390 96Q390 56 374 27T331 -21T269 -49T197 -59Q175 -59 158 -58T125 -55T93 -50T59 -42Q45 -37 46 -24L50 13Q52 29
66 23Z" />
<glyph unicode="t" horiz-adv-x="363" d="M345 -44Q303 -59 262 -59Q181 -59 155 -6Q138 30 138 121V440H44Q30 440 30 454V484Q30 498 44 498H138V633Q138 648 151 648H193Q206 648 206 633V498H317Q331 498 331 484V454Q331 440 317 440H206V87Q206 -2 278 -2Q306
-2 341 10Q346 12 350 10T355 2L357 -24Q359 -38 345 -44Z" />
<glyph unicode="u" horiz-adv-x="606" d="M523 -29Q523 -43 509 -43H473Q459 -43 459 -29V54Q433 -6 390 -32T280 -59Q93 -59 93 150V484Q93 498 107 498H147Q161 498 161 484V168Q161 -2 291 -2Q329 -2 359 14T411 59T443 126T453 206V484Q453 498 467 498H507Q521
498 521 484V82Q521 49 521 23T523 -29Z" />
<glyph unicode="v" horiz-adv-x="484" d="M288 -30Q283 -43 268 -43H219Q204 -43 200 -30L24 484Q22 489 25 493T34 498H79Q91 498 97 484L245 26L399 484Q401 490 406 494T417 498H461Q467 498 470 494T471 484L288 -30Z" />
<glyph unicode="w" horiz-adv-x="848" d="M659 -32Q656 -43 643 -43H584Q572 -43 568 -32L426 428Q389 312 352 198T278 -31Q275 -43 260 -43H205Q198 -43 194 -41T187 -31L20 484Q18 489 21 493T30 498H76Q88 498 94 484L236 28Q273 143 308 253T381 479Q386
498 404 498H451Q470 498 475 479L614 28Q652 146 687 256T761 484Q763 490 768 494T779 498H819Q825 498 828 494T829 484L659 -32Z" />
<glyph unicode="x" horiz-adv-x="510" d="M476 -29Q479 -34 477 -38T468 -43H412Q400 -43 392 -29L257 191L112 -29Q103 -43 92 -43H42Q36 -43 34 -39T34 -29L217 244L53 484Q50 489 52 493T61 498H116Q128 498 136 484L257 296L380 484Q389 498 400 498H449Q455
498 457 494T457 484L297 244L476 -29Z" />
<glyph unicode="y" horiz-adv-x="464" d="M47 -191Q35 -188 37 -176L40 -142Q40 -130 52 -135Q68 -141 89 -141Q110 -141 127 -135T154 -117Q165 -103 178 -71T205 2Q160 124 116 243T27 484Q25 489 27 493T35 498H82Q96 498 102 484L237 96Q274 198 307 290T378
484Q383 498 398 498H441Q447 498 449 494T449 484L241 -74Q230 -103 217 -126T189 -163Q171 -180 149 -188T103 -197Q88 -197 76 -196T47 -191Z" />
<glyph unicode="z" horiz-adv-x="484" d="M71 -43Q50 -43 47 -40T43 -15V1Q43 14 51 23L373 440H70Q56 440 56 454V484Q56 498 70 498H423Q444 498 447 495T451 470V452Q451 439 444 431L121 13H437Q451 13 451 -1V-29Q451 -43 437 -43H71Z" />
<glyph unicode="{" horiz-adv-x="303" d="M243 -173Q196 -173 165 -139Q133 -102 133 -44V137Q133 196 113 234Q105 250 94 259T69 274Q58 278 54 282T50 298V308Q50 319 55 323T70 331Q99 342 113 372Q133 410 133 471V649Q133 708 166 744H165Q194 779 244 779H283Q297
779 299 777T302 761V745Q302 732 300 730T283 728H250Q201 728 201 629V453Q201 337 108 303Q201 266 201 149V-23Q201 -122 250 -122H285Q298 -122 300 -124T302 -139V-156Q302 -169 300 -171T284 -173H243Z" />
<glyph unicode="|" horiz-adv-x="242" d="M165 -151T151 -151H107Q93 -151 93 -137V737Q93 751 107 751H151Q165 751 165 737V-137Q165 -151 151 -151Z" />
<glyph unicode="}" horiz-adv-x="303" d="M74 779Q121 779 152 745Q184 708 184 650V469Q184 410 204 372Q212 356 223 347T248 332Q259 328 263 324T267 308V298Q267 287 262 283T247 275Q218 264 204 234Q184 196 184 135V-43Q184 -102 151 -138H152Q123 -173
73 -173H34Q20 -173 18 -171T15 -155V-139Q15 -126 17 -124T34 -122H67Q116 -122 116 -23V153Q116 269 209 303Q116 340 116 457V629Q116 728 67 728H32Q19 728 17 730T15 745V762Q15 775 17 777T33 779H74Z" />
<glyph unicode="~" horiz-adv-x="654" d="M568 361Q576 350 576 347T568 330Q520 250 444 250Q406 250 321 288Q237 328 215 328Q178 328 132 267Q123 254 120 254T108 267L93 288Q85 300 85 305T94 325Q142 400 216 400Q258 400 339 362Q420 322 445 322Q465
322 486 338T530 385Q538 396 540 396T550 386L568 361Z" />
<glyph unicode="&#xa0;" horiz-adv-x="280" />
<glyph unicode="&#xa1;" horiz-adv-x="302" d="M134 -43Q124 -43 119 -43T112 -40T109 -32T109 -17L120 500Q120 517 123 519T143 522H159Q175 522 177 520T181 501L193 -17Q193 -27 193 -32T190 -39T183 -42T168 -43H134ZM199 643Q199 623 185 609T151 594Q131
594 117 608T102 643Q102 663 116 677T151 691Q171 691 185 677T199 643Z" />
<glyph unicode="&#xa2;" horiz-adv-x="940" d="M589 566H590Q545 596 485 596Q426 596 384 573T316 512T278 425T266 325Q266 290 271 255T289 189T321 131T367 86L589 566ZM735 246Q730 190 710 145T658 67T582 18T485 0Q427 0 379 19L330 -88L294 -70L344 35Q275
77 240 152T205 325Q205 394 223 453T276 555T364 624T484 649Q554 649 613 617L655 708L690 694L644 596Q677 571 698 534T726 447H666Q654 505 619 540L401 69Q437 54 484 54Q526 54 559 68T616 108T654 169T674 246H735Z" />
<glyph unicode="&#xa3;" horiz-adv-x="940" d="M385 79Q369 90 350 96T308 103Q287 103 270 89T253 51Q253 27 268 12T308 -3Q338 -3 358 20T385 79ZM743 109Q735 74 725 46T700 -2T662 -32T606 -43Q573 -43 529 -21T433 44Q420 4 390 -20T308 -45Q257 -45 227
-20T197 52Q197 97 228 123T308 149Q329 149 348 144T387 128Q387 144 386 164T381 205T374 245T366 281H215V317H355Q342 352 330 395T317 478Q317 520 331 555T370 614T432 653T514 667Q595 667 642 619T689 476H621Q621 542 591 578T509 615Q452 615 416 580T380
484Q380 447 390 406T416 317H703V281H427Q438 233 442 185T444 101Q464 86 485 71T527 44T568 25T606 17Q623 17 634 22T654 39T670 72T685 127L743 109Z" />
<glyph unicode="&#xa4;" horiz-adv-x="838" d="M687 300Q687 357 666 407T607 494T519 553T412 575Q355 575 305 554T218 495T159 407T137 300Q137 243 158 193T217 106T305 47T412 25Q469 25 519 46T606 105T665 193T687 300ZM802 599L674 485Q702 446 717 399T733
300Q733 243 715 194T665 103L801 -20L771 -55L633 69Q590 27 533 3T412 -21Q350 -21 296 1T198 61L67 -55L37 -20L165 94Q130 136 111 188T91 300Q91 354 107 402T154 492L36 599L70 632L186 528Q230 572 288 596T412 621Q481 621 540 594T645 520L769 632L802
599Z" />
<glyph unicode="&#xa5;" horiz-adv-x="940" d="M510 371H430L470 302L510 371ZM754 664L602 407H739V371H581L513 254H739V218H503V-40H437V218H201V254H428L359 371H201V407H338L186 664H260L409 407H530L680 664H754Z" />
<glyph unicode="&#xa7;" horiz-adv-x="346" d="M237 316Q202 361 175 380T119 400Q98 400 89 388T80 357T89 317T110 280Q143 238 171 219T218 199Q243 199 253 212T264 243T256 282T237 316ZM311 254Q311 212 291 190T233 169Q262 137 275 104T288 31Q288 -32
255 -68T166 -105Q114 -105 80 -77T45 0H101Q101 -37 120 -55T165 -73Q194 -73 214 -53T234 10Q234 45 215 82T165 147Q141 169 118 192T76 239T47 289T35 341Q35 390 58 413T128 429Q96 458 77 498T57 582Q57 648 88 678T174 709Q228 709 258 680T288 609H233Q233
641 219 662T170 683Q140 683 121 663T101 605Q101 563 126 527T190 454Q213 432 235 408T274 359T301 308T311 254Z" />
<glyph unicode="&#xa8;" horiz-adv-x="540" d="M193 659Q193 634 176 618T135 602Q111 602 95 618T78 659Q78 683 94 700T135 717Q159 717 176 700T193 659ZM460 659Q460 634 443 618T402 602Q378 602 362 618T345 659Q345 683 361 700T402 717Q426 717 443 700T460 659Z" />
<glyph unicode="&#xa9;" horiz-adv-x="855" d="M640 223Q634 176 616 139T570 76T506 35T428 21Q370 21 327 43T254 102T211 189T196 295Q196 350 210 400T254 487T326 547T428 569Q468 569 503 558T567 524T613 468T636 390H573Q561 447 524 479T428 512Q384
512 353 494T301 444T271 374T261 295Q261 254 271 216T301 146T352 97T428 78Q456 78 481 89T527 119T560 164T577 223H640ZM785 298Q785 375 759 440T685 552T572 626T430 653Q353 653 288 627T176 553T102 440T75 298Q75 221 101 156T175 44T288 -30T430 -57Q507
-57 572 -31T684 43T758 156T785 298ZM828 298Q828 212 798 139T715 14T589 -68T430 -98Q344 -98 271 -69T145 13T62 139T32 298Q32 384 62 457T145 582T271 664T430 694Q516 694 589 665T715 583T798 457T828 298Z" />
<glyph unicode="&#xaa;" horiz-adv-x="541" d="M334 566Q329 559 320 553T301 545Q266 538 240 533T196 519T171 499T162 467Q162 439 180 426T230 413Q276 413 305 439T334 512V566ZM441 282H100V330H441V282ZM411 392Q404 390 399 390T385 389Q359 389 348 404T336
445Q328 416 301 397T225 378Q182 378 151 399T120 466Q120 496 132 515T167 546T221 565T288 579Q310 583 322 591T334 617Q334 653 313 666T255 680Q223 680 202 664T178 609H134Q136 664 171 690T260 716Q283 716 304 712T341 695T366 663T376 613V446Q376 421
398 421Q401 421 404 422T411 424V392Z" />
<glyph unicode="&#xab;" horiz-adv-x="940" d="M612 -4L592 -34L111 285V317L585 646L607 616L150 300L612 -4ZM829 0L811 -30L328 285V317L804 642L825 613L367 300L829 0Z" />
<glyph unicode="&#xac;" horiz-adv-x="940" d="M901 -160H864V104H39V139H901V-160Z" />
<glyph unicode="&#xad;" horiz-adv-x="410" d="M351 283H59V341H351V283Z" />
<glyph unicode="&#xae;" horiz-adv-x="940" d="M469 -75Q302 -75 184 43T66 326Q66 492 184 609T469 727Q633 727 750 610T868 326Q868 161 751 43T469 -75ZM469 682Q322 682 218 578T113 326Q113 179 217 76T469 -27Q615 -27 719 76T823 326Q823 473 719 577T469
682ZM662 74H576L521 198Q478 290 430 290H383V74H311V585H456Q544 585 592 548T640 447Q640 394 607 357T512 307V305Q554 296 596 211L662 74ZM383 525V350H459Q566 350 566 438Q566 484 537 504T446 525H383Z" />
<glyph unicode="&#xb0;" horiz-adv-x="446" d="M300 614Q300 646 278 669T223 692Q191 692 169 669T146 614Q146 582 168 559T223 536Q255 536 277 559T300 614ZM330 614Q330 592 322 573T299 539T265 516T223 507Q201 507 182 515T148 538T125 572T116 614Q116
636 124 655T147 689T181 712T223 721Q245 721 264 713T298 690T321 656T330 614Z" />
<glyph unicode="&#xb1;" horiz-adv-x="567" d="M523 65T524 64T526 51V24Q526 13 525 12T512 10H53Q42 10 41 11T39 24V51Q39 62 40 63T53 65H512Q523 65 524 64ZM311 139T310 138T297 136H269Q258 136 257 137T255 150V361H53Q42 361 41 362T39 375V402Q39 413
40 414T53 416H255V625Q255 636 256 637T269 639H297Q308 639 309 638T311 625V416H512Q523 416 524 415T526 402V375Q526 364 525 363T512 361H311V150Q311 139 310 138Z" />
<glyph unicode="&#xb2;" horiz-adv-x="410" d="M281 667Q281 637 265 618T223 581Q197 563 183 551T163 522H278V494H128Q133 535 156 558T213 605Q234 619 243 633T253 667Q253 708 209 708Q186 708 174 692T162 650H133Q133 685 154 709T211 733Q243 733 262
716T281 667Z" />
<glyph unicode="&#xb3;" horiz-adv-x="428" d="M295 563Q295 531 272 512T214 492Q181 492 157 512T134 571H163Q162 542 178 530T214 517Q237 517 252 530T267 563Q267 586 254 596T218 606H201V633H218Q235 633 247 643T259 673Q259 690 247 699T215 708Q170
708 167 656H139Q139 688 160 710T214 733Q246 733 266 717T287 673Q287 653 277 638T245 620Q266 617 280 602T295 563Z" />
<glyph unicode="&#xb4;" horiz-adv-x="324" d="M246 727L103 516H78L159 727H246Z" />
<glyph unicode="&#xb6;" horiz-adv-x="605" d="M524 -110H470V674H346V-110H292V332Q239 332 200 346T134 386T94 447T81 523Q81 564 94 599T133 659T199 699T290 714H524V-110Z" />
<glyph unicode="&#xb7;" horiz-adv-x="290" d="M202 332Q202 307 185 291T144 275Q120 275 104 291T87 332Q87 356 103 373T144 390Q168 390 185 373T202 332Z" />
<glyph unicode="&#xb8;" horiz-adv-x="317" d="M256 -121Q256 -160 226 -179T143 -198Q120 -198 97 -190T61 -172L73 -147Q87 -156 104 -161T146 -166Q172 -166 189 -155T206 -124Q206 -103 189 -95T143 -87Q129 -87 121 -89T105 -95L98 -91L138 12H170L140 -65Q151
-60 162 -57T190 -53Q219 -53 237 -73T256 -121Z" />
<glyph unicode="&#xb9;" horiz-adv-x="405" d="M241 496H213V668H164V689Q188 691 201 700T217 730H241V496Z" />
<glyph unicode="&#xba;" horiz-adv-x="541" d="M374 546Q374 606 345 642T268 679Q220 679 191 643T162 546Q162 486 191 450T268 413Q316 413 345 449T374 546ZM441 282H100V330H441V282ZM416 546Q416 509 406 478T376 424T329 389T268 376Q235 376 208 388T161
423T131 477T120 546Q120 583 130 614T160 668T207 703T268 716Q301 716 328 704T375 669T405 615T416 546Z" />
<glyph unicode="&#xbb;" horiz-adv-x="940" d="M612 285L129 -30L111 0L573 300L115 613L136 642L612 317V285ZM829 285L348 -34L328 -4L790 300L333 616L355 646L829 317V285Z" />
<glyph unicode="&#xbc;" horiz-adv-x="737" d="M549 29V184L439 29H549ZM652 -13H593V-103H549V-13H387V29L552 258H593V29H652V-13ZM650 571L111 9L85 33L623 595L650 571ZM223 347H180V595H109V629Q128 630 141 633T164 645T178 669T187 707H223V347Z" />
<glyph unicode="&#xbd;" horiz-adv-x="705" d="M638 -106H396Q397 -74 407 -51T433 -10T471 22T516 53Q530 62 541 71T564 92Q578 106 585 119T592 153Q592 183 572 199T522 216Q483 216 466 190T449 121H406Q404 181 433 218T522 255Q569 255 602 230T635 153Q635
125 624 104T596 65T558 33T517 5Q497 -8 476 -25T447 -65H638V-106ZM633 571L94 9L67 33L605 595L633 571ZM211 347H168V595H96V629Q115 630 128 633T151 645T165 669T174 707H211V347Z" />
<glyph unicode="&#xbe;" horiz-adv-x="746" d="M554 27V182L444 27H554ZM657 -15H598V-105H554V-15H392V27L557 256H598V27H657V-15ZM668 571L129 9L103 33L641 595L668 571ZM321 454Q321 427 311 407T284 372T245 351T199 343Q144 343 109 375T78 471H121Q119
429 139 405T198 380Q230 380 254 399T278 451Q278 483 257 500T204 517H172V557H204Q226 557 246 570T266 613Q266 642 247 656T198 671Q163 671 145 648T128 584H86Q86 640 115 675T198 710Q219 710 238 705T273 687T298 658T308 616Q308 591 298 571T266 540Q292
529 306 507T321 454Z" />
<glyph unicode="&#xbf;" horiz-adv-x="540" d="M89 140Q89 201 117 247Q125 261 141 282T181 330Q204 353 220 371T246 408Q273 454 273 509Q273 520 274 522T286 524H327Q337 524 338 523T340 510Q340 444 312 395Q303 379 281 353T235 302Q218 283 207 269T183
232Q170 211 166 189T162 140Q162 80 200 47T298 13Q324 13 357 18T433 38Q449 42 449 29L450 -12Q450 -26 437 -29Q397 -39 362 -44T294 -50Q205 -50 151 -5Q89 45 89 140ZM353 643Q353 623 339 609T305 594Q285 594 271 608T256 643Q256 663 270 677T305 691Q325
691 339 677T353 643Z" />
<glyph unicode="&#xc0;" horiz-adv-x="654" d="M367 671Q367 664 358 664H304Q296 664 292 667T281 679L198 776Q194 780 194 784Q194 791 205 791H271Q280 791 284 788T296 776L363 681Q367 676 367 671ZM361 629Q374 629 379 617L632 -29Q637 -43 623 -43H575Q569
-43 565 -41T556 -29L482 155H172L98 -29Q94 -39 90 -41T79 -43H31Q17 -43 22 -29L275 617Q279 629 293 629H361ZM327 560L196 219H458L327 560Z" />
<glyph unicode="&#xc1;" horiz-adv-x="654" d="M361 629Q374 629 379 617L632 -29Q637 -43 623 -43H575Q569 -43 565 -41T556 -29L482 155H172L98 -29Q94 -39 90 -41T79 -43H31Q17 -43 22 -29L275 617Q279 629 293 629H361ZM327 560L196 219H458L327 560ZM288
671Q288 676 292 681L359 776Q366 784 370 787T384 791H450Q461 791 461 784Q461 780 457 776L374 679Q367 671 363 668T351 664H297Q288 664 288 671Z" />
<glyph unicode="&#xc2;" horiz-adv-x="654" d="M462 671Q462 664 453 664H401Q393 664 389 667T378 679L326 746L273 679Q266 671 262 668T250 664H198Q189 664 189 671Q189 677 193 681L259 775Q266 783 270 786T283 790H368Q377 790 381 787T393 775L458 681Q462
677 462 671ZM361 629Q374 629 379 617L632 -29Q637 -43 623 -43H575Q569 -43 565 -41T556 -29L482 155H172L98 -29Q94 -39 90 -41T79 -43H31Q17 -43 22 -29L275 617Q279 629 293 629H361ZM327 560L196 219H458L327 560Z" />
<glyph unicode="&#xc6;" horiz-adv-x="846" d="M425 -44Q404 -44 401 -41T397 -16V146H183L134 -27Q132 -33 127 -37T116 -42H67Q50 -42 50 -26Q50 -20 51 -19L216 554Q223 577 234 591T260 614T289 626T318 629H770Q784 629 784 615V580Q784 566 770 566H470V342H755Q769
342 769 328V292Q769 278 755 278H470V20H782Q796 20 796 6V-30Q796 -44 782 -44H425ZM308 560Q293 560 288 543L197 210H397V560H308Z" />
<glyph unicode="&#xc7;" horiz-adv-x="571" d="M309 -21Q201 -5 130 69Q84 115 62 167T40 297Q40 373 62 430T132 535Q227 630 378 630Q420 630 451 627T517 615Q531 610 530 598L528 552Q527 539 515 544Q480 556 449 560T378 564Q314 564 269 549T186 493Q151
454 134 409T116 297Q116 233 133 191T185 110Q221 70 266 55T378 40Q416 41 453 46T514 60Q519 62 523 61T528 54L530 9Q531 -2 517 -7Q488 -18 457 -22T378 -26H370L359 -52Q365 -50 378 -49T405 -52T429 -70T440 -111Q440 -148 415 -173T333 -198Q313 -197 295
-192T263 -173L275 -136Q375 -160 375 -120Q375 -71 289 -106L283 -102L309 -21Z" />
<glyph unicode="&#xc8;" horiz-adv-x="519" d="M303 671Q303 664 294 664H240Q232 664 228 667T217 679L134 776Q130 780 130 784Q130 791 141 791H207Q216 791 220 788T232 776L299 681Q303 676 303 671ZM88 -44Q67 -44 64 -41T60 -16V603Q60 622 63 625T86 629H433Q447
629 447 615V580Q447 566 433 566H133V342H418Q432 342 432 328V292Q432 278 418 278H133V20H445Q459 20 459 6V-30Q459 -44 445 -44H88Z" />
<glyph unicode="&#xc9;" horiz-adv-x="519" d="M445 -44Q459 -44 459 -30V6Q459 20 445 20H133V278H418Q432 278 432 292V328Q432 342 418 342H133V566H433Q447 566 447 580V615Q447 629 433 629H86Q67 629 64 626T60 603V-16Q60 -37 63 -40T88 -44H445ZM213 671Q213
676 217 681L284 776Q291 784 295 787T309 791H375Q386 791 386 784Q386 780 382 776L299 679Q292 671 288 668T276 664H222Q213 664 213 671Z" />
<glyph unicode="&#xca;" horiz-adv-x="519" d="M88 -44Q67 -44 64 -41T60 -16V603Q60 622 63 625T86 629H433Q447 629 447 615V580Q447 566 433 566H133V342H418Q432 342 432 328V292Q432 278 418 278H133V20H445Q459 20 459 6V-30Q459 -44 445 -44H88ZM391 671Q391
664 382 664H330Q322 664 318 667T307 679L255 746L202 679Q195 671 191 668T179 664H127Q118 664 118 671Q118 677 122 681L188 775Q195 783 199 786T212 790H297Q306 790 310 787T322 775L387 681Q391 677 391 671Z" />
<glyph unicode="&#xcb;" horiz-adv-x="519" d="M111 733Q111 753 125 767T159 782Q179 782 193 768T208 733Q208 713 194 699T159 685Q139 685 125 699T111 733ZM301 733Q301 753 315 767T349 782Q369 782 383 768T398 733Q398 713 384 699T349 685Q329 685 315
699T301 733ZM88 -44Q67 -44 64 -41T60 -16V603Q60 622 63 625T86 629H433Q447 629 447 615V580Q447 566 433 566H133V342H418Q432 342 432 328V292Q432 278 418 278H133V20H445Q459 20 459 6V-30Q459 -44 445 -44H88Z" />
<glyph unicode="&#xcd;" horiz-adv-x="390" d="M231 -29Q231 -43 217 -43H169Q155 -43 155 -29V606Q155 620 169 620H217Q231 620 231 606V-29ZM156 671Q156 676 160 681L227 776Q234 784 238 787T252 791H318Q329 791 329 784Q329 780 325 776L242 679Q235 671
231 668T219 664H165Q156 664 156 671Z" />
<glyph unicode="&#xce;" horiz-adv-x="373" d="M225 -29Q225 -43 211 -43H163Q149 -43 149 -29V616Q149 630 163 630H211Q225 630 225 616V-29ZM323 671Q323 664 314 664H262Q254 664 250 667T239 679L187 746L134 679Q127 671 123 668T111 664H59Q50 664 50 671Q50
677 54 681L120 775Q127 783 131 786T144 790H229Q238 790 242 787T254 775L319 681Q323 677 323 671Z" />
<glyph unicode="&#xcf;" horiz-adv-x="387" d="M50 733Q50 753 64 767T98 782Q118 782 132 768T147 733Q147 713 133 699T98 685Q78 685 64 699T50 733ZM240 733Q240 753 254 767T288 782Q308 782 322 768T337 733Q337 713 323 699T288 685Q268 685 254 699T240
733ZM231 -29Q231 -43 217 -43H169Q155 -43 155 -29V616Q155 630 169 630H217Q231 630 231 616V-29Z" />
<glyph unicode="&#xd0;" horiz-adv-x="794" d="M661 317Q661 396 645 452T595 545T508 599T380 616H247V375H366V327H247V18H380Q455 18 508 35T595 88T645 181T661 317ZM727 317Q727 137 644 49T408 -40H181V327H67V375H181V674H408Q561 674 644 586T727 317Z" />
<glyph unicode="&#xd1;" horiz-adv-x="727" d="M150 -43H105Q91 -43 91 -29V601Q91 622 94 625T119 629H165Q178 629 182 627T192 615L569 38V615Q569 629 583 629H627Q641 629 641 615V-15Q641 -36 638 -39T613 -43H552Q544 -43 541 -41T532 -31L164 535V-29Q164
-43 150 -43ZM519 736Q506 701 486 688T448 672Q430 669 413 675T377 693Q361 704 346 712T312 717Q302 715 294 708T275 686Q269 677 260 686L238 712Q228 719 236 732Q250 755 267 765T302 778Q319 781 336 778T369 764Q384 753 400 743T433 735Q447 737 456
744T471 770Q474 782 483 775L515 755Q521 751 521 747T519 736Z" />
<glyph unicode="&#xd3;" horiz-adv-x="700" d="M576 294Q576 408 522 491Q491 534 448 558T350 582Q295 582 252 558T178 491Q123 409 123 294Q123 178 178 97Q209 54 252 30T350 6Q404 6 447 29T522 97Q548 137 562 187T576 294ZM649 294Q648 132 574 40Q494
-59 350 -59Q206 -59 125 40Q50 134 50 294Q50 443 121 540Q163 591 220 618T350 646Q495 646 578 539Q613 490 631 430T649 294ZM292 676Q292 681 296 686L359 776Q366 784 370 787T384 791H450Q461 791 461 784Q461 780 457 776L378 684Q371 676 367 673T355
669H301Q292 669 292 676Z" />
<glyph unicode="&#xd4;" horiz-adv-x="700" d="M486 671Q486 664 477 664H425Q417 664 413 667T402 679L350 746L297 679Q290 671 286 668T274 664H222Q213 664 213 671Q213 677 217 681L283 775Q290 783 294 786T307 790H392Q401 790 405 787T417 775L482 681Q486
677 486 671ZM576 294Q576 408 522 491Q491 534 448 558T350 582Q295 582 252 558T178 491Q123 409 123 294Q123 178 178 97Q209 54 252 30T350 6Q404 6 447 29T522 97Q548 137 562 187T576 294ZM649 294Q648 132 574 40Q494 -59 350 -59Q206 -59 125 40Q50 134
50 294Q50 443 121 540Q163 591 220 618T350 646Q495 646 578 539Q613 490 631 430T649 294Z" />
<glyph unicode="&#xd7;" horiz-adv-x="592" d="M494 552Q500 558 502 558T510 551L537 526Q544 518 544 516T537 507L339 308L529 118Q536 112 536 110T529 100L504 75Q497 68 495 68T486 75L295 266L98 69Q91 62 89 62T80 69L55 95Q49 101 49 103T56 113L252
310Q231 331 207 355T158 404T109 453T62 499Q58 504 57 507T62 517L87 542Q94 549 96 549T105 542L294 353L494 551V552Z" />
<glyph unicode="&#xd8;" horiz-adv-x="780" d="M530 584Q501 607 466 619T390 631Q333 631 287 608T207 544T155 444T136 317Q136 236 160 172T229 65L530 584ZM644 317Q644 393 622 454T560 558L260 41Q288 23 320 13T390 3Q445 3 492 26T572 91T625 190T644
317ZM710 317Q710 227 685 158T617 41T515 -31T390 -55Q345 -55 305 -44T229 -13L151 -146L119 -125L197 9Q137 56 104 133T70 317Q70 407 94 476T162 593T263 664T390 689Q488 689 562 639L625 747L659 728L593 616Q647 569 678 494T710 317Z" />
<glyph unicode="&#xd9;" horiz-adv-x="641" d="M374 671Q374 664 365 664H311Q303 664 299 667T288 679L205 776Q201 780 201 784Q201 791 212 791H278Q287 791 291 788T303 776L370 681Q374 676 374 671ZM124 215Q124 120 173 65Q228 4 320 4Q414 4 469 65Q517
117 517 215V616Q517 630 531 630H577Q591 630 591 616V215Q591 142 567 87T498 -4Q425 -59 320 -59Q216 -59 143 -4Q50 65 50 215V616Q50 630 64 630H110Q124 630 124 616V215Z" />
<glyph unicode="&#xda;" horiz-adv-x="641" d="M251 671Q251 676 255 681L322 776Q329 784 333 787T347 791H413Q424 791 424 784Q424 780 420 776L337 679Q330 671 326 668T314 664H260Q251 664 251 671ZM124 215Q124 120 173 65Q228 4 320 4Q414 4 469 65Q517
117 517 215V616Q517 630 531 630H577Q591 630 591 616V215Q591 142 567 87T498 -4Q425 -59 320 -59Q216 -59 143 -4Q50 65 50 215V616Q50 630 64 630H110Q124 630 124 616V215Z" />
<glyph unicode="&#xdb;" horiz-adv-x="641" d="M457 671Q457 664 448 664H396Q388 664 384 667T373 679L321 746L268 679Q261 671 257 668T245 664H193Q184 664 184 671Q184 677 188 681L254 775Q261 783 265 786T278 790H363Q372 790 376 787T388 775L453 681Q457
677 457 671ZM124 215Q124 120 173 65Q228 4 320 4Q414 4 469 65Q517 117 517 215V616Q517 630 531 630H577Q591 630 591 616V215Q591 142 567 87T498 -4Q425 -59 320 -59Q216 -59 143 -4Q50 65 50 215V616Q50 630 64 630H110Q124 630 124 616V215Z" />
<glyph unicode="&#xdc;" horiz-adv-x="641" d="M178 733Q178 753 192 767T226 782Q246 782 260 768T275 733Q275 713 261 699T226 685Q206 685 192 699T178 733ZM368 733Q368 753 382 767T416 782Q436 782 450 768T465 733Q465 713 451 699T416 685Q396 685 382
699T368 733ZM124 215Q124 120 173 65Q228 4 320 4Q414 4 469 65Q517 117 517 215V616Q517 630 531 630H577Q591 630 591 616V215Q591 142 567 87T498 -4Q425 -59 320 -59Q216 -59 143 -4Q50 65 50 215V616Q50 630 64 630H110Q124 630 124 616V215Z" />
<glyph unicode="&#xde;" horiz-adv-x="530" d="M384 317Q384 369 362 407T306 469T231 505T149 517V117Q188 117 229 128T305 164T361 226T383 317H384ZM447 317Q447 253 421 206T353 127T258 80T150 64V-40H83V674H149V570Q203 570 256 555T352 508T421 429T447 317Z" />
<glyph unicode="&#xdf;" horiz-adv-x="657" d="M244 356Q244 369 256 369H305Q351 369 383 379T436 408T466 452T475 506Q475 533 468 556T444 596T401 624T335 634H276Q259 634 243 628T215 611T194 583T186 543V-30Q186 -43 172 -43H128Q114 -43 114 -30V542Q114
579 125 607T155 654T201 682T259 691H355Q395 691 430 678T490 641T530 584T545 509Q545 451 519 409T427 344Q463 336 493 317T546 269T581 205T593 130Q592 79 577 41T537 -23T479 -62T407 -75Q369 -75 337 -66T280 -38T243 7T229 68Q229 77 239 77H293Q301
77 301 69Q301 20 332 1T407 -18Q457 -18 490 19T523 132Q523 176 507 210T461 266T392 300T305 312H256Q244 312 244 325V356Z" />
<glyph unicode="&#xe0;" horiz-adv-x="522" d="M400 239H381Q324 241 281 235T209 217Q125 187 125 102Q125 77 133 56T158 22Q188 -2 238 -2Q273 -2 302 12T354 52T388 116T400 205V239ZM115 414Q110 411 106 412T101 419V457Q101 470 115 478Q150 497 189 504T276
512Q376 512 422 465T468 321V70Q468 40 469 17T472 -29Q472 -43 458 -43H422Q408 -43 408 -29V48Q387 -3 338 -31T230 -59Q129 -59 82 0Q66 20 58 46T50 99Q50 160 78 204T166 270Q239 296 387 296H400V326Q400 389 372 422T276 455Q231 455 191 446T115 414ZM334
571Q334 564 325 564H271Q263 564 259 567T248 579L165 676Q161 680 161 684Q161 691 172 691H238Q247 691 251 688T263 676L330 581Q334 576 334 571Z" />
<glyph unicode="&#xe1;" horiz-adv-x="522" d="M400 239H381Q324 241 281 235T209 217Q125 187 125 102Q125 77 133 56T158 22Q188 -2 238 -2Q273 -2 302 12T354 52T388 116T400 205V239ZM115 414Q110 411 106 412T101 419V457Q101 470 115 478Q150 497 189 504T276
512Q376 512 422 465T468 321V70Q468 40 469 17T472 -29Q472 -43 458 -43H422Q408 -43 408 -29V48Q387 -3 338 -31T230 -59Q129 -59 82 0Q66 20 58 46T50 99Q50 160 78 204T166 270Q239 296 387 296H400V326Q400 389 372 422T276 455Q231 455 191 446T115 414ZM223
571Q223 576 227 581L294 676Q301 684 305 687T319 691H385Q396 691 396 684Q396 680 392 676L309 579Q302 571 298 568T286 564H232Q223 564 223 571Z" />
<glyph unicode="&#xe2;" horiz-adv-x="522" d="M400 239H381Q324 241 281 235T209 217Q125 187 125 102Q125 77 133 56T158 22Q188 -2 238 -2Q273 -2 302 12T354 52T388 116T400 205V239ZM115 414Q110 411 106 412T101 419V457Q101 470 115 478Q150 497 189 504T276
512Q376 512 422 465T468 321V70Q468 40 469 17T472 -29Q472 -43 458 -43H422Q408 -43 408 -29V48Q387 -3 338 -31T230 -59Q129 -59 82 0Q66 20 58 46T50 99Q50 160 78 204T166 270Q239 296 387 296H400V326Q400 389 372 422T276 455Q231 455 191 446T115 414ZM409
571Q409 564 400 564H348Q340 564 336 567T325 579L273 646L220 579Q213 571 209 568T197 564H145Q136 564 136 571Q136 577 140 581L206 675Q213 683 217 686T230 690H315Q324 690 328 687T340 675L405 581Q409 577 409 571Z" />
<glyph unicode="&#xe4;" horiz-adv-x="522" d="M400 239H381Q324 241 281 235T209 217Q125 187 125 102Q125 77 133 56T158 22Q188 -2 238 -2Q273 -2 302 12T354 52T388 116T400 205V239ZM115 414Q110 411 106 412T101 419V457Q101 470 115 478Q150 497 189 504T276
512Q376 512 422 465T468 321V70Q468 40 469 17T472 -29Q472 -43 458 -43H422Q408 -43 408 -29V48Q387 -3 338 -31T230 -59Q129 -59 82 0Q66 20 58 46T50 99Q50 160 78 204T166 270Q239 296 387 296H400V326Q400 389 372 422T276 455Q231 455 191 446T115 414ZM130
617Q130 637 144 651T178 666Q198 666 212 652T227 617Q227 597 213 583T178 569Q158 569 144 583T130 617ZM320 617Q320 637 334 651T368 666Q388 666 402 652T417 617Q417 597 403 583T368 569Q348 569 334 583T320 617Z" />
<glyph unicode="&#xe6;" horiz-adv-x="915" d="M780 265Q780 307 772 338T747 396Q709 455 640 455Q568 455 523 395Q505 368 493 333T480 265H780ZM404 239H391Q334 241 291 235T219 217Q135 187 135 102Q135 77 143 56T168 22Q198 -2 248 -2Q282 -2 311 9T360
44T392 108T404 205V239ZM460 422Q463 425 469 433Q535 512 636 512Q693 512 733 492T803 432Q854 361 854 242Q854 229 854 222T850 212T840 209T818 208H480Q478 109 528 55T660 1Q700 1 735 8T800 33Q813 39 813 26V-19Q813 -28 802 -33Q769 -46 733 -52T655
-59Q532 -59 469 13Q459 25 447 43Q442 35 437 28T424 14Q398 -16 354 -37T240 -59Q139 -59 92 0Q76 20 68 46T60 99Q60 160 88 204T176 270Q249 296 397 296H410V326Q410 389 382 422T286 455Q241 455 201 446T125 414Q120 411 116 412T111 419V457Q111 470 125
478Q160 497 199 504T286 512Q385 512 432 465Q440 455 447 445T460 422Z" />
<glyph unicode="&#xe7;" horiz-adv-x="502" d="M273 -23Q253 -21 236 -17T202 -6Q129 21 90 84T50 239Q50 300 69 350T123 436T208 491T320 511Q353 511 380 509T438 499Q452 494 451 480L448 448Q446 436 433 439Q407 447 383 450T330 454Q228 454 176 396T124
239Q124 194 137 156T176 91T238 48T322 32Q357 32 380 35T432 46Q446 50 448 39L451 2Q452 -13 437 -16Q422 -18 408 -20T379 -23Q369 -24 359 -24T335 -25L324 -52Q330 -50 343 -49T370 -52T394 -70T405 -111Q405 -148 380 -173T298 -198Q278 -197 260 -192T228
-173L240 -136Q340 -160 340 -120Q340 -71 254 -106L248 -102L273 -23Z" />
<glyph unicode="&#xe8;" horiz-adv-x="549" d="M424 265Q424 307 416 338T391 396Q353 455 284 455Q212 455 167 395Q149 368 137 333T124 265H424ZM124 208Q122 109 172 55T304 1Q344 1 379 8T444 33Q457 39 457 26V-19Q457 -28 446 -33Q413 -46 377 -52T299
-59Q175 -59 113 12T50 228Q50 355 113 433Q179 512 280 512Q337 512 377 492T447 432Q498 361 498 242Q498 229 498 222T494 212T484 209T462 208H124ZM348 571Q348 564 339 564H285Q277 564 273 567T262 579L179 676Q175 680 175 684Q175 691 186 691H252Q261
691 265 688T277 676L344 581Q348 576 348 571Z" />
<glyph unicode="&#xe9;" horiz-adv-x="549" d="M424 265Q424 307 416 338T391 396Q353 455 284 455Q212 455 167 395Q149 368 137 333T124 265H424ZM124 208Q122 109 172 55T304 1Q344 1 379 8T444 33Q457 39 457 26V-19Q457 -28 446 -33Q413 -46 377 -52T299
-59Q175 -59 113 12T50 228Q50 355 113 433Q179 512 280 512Q337 512 377 492T447 432Q498 361 498 242Q498 229 498 222T494 212T484 209T462 208H124ZM228 571Q228 576 232 581L299 676Q306 684 310 687T324 691H390Q401 691 401 684Q401 680 397 676L314 579Q307
571 303 568T291 564H237Q228 564 228 571Z" />
<glyph unicode="&#xea;" horiz-adv-x="549" d="M424 265Q424 307 416 338T391 396Q353 455 284 455Q212 455 167 395Q149 368 137 333T124 265H424ZM124 208Q122 109 172 55T304 1Q344 1 379 8T444 33Q457 39 457 26V-19Q457 -28 446 -33Q413 -46 377 -52T299
-59Q175 -59 113 12T50 228Q50 355 113 433Q179 512 280 512Q337 512 377 492T447 432Q498 361 498 242Q498 229 498 222T494 212T484 209T462 208H124ZM415 571Q415 564 406 564H354Q346 564 342 567T331 579L279 646L226 579Q219 571 215 568T203 564H151Q142
564 142 571Q142 577 146 581L212 675Q219 683 223 686T236 690H321Q330 690 334 687T346 675L411 581Q415 577 415 571Z" />
<glyph unicode="&#xeb;" horiz-adv-x="549" d="M424 265Q424 307 416 338T391 396Q353 455 284 455Q212 455 167 395Q149 368 137 333T124 265H424ZM124 208Q122 109 172 55T304 1Q344 1 379 8T444 33Q457 39 457 26V-19Q457 -28 446 -33Q413 -46 377 -52T299
-59Q175 -59 113 12T50 228Q50 355 113 433Q179 512 280 512Q337 512 377 492T447 432Q498 361 498 242Q498 229 498 222T494 212T484 209T462 208H124ZM136 617Q136 637 150 651T184 666Q204 666 218 652T233 617Q233 597 219 583T184 569Q164 569 150 583T136
617ZM326 617Q326 637 340 651T374 666Q394 666 408 652T423 617Q423 597 409 583T374 569Q354 569 340 583T326 617Z" />
<glyph unicode="&#xed;" horiz-adv-x="385" d="M222 -29Q222 -43 208 -43H164Q150 -43 150 -29V484Q150 498 164 498H208Q222 498 222 484V-29ZM152 571Q152 577 156 581L223 676Q230 684 234 687T248 691H314Q325 691 325 684Q325 680 321 676L238 579Q231 571
227 568T215 564H161Q152 564 152 571Z" />
<glyph unicode="&#xee;" horiz-adv-x="373" d="M223 -29Q223 -43 209 -43H165Q151 -43 151 -29V484Q151 498 165 498H209Q223 498 223 484V-29ZM323 571Q323 564 314 564H262Q254 564 250 567T239 579L187 646L134 579Q127 571 123 568T111 564H59Q50 564 50 571Q50
577 54 581L120 675Q127 683 131 686T144 690H229Q238 690 242 687T254 675L319 581Q323 577 323 571Z" />
<glyph unicode="&#xef;" horiz-adv-x="387" d="M225 -29Q225 -43 211 -43H167Q153 -43 153 -29V484Q153 498 167 498H211Q225 498 225 484V-29ZM50 617Q50 637 64 651T98 666Q118 666 132 652T147 617Q147 597 133 583T98 569Q78 569 64 583T50 617ZM240 617Q240
637 254 651T288 666Q308 666 322 652T337 617Q337 597 323 583T288 569Q268 569 254 583T240 617Z" />
<glyph unicode="&#xf0;" horiz-adv-x="592" d="M471 218Q471 267 459 307T423 377T368 422T296 438Q257 438 225 422T169 377T134 308T121 218Q121 169 133 129T169 59T224 14T296 -2Q335 -2 367 14T423 59T458 128T471 218ZM532 220Q532 159 516 109T469 22T394
-35T296 -55Q242 -55 198 -35T124 21T77 108T60 218Q60 278 76 328T123 414T198 471T296 491Q333 491 365 481T423 454Q408 489 388 519T343 577L287 522L262 547L318 602Q286 632 249 659L267 690Q291 678 312 665T354 637L409 691L434 666L382 614Q462 537 497
441T532 220Z" />
<glyph unicode="&#xf1;" horiz-adv-x="606" d="M521 -29Q521 -43 507 -43H467Q453 -43 453 -29V286Q453 378 420 416T327 455Q246 455 204 410T161 284V-29Q161 -43 147 -43H107Q93 -43 93 -29V371Q93 414 93 438T90 484Q89 491 93 494T104 498H140Q154 498 154
484V429Q182 472 221 492T330 512Q426 512 473 457T521 302V-29ZM459 646Q446 611 426 598T388 582Q370 579 353 585T317 603Q301 614 286 622T252 627Q242 625 234 618T215 596Q209 587 200 596L178 622Q168 629 176 642Q190 665 207 675T242 688Q259 691 276
688T309 674Q324 663 340 653T373 645Q387 647 396 654T411 680Q414 692 423 685L455 665Q461 661 461 657T459 646Z" />
<glyph unicode="&#xf3;" horiz-adv-x="612" d="M488 227Q488 275 476 315T441 388Q389 452 306 452Q264 452 231 436T171 388Q148 356 136 316T123 227Q123 129 171 66Q224 1 306 1Q348 1 381 18T441 66Q463 97 475 138T488 227ZM562 227Q562 167 545 117T500
29Q465 -13 417 -36T306 -59Q243 -59 195 -36T111 29Q83 67 67 117T50 227Q50 349 111 425Q181 512 306 512Q431 512 500 425Q562 345 562 227ZM262 571Q262 577 266 581L333 676Q340 684 344 687T358 691H424Q435 691 435 684Q435 680 431 676L348 579Q341 571
337 568T325 564H271Q262 564 262 571Z" />
<glyph unicode="&#xf4;" horiz-adv-x="612" d="M488 227Q488 275 476 315T441 388Q389 452 306 452Q264 452 231 436T171 388Q148 356 136 316T123 227Q123 129 171 66Q224 1 306 1Q348 1 381 18T441 66Q463 97 475 138T488 227ZM562 227Q562 167 545 117T500
29Q465 -13 417 -36T306 -59Q243 -59 195 -36T111 29Q83 67 67 117T50 227Q50 349 111 425Q181 512 306 512Q431 512 500 425Q562 345 562 227ZM442 571Q442 564 433 564H381Q373 564 369 567T358 579L306 646L253 579Q246 571 242 568T230 564H178Q169 564 169
571Q169 577 173 581L239 675Q246 683 250 686T263 690H348Q357 690 361 687T373 675L438 581Q442 577 442 571Z" />
<glyph unicode="&#xf6;" horiz-adv-x="612" d="M488 227Q488 275 476 315T441 388Q389 452 306 452Q264 452 231 436T171 388Q148 356 136 316T123 227Q123 129 171 66Q224 1 306 1Q348 1 381 18T441 66Q463 97 475 138T488 227ZM562 227Q562 167 545 117T500
29Q465 -13 417 -36T306 -59Q243 -59 195 -36T111 29Q83 67 67 117T50 227Q50 349 111 425Q181 512 306 512Q431 512 500 425Q562 345 562 227ZM162 617Q162 637 176 651T210 666Q230 666 244 652T259 617Q259 597 245 583T210 569Q190 569 176 583T162 617ZM352
617Q352 637 366 651T400 666Q420 666 434 652T449 617Q449 597 435 583T400 569Q380 569 366 583T352 617Z" />
<glyph unicode="&#xf7;" horiz-adv-x="650" d="M607 338T608 337T610 324V300Q610 289 609 288T596 286H53Q42 286 41 287T39 300V324Q39 335 40 336T53 338H596Q607 338 608 337ZM380 519Q380 496 364 481T325 465Q302 465 287 480T271 519Q271 542 286 558T325
574Q348 574 364 558T380 519ZM380 104Q380 81 364 66T325 50Q302 50 287 65T271 104Q271 127 286 143T325 159Q348 159 364 143T380 104Z" />
<glyph unicode="&#xf8;" horiz-adv-x="612" d="M377 422Q360 430 343 434T306 438Q267 438 235 422T179 377T144 308T131 218Q131 160 148 114T198 39L377 422ZM481 218Q481 277 463 323T413 398L234 14Q268 -2 306 -2Q345 -2 377 14T433 59T468 128T481 218ZM542
218Q542 158 526 108T479 22T404 -35T306 -55Q255 -55 211 -36L170 -124L130 -106L173 -15Q123 20 97 80T70 218Q70 278 86 328T133 414T208 471T306 491Q359 491 400 472L436 550L476 532L438 452Q488 417 515 357T542 218Z" />
<glyph unicode="&#xf9;" horiz-adv-x="550" d="M490 -29Q490 -43 476 -43H440Q426 -43 426 -29V54Q400 -6 357 -32T247 -59Q60 -59 60 150V484Q60 498 74 498H114Q128 498 128 484V168Q128 -2 258 -2Q296 -2 326 14T378 59T410 126T420 206V484Q420 498 434 498H474Q488
498 488 484V82Q488 49 488 23T490 -29ZM318 571Q318 564 309 564H255Q247 564 243 567T232 579L149 676Q145 680 145 684Q145 691 156 691H222Q231 691 235 688T247 676L314 581Q318 577 318 571Z" />
<glyph unicode="&#xfa;" horiz-adv-x="550" d="M490 -29Q490 -43 476 -43H440Q426 -43 426 -29V54Q400 -6 357 -32T247 -59Q60 -59 60 150V484Q60 498 74 498H114Q128 498 128 484V168Q128 -2 258 -2Q296 -2 326 14T378 59T410 126T420 206V484Q420 498 434 498H474Q488
498 488 484V82Q488 49 488 23T490 -29ZM199 571Q199 577 203 581L270 676Q277 684 281 687T295 691H361Q372 691 372 684Q372 680 368 676L285 579Q278 571 274 568T262 564H208Q199 564 199 571Z" />
<glyph unicode="&#xfb;" horiz-adv-x="550" d="M490 -29Q490 -43 476 -43H440Q426 -43 426 -29V54Q400 -6 357 -32T247 -59Q60 -59 60 150V484Q60 498 74 498H114Q128 498 128 484V168Q128 -2 258 -2Q296 -2 326 14T378 59T410 126T420 206V484Q420 498 434 498H474Q488
498 488 484V82Q488 49 488 23T490 -29ZM411 571Q411 564 402 564H350Q342 564 338 567T327 579L275 646L222 579Q215 571 211 568T199 564H147Q138 564 138 571Q138 577 142 581L208 675Q215 683 219 686T232 690H317Q326 690 330 687T342 675L407 581Q411 577
411 571Z" />
<glyph unicode="&#xfc;" horiz-adv-x="550" d="M490 -29Q490 -43 476 -43H440Q426 -43 426 -29V54Q400 -6 357 -32T247 -59Q60 -59 60 150V484Q60 498 74 498H114Q128 498 128 484V168Q128 -2 258 -2Q296 -2 326 14T378 59T410 126T420 206V484Q420 498 434 498H474Q488
498 488 484V82Q488 49 488 23T490 -29ZM136 617Q136 637 150 651T184 666Q204 666 218 652T233 617Q233 597 219 583T184 569Q164 569 150 583T136 617ZM326 617Q326 637 340 651T374 666Q394 666 408 652T423 617Q423 597 409 583T374 569Q354 569 340 583T326
617Z" />
<glyph unicode="&#xfe;" horiz-adv-x="599" d="M449 218Q449 267 437 307T401 377T346 422T274 438Q200 438 150 382V55Q173 26 204 12T273 -2Q313 -2 345 14T400 59T435 128T448 218H449ZM510 218Q510 158 494 108T447 22T372 -35T274 -55Q239 -55 207 -46T151
-14V-140H89V674H150V452Q172 471 205 481T273 491Q327 491 371 471T446 415T493 328T510 218Z" />
<glyph unicode="&#x2013;" horiz-adv-x="410" d="M351 283H59V341H351V283Z" />
<glyph unicode="&#x2014;" horiz-adv-x="864" d="M862 286H2V338H862V286Z" />
<glyph unicode="&#x2018;" horiz-adv-x="185" d="M90 601Q115 605 135 589T156 548Q156 525 139 508T99 491Q76 491 61 508T44 550Q40 593 47 622T69 677Q80 694 98 710T138 732Q149 735 150 733T152 720V709Q152 697 151 695T138 688Q116 680 103 658T90 601Z" />
<glyph unicode="&#x2019;" horiz-adv-x="185" d="M93 627Q68 623 48 639T27 680Q27 703 44 720T84 737Q107 737 122 720T139 678Q143 635 136 606T114 551Q103 534 85 518T45 496Q34 493 33 495T31 508V519Q31 531 32 533T45 540Q67 548 80 570T93 627Z" />
<glyph unicode="&#x201c;" horiz-adv-x="350" d="M254 601Q279 605 299 589T320 548Q320 525 303 508T263 491Q240 491 225 508T208 550Q204 593 211 622T233 677Q244 694 262 710T302 732Q313 735 314 733T316 720V709Q316 697 315 695T302 688Q280 680 267 658T254
601ZM116 601Q141 605 161 589T182 548Q182 525 165 508T125 491Q102 491 87 508T70 550Q66 593 73 622T95 677Q106 694 124 710T164 732Q175 735 176 733T178 720V709Q178 697 177 695T164 688Q142 680 129 658T116 601Z" />
<glyph unicode="&#x201d;" horiz-adv-x="350" d="M96 627Q71 623 51 639T30 680Q30 703 47 720T87 737Q110 737 125 720T142 678Q146 635 139 606T117 551Q106 534 88 518T48 496Q37 493 36 495T34 508V519Q34 531 35 533T48 540Q70 548 83 570T96 627ZM234 627Q209
623 189 639T168 680Q168 703 185 720T225 737Q248 737 263 720T280 678Q284 635 277 606T255 551Q244 534 226 518T186 496Q175 493 174 495T172 508V519Q172 531 173 533T186 540Q208 548 221 570T234 627Z" />
<glyph unicode="&#x2022;" horiz-adv-x="940" d="M582 305Q582 282 573 262T549 227T514 204T471 195Q448 195 428 203T393 227T369 262T360 305Q360 328 369 348T393 383T428 407T471 416Q494 416 514 407T549 383T573 348T582 305Z" />
<glyph unicode="&#x2039;" horiz-adv-x="940" d="M823 -133L116 300L823 732V696L185 300L823 -95V-133Z" />
<glyph unicode="&#x203a;" horiz-adv-x="940" d="M823 300L116 -133V-95L754 300L116 696V732L823 300Z" />
</font>
</defs>
</svg>
